<svg id="그룹_1277" data-name="그룹 1277" xmlns="http://www.w3.org/2000/svg" xmlns:xlink="http://www.w3.org/1999/xlink" width="160" height="146" viewBox="0 0 160 146">
  <defs>
    <clipPath id="clip-path">
      <rect id="사각형_175" data-name="사각형 175" width="160" height="146" fill="none"/>
    </clipPath>
  </defs>
  <g id="그룹_1276" data-name="그룹 1276" clip-path="url(#clip-path)">
    <path id="패스_105116" data-name="패스 105116" d="M72.852,3.112C66.526,1.723,52.094.188,44.761,9.7S20.7,14,6.483,29.6s-1.6,30.931,5.152,51.273,37.291,44.9,51.666,40.8,26.151-6.85,49.332-.684,29.135-5.919,42.727-28.489-6.326-56.678-13.311-68.513C122.195.645,79.178,4.5,72.852,3.112Z" transform="translate(0 0.003)" fill="#ece5d6"/>
    <path id="패스_105117" data-name="패스 105117" d="M101.469,366.775s2.6-6.11,3.565-6.613l5.683-7.182,6.038-4.468,6.625-1.912,5.3.535,7.472,3.093,4.84,4.56,3.731,7.682.932,4.52s.647,4.866,0,5.99h3.617l5.867.909,4.687,2.738s2.99-1.93,4.864-1.364,7.176,2.309,7.176,2.309a56.439,56.439,0,0,1,2.3-5.6c.592-.884,4.226-5.823,4.226-5.823l5.484-2.626,6.093-.221,5.6,2.4,5.076,5.687,1.609,3.17s3.539,6.015,1.384,10.328l3.186.2,3.512,1.905,3.181,5.447-.476,5.366-3.985,3.829-7.358,1.154-3.724,4.747-6.36,3.15-8.616-1-5.657-2.372-3.664-4.35a56.354,56.354,0,0,1-.288,7.2c-.359,1.464-5.377,5.491-5.377,5.491l-6.382.7-5.37,5.632-6.94,3.44-6.625-1.737-7.892-5.1-1.583-1.675-4.586,2.073-6.791,1.327-5.805-2.767-2.876-3.206s-1.779-3.837-1.995-4.787l-4.335-3.234-1.7-3.538-8.654,2.638-8.461-.243-5.495-2.1L76.679,397.8l-2.534-5.366-1-7.978,1.114-6.222,3.6-6.738,5.99-4.621,6.3-1.616,6.767.128Z" transform="translate(-58.97 -279.425)" fill="#fff"/>
    <path id="패스_105118" data-name="패스 105118" d="M144.623,477.557c-2.957,6.735-9.185,12.114-16.794,12.107-6.865.023-15.115-1.592-20.7-5.773a9.525,9.525,0,0,1-3.023-3.627,5.553,5.553,0,0,1-.393-1.573l.363.2a29.066,29.066,0,0,1-6.463,2.254c-5.827,1.357-12.292.8-17.373-2.542a17.431,17.431,0,0,1-6.959-8.545c-3.074-7.906-1.747-17.946,4.336-24.086a17.641,17.641,0,0,1,10.72-4.987,23.766,23.766,0,0,1,9.361.477,18.851,18.851,0,0,1,12.26,9.989,19.332,19.332,0,0,1,1.867,6.561,20.9,20.9,0,0,1,.04,3.421.145.145,0,0,1-.29-.019,20.582,20.582,0,0,0-.069-3.368,18.757,18.757,0,0,0-8.556-13.814A20.815,20.815,0,0,0,90.073,441.3c-5.385.41-9.676,2.069-13.21,6.289a21.671,21.671,0,0,0-4.557,12.389,23.5,23.5,0,0,0,1.495,9.879,17.306,17.306,0,0,0,4.715,6.8,19.915,19.915,0,0,0,12.3,4.65,28.356,28.356,0,0,0,13.02-2.849.251.251,0,0,1,.363.2,5.058,5.058,0,0,0,.354,1.422,9.046,9.046,0,0,0,2.866,3.435c4.492,3.362,10.285,4.845,15.789,5.484a28.121,28.121,0,0,0,7.656-.048c6.115-1.128,10.99-5.961,13.47-11.5a.154.154,0,1,1,.286.114" transform="translate(-57.794 -355.313)" fill="#00393d"/>
    <path id="패스_105119" data-name="패스 105119" d="M591.248,440.9a13.9,13.9,0,0,1,8.8-9.749,14.531,14.531,0,0,1,13.118,1.605,19.655,19.655,0,0,1,6.231,7.575,18.782,18.782,0,0,1,.953,2.279.145.145,0,0,1-.275.093c-1.747-4.231-4.638-8.265-8.77-10.407a13.293,13.293,0,0,0-4.56-1.368,14.985,14.985,0,0,0-9.735,2.329,14.052,14.052,0,0,0-5.465,7.707.154.154,0,1,1-.3-.065" transform="translate(-476.69 -346.897)" fill="#00393d"/>
    <path id="패스_105120" data-name="패스 105120" d="M536.118,546.616c6.289-4.965,12.98-4.628,16.155,3.426a7.837,7.837,0,0,1-2.337,9.166,11.808,11.808,0,0,1-9.462,2.459l.306-.158a14.436,14.436,0,0,1-9.738,7.8,15.179,15.179,0,0,1-5.333.057l-.527-.065c-4.35-.668-8.852-2.3-11.7-5.818a11.657,11.657,0,0,1-1.206-1.781l.431.044a11.075,11.075,0,0,1-2.036,1.679,13.815,13.815,0,0,1-11.3,1.584,22.341,22.341,0,0,1-5.9-2.626.145.145,0,0,1,.151-.248,23.037,23.037,0,0,0,5.233,2.339c4.7,1.413,9.98.55,13.46-3.072a.266.266,0,0,1,.431.044,13.273,13.273,0,0,0,6.056,5.415,24.652,24.652,0,0,0,8.027,2.059,13.879,13.879,0,0,0,13.455-7.637.278.278,0,0,1,.307-.158c4.538.841,10.306-1.493,11.587-6.232.787-3.139-.749-6.467-2.826-8.79a7.113,7.113,0,0,0-4.1-2.276c-3.218-.482-6.433,1.09-8.926,3.024a.154.154,0,1,1-.2-.234" transform="translate(-397.8 -438.036)" fill="#00393d"/>
    <path id="패스_105121" data-name="패스 105121" d="M338.06,668.111a8.785,8.785,0,0,1-4.284,6.172,11.131,11.131,0,0,1-7.557.722l.252-.111a23.846,23.846,0,0,1-2.654,3.482c-5.763,6.313-12.349,7.407-19.837,3.3a25.081,25.081,0,0,1-6.749-5.539l.345.074a43.462,43.462,0,0,1-8.325,3.3,8.111,8.111,0,0,1-1.509.235c-3.079.075-6.588-1.887-8.723-4.011a11.116,11.116,0,0,1-2.17-3.059.145.145,0,0,1,.262-.126,11.14,11.14,0,0,0,2.7,3.424c2.146,1.788,5.4,3.516,8.258,3.248a19.59,19.59,0,0,0,3.857-1.109c1.835-.7,3.639-1.519,5.4-2.4a.283.283,0,0,1,.345.074,23.785,23.785,0,0,0,3.065,2.971,23.51,23.51,0,0,0,5.441,3.367c6.866,2.93,12.271,1.228,17.274-4.094a23.408,23.408,0,0,0,2.616-3.382.236.236,0,0,1,.252-.111,10.831,10.831,0,0,0,7.271-.612,8.443,8.443,0,0,0,4.169-5.863.154.154,0,1,1,.3.045" transform="translate(-223.2 -538.476)" fill="#00393d"/>
    <rect id="사각형_166" data-name="사각형 166" width="24.945" height="1.162" transform="translate(54.765 130.017) rotate(-84.914)" fill="#e37d00"/>
    <rect id="사각형_167" data-name="사각형 167" width="1.162" height="16.13" transform="translate(42.876 108.306) rotate(-0.795)" fill="#e37d00"/>
    <rect id="사각형_168" data-name="사각형 168" width="1.162" height="14.152" transform="translate(26.296 111.388) rotate(-5.322)" fill="#e37d00"/>
    <rect id="사각형_169" data-name="사각형 169" width="25.928" height="1.162" transform="translate(68.765 128.124) rotate(-86.952)" fill="#e37d00"/>
    <rect id="사각형_170" data-name="사각형 170" width="1.162" height="25.69" transform="matrix(0.997, -0.077, 0.077, 0.997, 84.482, 98.113)" fill="#e37d00"/>
    <rect id="사각형_171" data-name="사각형 171" width="1.161" height="25.67" transform="translate(98.944 93.201) rotate(-6.9)" fill="#e37d00"/>
    <rect id="사각형_172" data-name="사각형 172" width="1.161" height="24.875" transform="translate(113.52 87.312) rotate(-13.775)" fill="#e37d00"/>
    <rect id="사각형_173" data-name="사각형 173" width="1.161" height="23.51" transform="translate(128.888 80.785) rotate(-14.136)" fill="#e37d00"/>
    <rect id="사각형_174" data-name="사각형 174" width="1.16" height="22.558" transform="translate(141.796 74.335) rotate(-16.368)" fill="#e37d00"/>
    <path id="패스_105122" data-name="패스 105122" d="M76.3,379.7A445.384,445.384,0,0,0,159.042,360c8.082-2.782,16.389-6.02,24.222-9.454,4.138-1.789,8.8-4.025,12.838-6.018,1.5-.782,3.742-1.949,5.237-2.732.859-.43,4.294-2.383,5.168-2.857,1.226-.66,2.874-1.68,4.073-2.391,1.1-.654,2.956-1.757,4.023-2.475l3.968-2.562a.665.665,0,1,1,.745,1.1l-3.975,2.614c-1.8,1.214-4.2,2.617-6.062,3.765-1.283.8-4.814,2.762-6.188,3.552-1.906,1.046-4.375,2.307-6.307,3.334-26.187,13.193-54.39,22.005-82.959,28.316-12.371,2.693-24.83,4.948-37.417,6.449a.471.471,0,1,1-.106-.935" transform="translate(-61.181 -267.16)" fill="#003a3f"/>
    <path id="패스_105123" data-name="패스 105123" d="M271.854,500.314a164.728,164.728,0,0,0,27.716-5.34A247.7,247.7,0,0,0,339.3,480.226c5.2-2.423,10.711-5.279,15.754-8.027,1.762-.973,3.632-2.055,5.39-3.044,1.374-.815,3.952-2.354,5.321-3.165,2.293-1.431,5.235-3.224,7.479-4.723l2.963-1.935a.664.664,0,1,1,.745,1.1L374,462.41c-2.235,1.53-5.173,3.366-7.464,4.83a252.892,252.892,0,0,1-52.983,24.966A194.334,194.334,0,0,1,279,500.518c-2.356.318-4.7.594-7.1.736a.471.471,0,1,1-.049-.94" transform="translate(-218.82 -370.214)" fill="#003a3f"/>
    <path id="패스_105124" data-name="패스 105124" d="M374.692,532.464c-.455-.373-5.838,1.148-8.483-3.357s-6.935-1.932-7.118,0,1.759.786,2.293.537a4.553,4.553,0,0,1,3.931.981c2.565,2.639,7.52,3.627,9.188,3.133" transform="translate(-289.508 -424.54)" fill="#003a3f"/>
    <path id="패스_105125" data-name="패스 105125" d="M325.965,491.824l-.368,1.024-5.12-1.6-.767-.652.144-1.11.31-.439Z" transform="translate(-257.766 -394.259)" fill="#fff"/>
    <path id="패스_105126" data-name="패스 105126" d="M315.555,507.984l.184,1.411-.345,1.465-1.511.736-.689.735-.846.625a8.876,8.876,0,0,1-1.44.08,6.643,6.643,0,0,0-1.106-.679l-.734-1.057-1.674-1.682-1.161-1.815.8-1.984,1.232-.886Z" transform="translate(-246.901 -407.069)" fill="#fff"/>
    <path id="패스_105127" data-name="패스 105127" d="M548.595,447.574l-1.681-1.569-.169-1.769,1.14.7.855,1.21Z" transform="translate(-440.814 -358.136)" fill="#fff"/>
    <path id="패스_105128" data-name="패스 105128" d="M495.793,471.26l10.544.282.177.957.113.572-.828.432-2.416.448-2.566.7-3.129.2Z" transform="translate(-399.733 -379.923)" fill="#fff"/>
    <path id="패스_105129" data-name="패스 105129" d="M373.443,571.59c-.009.044-.9,2.751-.951,2.866-.555,1.183-3.4,5.616-6.844,3.066l-4.115-3.628s-1.781,3.82-3.525,3.262-3.758-2.525-1.406-7.8,4.4-2.866,4.4-2.866l3.216,3.009,2.285-.162Z" transform="translate(-286.648 -456.251)" fill="#fff"/>
    <path id="패스_105130" data-name="패스 105130" d="M366.167,577.074a3.95,3.95,0,0,1-2.368-.855l-.026-.021-3.738-3.3c-.523.984-1.811,3.083-3.287,3.083a1.555,1.555,0,0,1-.477-.075,3.8,3.8,0,0,1-2.363-2.062c-.689-1.539-.446-3.648.721-6.267,1-2.236,2.1-3.456,3.27-3.625a2.07,2.07,0,0,1,1.766.646l3.081,2.882,2.117-.151a.379.379,0,0,1,.147.018l6.935,2.255a.388.388,0,0,1,.26.446c-.023.113-.93,2.846-.98,2.954-.429.915-2.017,3.409-4.184,3.957a3.542,3.542,0,0,1-.873.111m-1.894-1.469a2.99,2.99,0,0,0,2.577.606c1.866-.472,3.313-2.767,3.673-3.535.054-.134.579-1.727.815-2.453l-6.5-2.112-2.21.157a.383.383,0,0,1-.292-.1l-3.217-3.009a.419.419,0,0,1-.03-.032,1.29,1.29,0,0,0-1.093-.4c-.611.093-1.57.719-2.663,3.172-1.074,2.409-1.317,4.305-.722,5.634a3.014,3.014,0,0,0,1.892,1.641c1.158.371,2.631-2.146,3.055-3.057a.388.388,0,0,1,.607-.127Z" transform="translate(-285.03 -454.637)" fill="#00393e"/>
    <path id="패스_105131" data-name="패스 105131" d="M500.627,519.6c-.171.173-3.405-5.545-4.1-5.312,0,0-4.858,3.612-4.316,7.806l.275,1.023a11.471,11.471,0,0,1,4.443,3.254c.529.693,1.053,1.381,1.585,2.075a4.661,4.661,0,0,0,1.228,1.2c1,.607,1.907.174,2.874-.265a6.8,6.8,0,0,0,1.852-1.225,10.023,10.023,0,0,0,2.727-7.6,3.57,3.57,0,0,0-2.043-2.614,3.751,3.751,0,0,0-3,.394,8.249,8.249,0,0,0-1.519,1.27" transform="translate(-396.809 -414.609)" fill="#fff"/>
    <path id="패스_105132" data-name="패스 105132" d="M499.164,528.712a2.33,2.33,0,0,1-1.233-.358,5.063,5.063,0,0,1-1.335-1.294c-.385-.5-.765-1-1.146-1.5l-.44-.576a11.161,11.161,0,0,0-4.274-3.127.388.388,0,0,1-.235-.261l-.275-1.022a.384.384,0,0,1-.01-.051,7.78,7.78,0,0,1,2.037-5.768,14.809,14.809,0,0,1,2.432-2.4.386.386,0,0,1,.109-.057c.59-.2,1.226.526,3.4,3.867.3.458.625.959.835,1.255a7.686,7.686,0,0,1,1.3-1.043,4.154,4.154,0,0,1,3.333-.429,3.955,3.955,0,0,1,2.3,2.9,8.557,8.557,0,0,1-.766,4.789,8.836,8.836,0,0,1-2.074,3.179,7.226,7.226,0,0,1-1.958,1.3l-.058.026a4.823,4.823,0,0,1-1.944.576m-7.965-7.5a11.655,11.655,0,0,1,4.427,3.3l.44.576c.381.5.761,1,1.145,1.5a4.3,4.3,0,0,0,1.121,1.1c.768.465,1.433.2,2.455-.26l.058-.026a6.438,6.438,0,0,0,1.746-1.153,8.07,8.07,0,0,0,1.887-2.9,7.842,7.842,0,0,0,.728-4.338,3.211,3.211,0,0,0-1.791-2.329,3.339,3.339,0,0,0-2.676.358,7.939,7.939,0,0,0-1.445,1.212.415.415,0,0,1-.326.117c-.265-.027-.345-.127-1.421-1.779a23.94,23.94,0,0,0-2.548-3.5c-.79.637-4.452,3.8-4.018,7.3Zm7.819-3.231h0Z" transform="translate(-395.2 -412.983)" fill="#00393e"/>
    <path id="패스_105133" data-name="패스 105133" d="M500.466,518.823a5.532,5.532,0,0,0-4.851,5.491l-1.8-.951-.8-.561-.252-2.432,1.011-2.463,1.882-2.33,1.666-1.226,2.18,3Z" transform="translate(-397.292 -414.662)" fill="#00393e"/>
    <path id="패스_105134" data-name="패스 105134" d="M393.055,582.773s-.087,3.532-2.4,5.144l3.708,3.182,1.992.513,1.249-.369,1.927-1.563,1.626-2.936.2-1.842-1.857.091-1.9-.091-1.741-1.071-1.281-1.38Z" transform="translate(-314.97 -469.563)" fill="#00393e"/>
    <path id="패스_105135" data-name="패스 105135" d="M425.261,506.412a4.386,4.386,0,0,1,3.8.764s1.407-.492,1.22.376-6.078,3.9-4.21,9.1a1.285,1.285,0,0,1-1.365.147c-.634-.414-5.018,2.151-5.018,2.151s-2.218,2.162-2.4,3.37c0,0,.641,1.644-.96,1.151a7.027,7.027,0,0,1-6.538-2.4s1.272-2.732,1.083-3.6a27.606,27.606,0,0,0-.863-2.647,7.963,7.963,0,0,0,4.781-.137l1.721-.649,2.978-2.025.843-1.342,1.15-1.317,2.351-2.024Z" transform="translate(-330.401 -408.145)" fill="#fff"/>
    <path id="패스_105136" data-name="패스 105136" d="M413.568,522.346a7.345,7.345,0,0,1-5.675-2.637.387.387,0,0,1-.058-.416,9.775,9.775,0,0,0,1.056-3.35c-.18-.826-.84-2.575-.846-2.592a.387.387,0,0,1,.478-.507,7.624,7.624,0,0,0,4.52-.127l1.686-.636,2.873-1.954.8-1.274a.385.385,0,0,1,.036-.049l1.15-1.317a.425.425,0,0,1,.039-.039l2.351-2.024a.39.39,0,0,1,.04-.03l1.417-.929a.388.388,0,0,1,.1-.048,4.792,4.792,0,0,1,4,.7,1.5,1.5,0,0,1,1.306.112.762.762,0,0,1,.209.777c-.072.334-.427.649-1.071,1.221-1.566,1.39-4.48,3.977-3.154,7.67a.388.388,0,0,1-.129.439,1.621,1.621,0,0,1-1.786.182c-.472-.063-2.733,1.033-4.6,2.119a9.733,9.733,0,0,0-2.232,3.029,1.455,1.455,0,0,1-.131,1.384,1.18,1.18,0,0,1-1.247.2,6.515,6.515,0,0,1-1.139.093m-4.924-2.958a6.571,6.571,0,0,0,6,2.088.392.392,0,0,1,.2.008c.374.115.524.07.547.045a1.008,1.008,0,0,0-.063-.685.394.394,0,0,1-.022-.2c.191-1.3,2.272-3.361,2.509-3.591a.384.384,0,0,1,.075-.057c3.046-1.782,4.871-2.5,5.425-2.141a.72.72,0,0,0,.685,0c-1.244-4.016,1.811-6.729,3.472-8.2a5.532,5.532,0,0,0,.832-.821.212.212,0,0,0,0-.022,1.779,1.779,0,0,0-.722.11.387.387,0,0,1-.38-.072,3.991,3.991,0,0,0-3.392-.7l-1.343.881-2.311,1.989-1.112,1.273-.827,1.316a.387.387,0,0,1-.11.114l-2.978,2.025a.379.379,0,0,1-.081.042l-1.721.649a7.942,7.942,0,0,1-4.306.317,20.216,20.216,0,0,1,.63,2.021c.182.836-.658,2.836-1,3.61m9.243-8.986h0Z" transform="translate(-328.788 -406.524)" fill="#00393e"/>
    <path id="패스_105137" data-name="패스 105137" d="M407.3,475.327l2.326.5,3.215-.808,2.578-1.005,1.7-1.05,1.909-1.073,2.522-1.84,2.43-2.372.454-.667-1.811-1.276-3.905-6-.574-.8-5.921-.992-5.247-.544-1.074.416.51.76,1.683-.318,5.119,1.063.128.765-.16,4.08-.562,4.259,2,4.595-2.719,1.248-4.191.064-.833-.064Z" transform="translate(-327.262 -368.752)" fill="#fff"/>
    <path id="패스_105138" data-name="패스 105138" d="M500.933,449.835s.882,1.419,1.276.67c.669-1.273-3.067-4.026-4.069-6.492-.306-.754-.7-.019-.855.584-.207.788.069,1.143-.048,1.052-.456-.357-7.749,2.591-7.961,3.86" transform="translate(-394.479 -357.699)" fill="#fff"/>
    <path id="패스_105139" data-name="패스 105139" d="M500.029,448.289c.21.229.577.649.809.671a.738.738,0,0,0-.043-.659,10.334,10.334,0,0,0-1.508-2.061,15.464,15.464,0,0,1-2.482-3.449,1.56,1.56,0,0,0-.108-.225c-.01-.016-.016-.007.033.013a.182.182,0,0,0,.138-.007.908.908,0,0,0-.152.245,1.909,1.909,0,0,0-.143,1.32.38.38,0,0,1-.13.354.379.379,0,0,1-.483,0,.274.274,0,0,0,.088.046c.031.006-.014,0-.048.006a17.225,17.225,0,0,0-3.184,1.1,26.774,26.774,0,0,0-3.515,1.735,2.166,2.166,0,0,0-.839.762.252.252,0,0,1-.489-.116c.118-.545.582-.842.971-1.163a22.094,22.094,0,0,1,6.11-2.861,4.83,4.83,0,0,1,.889-.188.689.689,0,0,1,.466.106.354.354,0,0,0-.429.02.384.384,0,0,0-.123.2.325.325,0,0,0,0,.111c0,.024-.007-.032-.007-.032-.172-.632.132-2.159.871-2.311a.658.658,0,0,1,.659.455c.9,2.182,2.97,3.586,4.037,5.686.532,1.072-.408,2.217-1.313,1.044a3.3,3.3,0,0,1-.371-.606.179.179,0,0,1,.3-.187" transform="translate(-393.425 -356.246)" fill="#003a3f"/>
    <path id="패스_105140" data-name="패스 105140" d="M488.112,482.276s9.536-.5,12.429-2.412" transform="translate(-393.541 -386.859)" fill="#fff"/>
    <path id="패스_105141" data-name="패스 105141" d="M487.408,481.706c2.1-.235,4.208-.5,6.288-.868a22.873,22.873,0,0,0,5.692-1.377c.117-.069.568-.189.515.1-.114.3-.4.385-.648.53a11.38,11.38,0,0,1-2.293.839,30.491,30.491,0,0,1-6.337,1c-1.065.074-2.129.128-3.2.135a.178.178,0,0,1-.019-.354" transform="translate(-392.846 -386.466)" fill="#003a3f"/>
    <path id="패스_105142" data-name="패스 105142" d="M440.577,428.688s8.4,3.546,10.079,7.022A32.676,32.676,0,0,0,456,443.583s-4.832,2.218-6.214,1.473c-7.112-3.827-4.435-7.353-5.6-11.76a7.3,7.3,0,0,0-3.606-4.608" transform="translate(-355.215 -345.602)" fill="#003a3f"/>
    <path id="패스_105143" data-name="패스 105143" d="M168.955,175.867c-2.1-.8-7.465-3-7.178-5.728a3.483,3.483,0,0,1,.1-.4c.685-1.967,2.205-3.465,3.312-5.164a3.834,3.834,0,0,0,.772-1.931,2.868,2.868,0,0,0-.608-1.546c-.593-.6-1.587-.268-2.332-.077-.912.263-1.8.674-2.734.886a17.54,17.54,0,0,1-2.883.456c-1.4.1-5.825.264-5.131-2.094a10.253,10.253,0,0,1,3.573-4.62,8.646,8.646,0,0,1,5.533-1.65.194.194,0,0,1-.011.387,9.154,9.154,0,0,0-2.736.444,8.36,8.36,0,0,0-2.427,1.3,9.86,9.86,0,0,0-3.249,4.367.491.491,0,0,0,0,.409c.694.908,3.292.765,4.39.689a18.891,18.891,0,0,0,2.76-.437c.933-.211,1.784-.607,2.707-.866.964-.277,2.289-.569,3.079.29a3.372,3.372,0,0,1,.708,1.428,2.319,2.319,0,0,1,.1.624c-.044,1.372-.993,2.47-1.76,3.509a14.691,14.691,0,0,0-2.484,3.876,1.332,1.332,0,0,0,0,.785c.542,1.561,2.678,2.717,4.078,3.49.838.436,1.7.84,2.575,1.192a.205.205,0,0,1-.147.383" transform="translate(-122.712 -124.139)" fill="#003a3f"/>
    <path id="패스_105144" data-name="패스 105144" d="M285.634,286.935,225.02,256.378l2.372-2.391,60.076,32.144Z" transform="translate(-181.422 -204.76)" fill="#fff"/>
    <path id="패스_105145" data-name="패스 105145" d="M284.424,286.016a.29.29,0,0,1-.131-.031l-60.614-30.557a.291.291,0,0,1-.075-.464l2.372-2.391a.29.29,0,0,1,.343-.052L286.4,284.665a.291.291,0,0,1-.021.523l-1.834.8a.29.29,0,0,1-.117.024M224.3,255.089,284.432,285.4l1.161-.508-59.357-31.76Z" transform="translate(-180.212 -203.551)" fill="#003a3f"/>
    <path id="패스_105146" data-name="패스 105146" d="M467.167,448.174a6.909,6.909,0,0,1,2.653,2.379,31.254,31.254,0,0,1,1.6,3.062c.992,2.02,2.209,4.277,1.8,6.624a.19.19,0,0,1-.377-.042c.074-2.271-1.153-4.239-2.126-6.229-.518-.983-.882-2.078-1.5-3.006a6.53,6.53,0,0,0-2.3-2.218.314.314,0,0,1,.26-.57" transform="translate(-376.302 -361.289)" fill="#003a3f"/>
    <path id="패스_105147" data-name="패스 105147" d="M410.471,456.425c-.308,3.306-1.994,9.284,1.777,13.3a18.163,18.163,0,0,1-10.688.982s.952-8.243,2.465-16.858c.1-.554-.719-2.1,3.074-.884,1.145.367,3.484,2.264,3.372,3.462" transform="translate(-323.758 -364.806)" fill="#00393e"/>
    <path id="패스_105148" data-name="패스 105148" d="M537.069,419.241l3-1.533s4.784,9.028,5.491,9.463.965-.06,1.116.454-3.262,2.564-3.31,1.883.179-1.429-.173-1.692-6.124-8.575-6.124-8.575" transform="translate(-433.012 -336.75)" fill="#fff"/>
    <path id="패스_105149" data-name="패스 105149" d="M542.342,428.722a.556.556,0,0,1-.206-.034.42.42,0,0,1-.268-.368,5.488,5.488,0,0,1,.011-.716c.018-.3.041-.682-.069-.765-.362-.271-4.828-6.683-6.189-8.642a.291.291,0,0,1,.106-.425l3-1.533a.291.291,0,0,1,.389.123c1.813,3.421,4.88,8.986,5.389,9.354a.912.912,0,0,0,.586.153.565.565,0,0,1,.654.465c.088.3-.182.591-.426.813a6.922,6.922,0,0,1-2.979,1.576m-6.053-10.583c2.262,3.254,5.565,7.949,5.88,8.244.35.262.32.767.29,1.257-.01.167-.021.338-.018.5a7,7,0,0,0,2.732-1.691v0h-.062a1.48,1.48,0,0,1-.912-.241c-.7-.433-4.417-7.357-5.461-9.321Z" transform="translate(-431.804 -335.541)" fill="#003a3f"/>
    <path id="패스_105150" data-name="패스 105150" d="M568.263,445.977s.833-.035.8,1.031a2.246,2.246,0,0,1-1.917,1.924c-.645-.028-1.16-.667-.434-1.539a8.051,8.051,0,0,1,1.547-1.417" transform="translate(-456.63 -359.54)" fill="#fff"/>
    <path id="패스_105151" data-name="패스 105151" d="M566.893,445.062c.914-.038,1.209.94,1.006,1.682-.294,1.006-1.589,2.187-2.672,1.633a1.174,1.174,0,0,1-.141-1.881,6.043,6.043,0,0,1,1.806-1.435m.083.344a11.369,11.369,0,0,0-1.393,1.485c-.374.47-.3.973.294.969A2.137,2.137,0,0,0,567.3,446.8c.252-.436.292-1.28-.342-1.375-.008,0-.029,0-.036,0s-.009,0,0,0a.141.141,0,0,0,.051-.013" transform="translate(-455.278 -358.801)" fill="#003a3f"/>
    <path id="패스_105152" data-name="패스 105152" d="M560.036,437.712a2.556,2.556,0,0,1-1.386,1.269c-.681.245.315,2.4,2.029.825s1.2-2.131.651-2.658-1.167.19-1.294.564" transform="translate(-450.238 -352.272)" fill="#fff"/>
    <path id="패스_105153" data-name="패스 105153" d="M559.088,436.688a2.721,2.721,0,0,1-1.471,1.448c-.018.016-.017.016-.031.062a.792.792,0,0,0,.68.78c.6.059,1.165-.581,1.572-1.009l.194-.227c.444-.559.533-.945.035-1.412a.552.552,0,0,0-.241-.18c-.256-.067-.66.309-.738.538m-.331-.112c.161-.65.946-1.269,1.568-.782a2.621,2.621,0,0,1,.518.525c.508.715,0,1.565-.5,2.1a4,4,0,0,1-1.374,1.07,1.386,1.386,0,0,1-1.513-.284,1.1,1.1,0,0,1-.251-1.382c.205-.216.522-.225.758-.416a2.473,2.473,0,0,0,.794-.835" transform="translate(-449.12 -351.19)" fill="#003a3f"/>
    <path id="패스_105154" data-name="패스 105154" d="M553.367,427.531a2.218,2.218,0,0,1-1.319,1.208c-.667.212.434,2.426,2.065.932s1.091-2.084.516-2.642-1.155.132-1.263.5" transform="translate(-444.93 -344.095)" fill="#fff"/>
    <path id="패스_105155" data-name="패스 105155" d="M552.461,426.513a2.428,2.428,0,0,1-1.419,1.4c.005,0,0,.006-.006.064a.957.957,0,0,0,.738.816c.6.1,1.139-.52,1.528-.942.41-.475.743-.986.206-1.515-.058-.066-.127-.143-.193-.2-.158-.158-.314-.164-.529-.016a.9.9,0,0,0-.325.4m-.335-.1c.146-.683.935-1.235,1.55-.719a2.118,2.118,0,0,1,.7.855c.27.774-.293,1.474-.789,1.989a2.134,2.134,0,0,1-1.938.853,1.4,1.4,0,0,1-1.06-1.7c.091-.21.354-.266.524-.331a2.148,2.148,0,0,0,1.017-.942" transform="translate(-443.852 -343.026)" fill="#003a3f"/>
    <path id="패스_105156" data-name="패스 105156" d="M541.742,441.126s.335-1.428.824-.16,1.4.795.835,1.5c-.486.61-.909,1.275-1.217.874-.857-1.114-3.625-3.492-3.429-4.967.135-1.012,1.567-1.471,2.532-1.53,1.008-.061,1.98.682,1.242,1.357a2.073,2.073,0,0,1-2.215.615" transform="translate(-434.364 -352.175)" fill="#fff"/>
    <path id="패스_105157" data-name="패스 105157" d="M540.13,439.825a1.261,1.261,0,0,1,.415-.8c.26-.167.546.1.639.281a2.648,2.648,0,0,0,.606.942,2.308,2.308,0,0,0,.347.221.67.67,0,0,1,.193.159.439.439,0,0,1,.068.391,1.743,1.743,0,0,1-.289.476c-.319.393-.662,1.131-1.292,1.021-.231-.051-.353-.265-.488-.418s-.26-.3-.4-.442a21.846,21.846,0,0,1-2.393-2.822A3.717,3.717,0,0,1,537,437.61c-.25-1.041.7-1.85,1.588-2.1a2.844,2.844,0,0,1,2.611.176,1,1,0,0,1,.411.7c.026.718-.894,1.176-1.481,1.38a1.955,1.955,0,0,1-1.329-.056.169.169,0,0,1,.122-.315A1.677,1.677,0,0,0,540,437.36a2.635,2.635,0,0,0,.925-.607c.239-.244.2-.425-.066-.619a2.791,2.791,0,0,0-2.957.524c-1.1,1.074,1.8,3.687,2.52,4.542.2.215.4.445.586.68l.006.008c.007.008,0,0-.031-.01a.07.07,0,0,0-.045,0,1.3,1.3,0,0,0,.323-.289,8.838,8.838,0,0,0,.6-.733.309.309,0,0,0,0,.038.15.15,0,0,0,.027.066c.018.018-.007-.009-.042-.03a1.917,1.917,0,0,1-.815-.851,3.232,3.232,0,0,0-.328-.689s.042,0,.037,0a1.155,1.155,0,0,0-.266.521.18.18,0,0,1-.35-.082" transform="translate(-432.927 -350.915)" fill="#003a3f"/>
    <path id="패스_105158" data-name="패스 105158" d="M346.482,518.479a3.554,3.554,0,0,1,.207,3.4,1.834,1.834,0,0,1-2.056.562.173.173,0,0,1,.034-.337c1.525-.1,1.848-.843,1.7-2.26a10.509,10.509,0,0,0-.219-1.245.181.181,0,0,1,.335-.124" transform="translate(-277.761 -417.913)" fill="#00393e"/>
    <path id="패스_105159" data-name="패스 105159" d="M306.633,504.965a5.2,5.2,0,0,0-1.476,2.467c-.136.985.7,1.609,1.471,2.112a.172.172,0,0,1-.136.311,2.362,2.362,0,0,1-2-2.516,3.378,3.378,0,0,1,.726-1.54,5.484,5.484,0,0,1,1.187-1.113.18.18,0,0,1,.226.279" transform="translate(-245.473 -406.845)" fill="#00393e"/>
    <path id="패스_105160" data-name="패스 105160" d="M314.313,522.2c-.4,1.415-.3,2.378,1.131,3.057a.175.175,0,0,1-.084.329,1.93,1.93,0,0,1-1.813-2.525c.058-.227.38-1.3.7-1.074a.183.183,0,0,1,.068.213" transform="translate(-252.736 -420.792)" fill="#00393e"/>
    <path id="패스_105161" data-name="패스 105161" d="M323.245,526.878a.391.391,0,0,1-.041.163,7.338,7.338,0,0,0-.316,1.069,2.071,2.071,0,0,0,.36,2,1.825,1.825,0,0,0,2.7-.558,7.559,7.559,0,0,0,.986-2.124.17.17,0,0,1,.334.057c-.141,1.666-1.159,3.907-3.157,3.66-2.233-.3-2.18-2.43-1.353-4.049.036-.07.1-.191.134-.259.01-.024-.017.037-.006.071a.18.18,0,0,1,.357-.033" transform="translate(-259.802 -424.632)" fill="#00393e"/>
    <path id="패스_105162" data-name="패스 105162" d="M321.275,460.884s3.282-6.631,6.38-7a16.365,16.365,0,0,1,6.3.431c1.525.348,6.492,1.953,7.438,2.832,1.845,1.714.481,7.322-1.132,7.292-1.319-.024-6.418-2.746-9.682-3.871-.727-.25-1.678,3.814-1.6,4.321" transform="translate(-259.028 -365.808)" fill="#fff"/>
    <path id="패스_105163" data-name="패스 105163" d="M320.232,459.419c1.194-2.343,3.212-5.834,5.655-6.972a8.963,8.963,0,0,1,3.057-.4,19.909,19.909,0,0,1,5.941,1.012,43.547,43.547,0,0,1,4.238,1.513,3.548,3.548,0,0,1,2.389,2.073c.668,1.764.154,5.658-1.586,6.664a1.375,1.375,0,0,1-.967.064,10.274,10.274,0,0,1-1.466-.491c-.467-.186-.926-.384-1.381-.585-2.163-.95-4.248-2.008-6.45-2.818-.012,0-.034-.014-.037-.014a.052.052,0,0,0,.046,0c0,.007,0,0-.015.009s-.022.012-.037.029a3.867,3.867,0,0,0-.617,1.2,12.5,12.5,0,0,0-.7,2.782.2.2,0,0,1-.183.23.193.193,0,0,1-.2-.173,3.416,3.416,0,0,1,.064-.8,11.715,11.715,0,0,1,.978-3.28c.151-.3.491-.689.886-.524,2.235.772,4.394,1.78,6.548,2.7a15.662,15.662,0,0,0,2.867,1.035l.142.018a.455.455,0,0,0,.188-.053c1.312-.9,1.743-4.317,1.2-5.736-.287-.96-1.133-1.264-1.971-1.643-.444-.2-.9-.373-1.36-.549a41.419,41.419,0,0,0-4.919-1.531,15.618,15.618,0,0,0-5.06-.419,5.4,5.4,0,0,0-1.038.143,4.341,4.341,0,0,0-1.5.853,15.446,15.446,0,0,0-2.835,3.317c-.543.817-1.057,1.663-1.515,2.527a.205.205,0,0,1-.368-.182" transform="translate(-258.169 -364.435)" fill="#00393e"/>
    <path id="패스_105164" data-name="패스 105164" d="M316.37,491.307c-1.03.21-.072,1.525-.425,1.5s-.617.771-.617.771c2.089,2.1,8.28,3.473,8.763,3.42s-.089-.78-.2-.855.741-.235.445-.608a6.225,6.225,0,0,0-2.179-1.393" transform="translate(-254.233 -396.084)" fill="#fff"/>
    <path id="패스_105165" data-name="패스 105165" d="M315.3,490.744c-.471.1-.318.555-.208.931a.617.617,0,0,1,.013.484.311.311,0,0,1-.284.143,1.3,1.3,0,0,0-.35.619l-.063-.267a6.457,6.457,0,0,0,1.383.963,26.329,26.329,0,0,0,6.983,2.3c.069.013.157.017.18.023a.155.155,0,0,0-.069.058.139.139,0,0,0-.027.079c0,.008,0,0,0-.02a1.177,1.177,0,0,0-.284-.436.325.325,0,0,1,0-.462,2.173,2.173,0,0,1,.386-.217c.1-.06.044-.053.052.021a6.122,6.122,0,0,0-2.017-1.4.17.17,0,0,1,.121-.317,7.342,7.342,0,0,1,1.642.777,3.12,3.12,0,0,1,.736.65c.3.48-.222.8-.5.922a.29.29,0,0,0,0-.414c.164.127.715.77.418,1.185-.3.376-.794.167-1.175.126a26.1,26.1,0,0,1-5.121-1.559,9.784,9.784,0,0,1-3.086-1.919.242.242,0,0,1-.053-.257,2.144,2.144,0,0,1,.408-.71.6.6,0,0,1,.475-.212.172.172,0,0,0-.146.084.124.124,0,0,0-.019.054c-.061-.408-.312-1.043.123-1.4.171-.127.545-.312.622-.031a.18.18,0,0,1-.136.206" transform="translate(-253.128 -395.345)" fill="#00393e"/>
    <path id="패스_105166" data-name="패스 105166" d="M403.375,292.652l-2.542-2.563-3.431-2.08-1.83.029s-1.224,1.051-1.348,1.112-5.634,3.956-5.634,3.956-3.061,1.691-3.392,1.852-2.583,1.206-2.975,1.346-2.662.94-2.93,1.02-4.311,1.337-4.311,1.337l-1.57.662.262,4.279,1.694,3.026s4.76-1.049,5.007-1.068,7.362-.238,7.506-.257,2.055.115,2.055.115L393.9,303.8s1.878-2.142,2.051-2.194a9.962,9.962,0,0,0,1.056-1.9c.064-.183,2.444-3.57,2.444-3.57s1.372-1.376,1.641-1.558,2.282-1.92,2.282-1.92" transform="translate(-301.064 -232.189)" fill="#fff"/>
    <path id="패스_105167" data-name="패스 105167" d="M357.948,315.77l-6.422,3.763c-16.644-1.509-24.762,7.193-24.762,7.193l4.59.021c-1.072.522-4.2,1.7-4.457,1.811.411.651,5.026,1.434,5.026,1.434L328.1,331.3a.058.058,0,0,0-.011.1,28.9,28.9,0,0,0,8.229,2.629c9.357,1.974,19.1-1.374,27.084-6.137,4.81-2.868,9.234-6.34,12.192-11.144,1.423-2.31,2.58-5.25,1.418-7.895-1.367-3.11-5.636-3.851-8.6-3.042-4.75,1.295-8.484,5.626-10.463,9.954" transform="translate(-263.454 -246.299)" fill="#fff"/>
    <path id="패스_105168" data-name="패스 105168" d="M252.8,216.93c-11.267,4.828-26-5.924-17.37-17.963,2.641-3.685,7.173-5.434,11.189-7.195,6.807-2.984,11.662-5.067,20.229-15.731s17.006-9.335,17.006-9.335,9.724.588,13.021,8.967-4.31,17.344-4.31,17.344-9.035,10.744-39.765,23.913" transform="translate(-187.72 -134.353)" fill="#fff"/>
    <path id="패스_105169" data-name="패스 105169" d="M358.668,446.169c-1.91-.248-3.315-1.768-6.608-1.513-2.922.225-4.549,1.2-5.88,1.416a20.444,20.444,0,0,1-3.35.578c-.263-.008-.345.479-.132.63,1.338.947,1.882,1.846,3.393,2.479,2.385,1,5.787-.625,8.215-1.682,2.055-.894,2.31-.6,4.361-1.908" transform="translate(-276.203 -358.452)" fill="#003a3f"/>
    <path id="패스_105170" data-name="패스 105170" d="M393.831,453.484c-.985.825-2.491.727-4.033,2.54-1.263,1.484-1.065,3.391-2.277,4.912-.253.318-.49.626-.76.905-.122.126-.016.292.159.288a6.844,6.844,0,0,0,2.95-.617,7.451,7.451,0,0,0,3.7-3.9c.495-1.389.876-2.813.264-4.126" transform="translate(-311.784 -365.592)" fill="#003a3f"/>
    <path id="패스_105171" data-name="패스 105171" d="M232.4,358.076c.009.326.524.895.7,1.147a11.439,11.439,0,0,0,6.674,4.97,12.252,12.252,0,0,0,4.064.157c1.281-.159,2.82-.417,3.7-1.45.957-1.121.53-2.572.572-3.895a22.044,22.044,0,0,1,.625-5.061,5.309,5.309,0,0,1,.271-.793c.049-.109.317-.427.315-.523,0,0,.14,6.864,2.916,9.9l.477.769-1.694,1.406,3.8.137-3.664,1.7.515.565-1.913.633-2.752.39-2.506-.213-1.726-.243-3.226-.958-4.051-2.849-2.085-2.55-.992-2.66-.015-.574" transform="translate(-187.371 -284.283)" fill="#efe5d9"/>
    <path id="패스_105172" data-name="패스 105172" d="M506.481,191.7a12.163,12.163,0,0,1,2.32,9.107c-.29,2.214-1.211,5.179-3.269,6.4a3.726,3.726,0,0,1-3.418.035,12.465,12.465,0,0,0-5.095-.806,20.2,20.2,0,0,1,8.25,7.3s6.07-7.676,5.019-14.757a11.457,11.457,0,0,0-3.806-7.285" transform="translate(-400.722 -154.547)" fill="#efe5d9"/>
    <path id="패스_105173" data-name="패스 105173" d="M317.164,293.207c.085-.085.243-.239.474-.443a18.1,18.1,0,0,1-1.4-1.974,13.356,13.356,0,0,1-.961-2.1,20.965,20.965,0,0,1-.918-3.21c-.189-1.014-.425-1.387.119-2.307,2.72-4.6,5.346-7.693,9.514-10.413,4.143-2.7,9.315-6.063,14.156-7.18a31.355,31.355,0,0,1,7.531-.8,12.7,12.7,0,0,1,3.775.328,15.456,15.456,0,0,1,3.8,2.124,15.9,15.9,0,0,1,4.666,5.762c.092-.028.184-.056.278-.082l.051.188a12.412,12.412,0,0,0-3.323,1.479l-.107-.156s-2.908-4.193-6.77-4.549c0,0-7.01,7.536-21.65,11.038a10.94,10.94,0,0,0,2.215,6.878,11.25,11.25,0,0,1,1.509-.487c-.281.044.625-.1.353-.048l-.133.025c-8.281,1.535-12.451,5.468-13.041,6.062a.042.042,0,0,0,.009-.044.04.04,0,0,0-.034-.025l-.012.195a.156.156,0,0,1-.137-.1.151.151,0,0,1,.034-.163" transform="translate(-253.273 -213.459)" fill="#003a3f"/>
    <path id="패스_105174" data-name="패스 105174" d="M351.069,262.4a35.268,35.268,0,0,0-8.325-.61,38.718,38.718,0,0,0-8.257.882,42.71,42.71,0,0,0-19.9,11.584,27.145,27.145,0,0,0-4.052,5.21,14.89,14.89,0,0,0-2.588,6.071,12.177,12.177,0,0,1,.057-1.707,15.37,15.37,0,0,1,1.52-4.952,28.862,28.862,0,0,1,4.23-5.433,45.668,45.668,0,0,1,17.171-10.969,35.8,35.8,0,0,1,10.106-1.811c.571-.024,1.142-.038,1.714-.037a11.831,11.831,0,0,1,1.715.059,22.086,22.086,0,0,1,6.609,1.714" transform="translate(-248.276 -210.11)" fill="#003a3f"/>
    <path id="패스_105175" data-name="패스 105175" d="M358.034,314.1c2-4.317,5.36-8.348,9.959-9.95,3.122-1.1,7.466-.576,9.339,2.436,3.433,6.052-5.228,14.574-9.848,17.728-9.3,6.465-21.078,11.142-32.462,8.25a25.186,25.186,0,0,1-6.91-2.373.437.437,0,0,1,.014-.772.6.6,0,0,1,.088-.034l.084-.029.337-.115.675-.23,2.7-.919.058.718c-.878-.155-1.743-.329-2.611-.535a8.483,8.483,0,0,1-2.47-.863l-.1-.083a1.268,1.268,0,0,1-.106-.129.348.348,0,0,1,.161-.528l2.259-.882c.667-.271,1.571-.62,2.2-.922l.155.679-4.6-.037a.341.341,0,0,1-.248-.575,18.317,18.317,0,0,1,2.638-2.136,29.788,29.788,0,0,1,9.161-4.1,38.3,38.3,0,0,1,13.291-.931.194.194,0,0,1-.035.386,41.045,41.045,0,0,0-6.611-.023c-6.492.542-13.149,2.734-17.945,7.274l-.248-.575,4.6.006a.357.357,0,0,1,.155.679c-.378.181-.749.338-1.124.494-.765.316-2.576,1.028-3.354,1.333,0,0,.164-.536.161-.53a8.131,8.131,0,0,0,2.227.75c.846.2,1.709.369,2.566.518a.373.373,0,0,1,.058.718c-.359.121-3.028,1.042-3.372,1.158l-.337.116-.084.029-.021.007c-.006,0-.028.012.025-.011a.322.322,0,0,0,.159-.18.33.33,0,0,0-.137-.379,28.7,28.7,0,0,0,8.1,2.573l1.384.245c.386.079,1,.134,1.394.177.422.058.984.1,1.4.11,9.445.448,18.659-3.647,26.307-8.915,4.421-2.938,13.539-11.821,9.356-17.371a5.878,5.878,0,0,0-2.818-1.789,9.28,9.28,0,0,0-6.735.611,16.136,16.136,0,0,0-5.45,4.337,22.051,22.051,0,0,0-3.012,4.759.205.205,0,0,1-.373-.171" transform="translate(-263.332 -244.775)" fill="#003a3f"/>
    <path id="패스_105176" data-name="패스 105176" d="M456.129,361.536c.711,1.445,3.132,1.72,5.407.614s3.542-3.175,2.83-4.62-3.132-1.72-5.407-.614-3.542,3.175-2.83,4.62" transform="translate(-367.595 -287.193)" fill="#003a3f"/>
    <path id="패스_105177" data-name="패스 105177" d="M289.637,192.452c3.137-4.119,5.8-9.563,5.2-14.857-.858-6.807-7.044-10.979-13.518-11.6a13.565,13.565,0,0,0-5.642.825c-4.59,1.6-8.354,4.965-11.345,8.725-4.313,5.36-9.255,10.48-15.542,13.483-1.77.882-3.577,1.652-5.375,2.438-3.52,1.532-7.24,3.072-9.775,6.035-5.682,6.932-3.247,14.863,4.838,18.289a15.357,15.357,0,0,0,11.645.062.194.194,0,0,1,.151.357,15.858,15.858,0,0,1-16.179-2.374,11.809,11.809,0,0,1-3.794-5.528,10.527,10.527,0,0,1-.445-3.754,12.5,12.5,0,0,1,.222-1.5,13.68,13.68,0,0,1,.525-1.818c.076-.182.368-.838.453-1.038a16.6,16.6,0,0,1,2.027-3.166c2.62-3.086,6.431-4.689,10.028-6.263,1.793-.787,3.591-1.567,5.333-2.432a38.446,38.446,0,0,0,11.481-8.828c1.644-1.741,3.25-3.726,4.777-5.568,4.079-4.812,10.2-9.108,16.658-8.622,7.938.792,14.887,6.585,14.05,15.073a24.84,24.84,0,0,1-5.455,12.32.205.205,0,1,1-.316-.262" transform="translate(-185.311 -133.249)" fill="#003a3f"/>
    <path id="패스_105178" data-name="패스 105178" d="M356.726,208.595s-8.022-4.156-10.114-2.626-.748,6.234,1.178,11.605l1.663-1.353,4.009-3.887Z" transform="translate(-278.605 -165.777)" fill="#003a3f"/>
    <path id="패스_105179" data-name="패스 105179" d="M296.422,250.144s-7.756-7.155-10.234-5.95-1.463,6.809-.482,11.162l4.144-1.7,5.191-2.607Z" transform="translate(-229.493 -196.755)" fill="#003a3f"/>
    <path id="패스_105180" data-name="패스 105180" d="M460.988,322.247c1.085,1.622,2.9,2.322,4.049,1.563s1.206-2.688.121-4.31-2.9-2.322-4.049-1.563-1.206,2.689-.121,4.311" transform="translate(-371.043 -256.069)" fill="#003a3f"/>
    <path id="패스_105181" data-name="패스 105181" d="M458.761,397.6a4.942,4.942,0,0,1,3.915-1.161l1.225,1.174a6.424,6.424,0,0,0-.833-1.364,7.816,7.816,0,0,1,3.684-1.918" transform="translate(-369.876 -317.904)" fill="#fff"/>
    <path id="패스_105182" data-name="패스 105182" d="M462.29,396.39a.387.387,0,0,1-.268-.108l-1.142-1.1a4.637,4.637,0,0,0-3.47,1.09.388.388,0,0,1-.519-.575,5.3,5.3,0,0,1,4.231-1.258.384.384,0,0,1,.069-.087,8.127,8.127,0,0,1,3.9-2.021.388.388,0,0,1,.1.769,6.964,6.964,0,0,0-3.2,1.583,8.049,8.049,0,0,1,.652,1.155.388.388,0,0,1-.353.548" transform="translate(-368.265 -316.292)" fill="#003a3f"/>
    <path id="패스_105183" data-name="패스 105183" d="M445.008,386.149l2.54,1.983,1.787-1.007,2.128-.154,1.146-1,1.14-.728,2.007-.429V382.69l-1.908,1.085-1.351.657-1.486.723-2.2.562-2.282.34Z" transform="translate(-358.788 -308.519)" fill="#003a3f"/>
    <path id="패스_105184" data-name="패스 105184" d="M419.144,389.767a8.035,8.035,0,0,0-1.472,3.058.109.109,0,0,1-.206.016,2.68,2.68,0,0,1,.643-2.806c.158-.159.912-.827,1.07-.456a.19.19,0,0,1-.035.187" transform="translate(-336.448 -313.985)" fill="#003a3f"/>
    <path id="패스_105185" data-name="패스 105185" d="M451.656,389.773c-1.265,0-2.916-.692-4.932-2.069a32.249,32.249,0,0,1-3.6-2.886.388.388,0,0,1,.534-.562c1.718,1.63,6.653,5.629,8.833,4.569,2.156-1.049,1.648-5.889,1.27-7.666a.387.387,0,1,1,.758-.161c.061.285,1.449,7-1.689,8.524a2.663,2.663,0,0,1-1.179.252" transform="translate(-357.176 -306.906)" fill="#003a3f"/>
    <path id="패스_105186" data-name="패스 105186" d="M439.132,416.085s.766,5.834,2.888,8.813c0,0-13,4.126-22.185-.885a3.951,3.951,0,0,1-1.242-1.226s7.52-.513,13.239-2.921Z" transform="translate(-337.492 -335.442)" fill="#003a3f"/>
    <path id="패스_105187" data-name="패스 105187" d="M469.087,420.9s4.556,1.846,6.237.7,2.9-4.065,2.7-4.879" transform="translate(-378.202 -335.956)" fill="#fff"/>
    <path id="패스_105188" data-name="패스 105188" d="M468.351,419.928a22.694,22.694,0,0,0,2.909.737,5.6,5.6,0,0,0,2.8-.033,3.027,3.027,0,0,0,.794-.593,8,8,0,0,0,1.109-1.423,9.767,9.767,0,0,0,.827-1.633,2.668,2.668,0,0,0,.233-1.019.193.193,0,0,1,.176-.208c.447,0,.191,1.147.131,1.394a6.741,6.741,0,0,1-2.975,4.189c-1.848.665-4.433-.283-6.154-1.03a.206.206,0,0,1,.154-.38" transform="translate(-377.389 -335.176)" fill="#003a3f"/>
    <path id="패스_105189" data-name="패스 105189" d="M437.138,360.381a13.5,13.5,0,0,1-2.925,4.534,10.807,10.807,0,0,1-2.255,1.539,13.429,13.429,0,0,1-5.976,2.009c-.6.007-1.212.031-1.823.024a13.141,13.141,0,0,1-5.307-.959.1.1,0,0,1,.06-.2,31.318,31.318,0,0,0,5.244.246c.631-.012,1.354-.021,1.995-.008a9.123,9.123,0,0,0,3.107-.625,20.764,20.764,0,0,0,2.4-1.057,9.849,9.849,0,0,0,2.187-1.376,10.788,10.788,0,0,0,1.68-1.979,15.729,15.729,0,0,0,1.289-2.286.177.177,0,0,1,.328.134" transform="translate(-337.651 -290.339)" fill="#003a3f"/>
    <path id="패스_105190" data-name="패스 105190" d="M417.842,346.535a2.478,2.478,0,0,0-4.018,2.5,11.921,11.921,0,0,0,1.38,2.781,13.665,13.665,0,0,1,2.15-2.089,7.143,7.143,0,0,1,2.968-.976,14.793,14.793,0,0,0-2.48-2.218" transform="translate(-333.608 -278.924)" fill="#003a3f"/>
    <path id="패스_105191" data-name="패스 105191" d="M352.955,476.627a2.718,2.718,0,0,1,1.632,1.091,4.205,4.205,0,0,1,.856,1.691.15.15,0,0,1-.258.13,20.776,20.776,0,0,0-1.618-2.119,2.611,2.611,0,0,0-.69-.505.153.153,0,0,1,.079-.288" transform="translate(-284.438 -384.249)" fill="#003a3f"/>
    <path id="패스_105192" data-name="패스 105192" d="M367.486,479.041a1.721,1.721,0,0,1,.615,1.927.154.154,0,0,1-.209.063.171.171,0,0,1-.079-.1c-.214-.519-.3-1.129-.505-1.639l-.027-.067a.148.148,0,0,1,.2-.183" transform="translate(-296.111 -386.181)" fill="#003a3f"/>
    <path id="패스_105193" data-name="패스 105193" d="M38.123,129.794c-2.135-.236-4.8-1.278-5.988-2.9a3.1,3.1,0,0,1-.573-2.623c.565-2.43,4.02-3.663,6.807-3.98a38.948,38.948,0,0,1,7.38.106c1.729.135,3.517.274,5.252.238a42.645,42.645,0,0,0,11.8-1.89c.955-.3,1.936-.62,2.884-.931,5.267-1.729,10.714-3.517,16.57-2.868l.1.011a9.279,9.279,0,0,1,5.117,1.895q.1.088.194.182a2.943,2.943,0,0,1,1.057,2.939c-.476,1.716-2.88,3.011-5.05,3.534a30.624,30.624,0,0,1-11.494.429c-.643-.088-1.3-.187-1.941-.284a30.067,30.067,0,0,0-8.685-.477,21.54,21.54,0,0,0-6.288,2.317c-.673.332-1.369.675-2.067.988-3.9,1.75-9.624,3.75-14.8,3.34q-.137-.011-.276-.026m44.046-14.076c-5.69-.63-11.054,1.131-16.243,2.834-.951.312-1.934.635-2.9.935a43.421,43.421,0,0,1-12.014,1.924c-1.772.037-3.58-.1-5.328-.24a38.364,38.364,0,0,0-7.232-.109c-3.777.43-5.83,2.056-6.139,3.384a2.352,2.352,0,0,0,.443,1.989c1.1,1.5,3.7,2.455,5.7,2.612,5.008.4,10.6-1.561,14.416-3.274.685-.308,1.375-.648,2.042-.976a22.133,22.133,0,0,1,6.517-2.389,30.648,30.648,0,0,1,8.915.477c.636.1,1.293.2,1.931.283a29.918,29.918,0,0,0,11.207-.415c1.887-.454,4.095-1.583,4.484-2.987a2.234,2.234,0,0,0-.854-2.178c-.054-.054-.11-.106-.166-.156a8.577,8.577,0,0,0-4.689-1.7l-.1-.011" transform="translate(-25.378 -92.558)" fill="#003a3f"/>
    <path id="패스_105194" data-name="패스 105194" d="M427.747,481.333l.022,1.977-1.615,1.139,1.886.59.584,1.889,1.143-1.612,1.976.028-1.18-1.586.637-1.871-1.872.632Z" transform="translate(-343.587 -388.043)" fill="#ed7e00"/>
    <path id="패스_105195" data-name="패스 105195" d="M427.011,485.7a.379.379,0,0,1-.061,0,.387.387,0,0,1-.309-.268l-.524-1.694-1.692-.529a.387.387,0,0,1-.108-.687l1.448-1.022-.02-1.773a.387.387,0,0,1,.62-.315l1.419,1.063,1.679-.567a.387.387,0,0,1,.49.492l-.571,1.678,1.058,1.423a.388.388,0,0,1-.317.619l-1.772-.025-1.025,1.446a.388.388,0,0,1-.316.163m-1.606-3,1.137.355a.388.388,0,0,1,.254.255l.352,1.138.689-.972a.383.383,0,0,1,.322-.163l1.191.017-.711-.956a.387.387,0,0,1-.056-.356l.384-1.128-1.128.381a.388.388,0,0,1-.356-.057l-.953-.714.014,1.191a.388.388,0,0,1-.164.321Z" transform="translate(-341.974 -386.431)" fill="#00393e"/>
    <path id="패스_105196" data-name="패스 105196" d="M408.536,541.951s1.045,3.288,1.128,3.567" transform="translate(-329.382 -436.913)" fill="#fff"/>
    <path id="패스_105197" data-name="패스 105197" d="M408.05,544.293a.388.388,0,0,1-.371-.277c-.082-.273-1.116-3.528-1.126-3.561a.388.388,0,1,1,.739-.235c.043.134,1.046,3.294,1.13,3.574a.388.388,0,0,1-.371.5" transform="translate(-327.769 -435.3)" fill="#00393e"/>
    <path id="패스_105198" data-name="패스 105198" d="M428.641,503.3a18.238,18.238,0,0,1-7.954,6.918,19.11,19.11,0,0,1-7.542,2.493,6.559,6.559,0,0,1-2.648-.381.1.1,0,0,1,.065-.2,6.894,6.894,0,0,0,2.549.146,21.35,21.35,0,0,0,7.232-2.728,25.539,25.539,0,0,0,4.363-2.775,21.66,21.66,0,0,0,2.82-2.658,12.88,12.88,0,0,0,.816-1.009.178.178,0,0,1,.3.189" transform="translate(-330.91 -405.546)" fill="#003a3f"/>
    <path id="패스_105199" data-name="패스 105199" d="M127.7,489.506a42.182,42.182,0,0,1-13.68-2.208c-3.609-1.328-7.543-3.122-9.593-6.564a5.694,5.694,0,0,1-.668-2.146l.338.186a29.052,29.052,0,0,1-6.459,2.254c-6.8,1.569-14.021.556-19.438-4.072-3.746-3.19-5.764-8.019-6.314-12.831-1.173-10.227,4-20.989,14.785-22.986a23.8,23.8,0,0,1,12.7.714,18.875,18.875,0,0,1,11.844,12.694,19.572,19.572,0,0,1,.678,6.784.145.145,0,1,1-.29-.022,19.245,19.245,0,0,0-.734-6.663,18.573,18.573,0,0,0-11.664-12.325,23.857,23.857,0,0,0-12.842-.568c-.623.177-1.411.326-2.01.568a16.463,16.463,0,0,0-7.445,5.172,22.7,22.7,0,0,0-4.362,17.4,18.887,18.887,0,0,0,5.994,11.666,19.929,19.929,0,0,0,12.312,4.655,28.37,28.37,0,0,0,13.028-2.849.234.234,0,0,1,.338.186,5.034,5.034,0,0,0,.426,1.588l.183.375c3.348,5.588,13.3,8.026,19.423,8.53q1.72.14,3.448.152a.154.154,0,1,1,0,.308" transform="translate(-57.831 -355.212)" fill="#00393d"/>
  </g>
</svg>
