<svg xmlns="http://www.w3.org/2000/svg" width="160.001" height="134" viewBox="0 0 160.001 134">
  <g id="그룹_1359" data-name="그룹 1359" transform="translate(-2326.193 -237.76)">
    <g id="그룹_421" data-name="그룹 421" transform="translate(2326.193 237.76)">
      <path id="패스_37850" data-name="패스 37850" d="M2472.1,338.7s12.685-6.995,4.862-19.076c0,0,14.459-13.349,7.189-23.316-10.36-14.2-26.428-6.571-26.428-6.571s17.231-11.976,10.888-24.269-23.468-8.691-25.371-6.571c0,0,3.806-14.413-10.36-16.744s-24.1,7.63-24.1,7.63-3.171-16.956-23.68-10.6-18.183,20.984-18.183,20.984-24.525-3.391-23.468,21.408c0,0-20.085,6.995-16.913,27.13s28.965,16.533,28.965,16.533-13.954,11.658-11.206,21.407,8.669,10.174,12.9,11.022l9.684-2.339s7.423,9.3,16.629,6.881,10.369-2.1,10.369-2.1a36.116,36.116,0,0,0,10.314-3.527,52.656,52.656,0,0,0,10.672-7.389s8.848,8.164,14.809,4.4a31.178,31.178,0,0,0,9.344-9.685s12.9,9.773,18.606,4.879A124.052,124.052,0,0,1,2472.1,338.7Z" transform="translate(-2326.193 -237.76)" fill="#edeadf"/>
      <path id="패스_37851" data-name="패스 37851" d="M2365.832,439.242l-1.22-2.322.463-1.586.643-.845.414-.846.406-1.648,1.074-.889,1.656-.387.764-.29.242-1.482,1.778-.379.931-.859,2.387-1.25,1.967-.218s2.087-.494,2.418.175,1.406,0,1.406,0l.828.89a4.68,4.68,0,0,1,2.009,2.18c.528,1.406.147,6.03.232,6.15s6.354,0,7.025.375a13.976,13.976,0,0,1,2.045,1.893l.387.825,1.11.615.65.988s1.765.5,2.188,1.555a3.057,3.057,0,0,1,2.6.529l.249-.081,1.416,1.025,1.44-1.3,1.62-.482,1.736.189.967-1.619,1.143-.273a15.66,15.66,0,0,1,2.2-2.333,9.768,9.768,0,0,1,1.984-.563l1.958.563h1.241s5.842-1.841,5.485-4.88.747-2.934.747-2.934-.68-2.744-.363-3.856a17.588,17.588,0,0,1,1.1-2.619l2.495-1.13,1.41.072,1.037.556h1.118l1.929,1s-.529,5.224,0,5.757,3.288-.11,3.288-.11l3.794.643s3.511-1,4.927.45,3.493-8.7,6.895-7.744,3.824,1.374,3.824,1.374.667-4.017,1.285-3.7l1.131-.951,1.44.14,1.747-.034s2.633.078,3.061,2.1l.889,3.15s4.355-2.2,6.81-1.769,2.023-.728,1.71-1-1.112-2.528-.606-3.089.928-2.04,1.879-2.57a6.491,6.491,0,0,0,1.691-1.479l1.261.149,1.275-.513,2.306.662.769.145.943-.443,2.156,1.533,1.47,2.3,2.472.425,2.118,2.183.342,2.39.51,2.393-.823,1.324-.317,1.49.838,1.82-.838.938s1.887,3.919.838,6.62a23.292,23.292,0,0,0-1.366,8.661c.106,2.5-4.659,7.166-7.14,6.946s-26.582-1.7-31.445-.644-53.279.113-55.922-1.107-13.848-1.642-16.491-.585-10.171-1.494-10.107-4.447S2365.832,439.242,2365.832,439.242Z" transform="translate(-2344.122 -319.957)" fill="#fff"/>
      <path id="패스_37852" data-name="패스 37852" d="M2584.465,427.463a.317.317,0,0,1-.238-.527c.875-.992.231-3.738-.063-4.621a1.592,1.592,0,0,1-.037-.664c.046-.535.1-1.141-1.324-2.137a3.36,3.36,0,0,0-2.033-.706,1.62,1.62,0,0,1-1.662-1.1,6.306,6.306,0,0,0-2.988-2.8c-.151-.051-.239,0-.457.219a.778.778,0,0,1-.758.314,3.515,3.515,0,0,1-.644-.31,4.122,4.122,0,0,0-1.635-.63,1.571,1.571,0,0,0-.766.235,3.074,3.074,0,0,1-1.559.4,3.29,3.29,0,0,0-2.082,1.154.317.317,0,0,1-.487-.406,3.892,3.892,0,0,1,2.57-1.383,2.463,2.463,0,0,0,1.272-.33,2.15,2.15,0,0,1,1.053-.3,4.523,4.523,0,0,1,1.941.709,4.664,4.664,0,0,0,.485.247,1.358,1.358,0,0,0,.166-.148,1.03,1.03,0,0,1,1.1-.37,6.92,6.92,0,0,1,3.355,3.119c.358.718.583.729,1.124.754a3.96,3.96,0,0,1,2.368.82c1.722,1.205,1.644,2.111,1.592,2.71a1.144,1.144,0,0,0,.007.409c.013.037,1.236,3.768-.063,5.242A.316.316,0,0,1,2584.465,427.463Z" transform="translate(-2438.876 -319.696)" fill="#0c454b"/>
      <path id="패스_37853" data-name="패스 37853" d="M2598.155,443.066a.332.332,0,0,1-.1-.016.318.318,0,0,1-.2-.4c.346-1.038.16-1.233-.011-1.29-.81-.27-.851-1.883-.851-2.2a.317.317,0,0,1,.317-.317h0a.317.317,0,0,1,.317.317c0,.691.179,1.523.418,1.6,1,.333.572,1.611.412,2.093A.317.317,0,0,1,2598.155,443.066Z" transform="translate(-2452.567 -331.283)" fill="#0c454b"/>
      <path id="패스_37854" data-name="패스 37854" d="M2586.605,434.336a.317.317,0,0,1-.129-.607,2.058,2.058,0,0,0,1.307-1.942c.043-.364.081-.678.339-.846.235-.18.015-1.716-.117-2.633l-.024-.164a1.737,1.737,0,0,0-1.226-1.5.317.317,0,0,1,.139-.619,2.356,2.356,0,0,1,1.716,2.027l.023.163c.261,1.82.383,2.875-.148,3.243a1.953,1.953,0,0,0-.073.4,2.684,2.684,0,0,1-1.679,2.447A.321.321,0,0,1,2586.605,434.336Z" transform="translate(-2447.571 -325.363)" fill="#0c454b"/>
      <path id="패스_37855" data-name="패스 37855" d="M2572.334,423.932a.313.313,0,0,1-.125-.026.317.317,0,0,1-.167-.416c.029-.068.731-1.672,1.983-1.672a2.028,2.028,0,0,1,1.023.209,1.447,1.447,0,0,1,1.091-.632h.044a5.314,5.314,0,0,1,3.987,1.556.317.317,0,0,1-.451.446,4.647,4.647,0,0,0-3.535-1.367h-.045c-.358,0-.687.5-.773.67a.317.317,0,0,1-.6-.089c-.027-.029-.178-.158-.745-.158-.692,0-1.245.93-1.4,1.288A.317.317,0,0,1,2572.334,423.932Zm2.432-1.373Zm0,0h0Zm0,0h0Zm0,0h0Z" transform="translate(-2440.912 -323.222)" fill="#0c454b"/>
      <path id="패스_37856" data-name="패스 37856" d="M2563.83,430.962a.728.728,0,0,1-.141-.013.651.651,0,0,1-.419-.286c-.234-.352-1.175-.345-1.594-.285a.317.317,0,0,1-.089-.628c.172-.025,1.693-.217,2.212.561.145.066.654-.278.9-.443a2.431,2.431,0,0,1,1.162-.544,1.239,1.239,0,0,1,1.129.6.317.317,0,1,1-.567.284.62.62,0,0,0-.562-.247,2.552,2.552,0,0,0-.808.436A2.533,2.533,0,0,1,2563.83,430.962Z" transform="translate(-2435.917 -326.914)" fill="#0c454b"/>
      <path id="패스_37857" data-name="패스 37857" d="M2533.657,425.323a.321.321,0,0,1-.092-.013.318.318,0,0,1-.212-.4c.023-.076.581-1.87,1.906-1.739.236.023.47.051.7.078a6.481,6.481,0,0,0,2.179.035.317.317,0,0,1,.154.615,6.892,6.892,0,0,1-2.407-.021c-.227-.027-.457-.054-.688-.077-.8-.078-1.233,1.276-1.237,1.29A.317.317,0,0,1,2533.657,425.323Z" transform="translate(-2422.862 -324.049)" fill="#0c454b"/>
      <path id="패스_37858" data-name="패스 37858" d="M2547.617,431.812a.317.317,0,0,1-.214-.551c.89-.814.772-.945.608-1.125a1.055,1.055,0,0,1-.293-1.126c.237-.785-.513-2.062-.822-2.488a.317.317,0,0,1,.513-.373c.053.073,1.293,1.8.916,3.044-.078.259,0,.345.156.516.534.589.376,1.079-.65,2.019A.315.315,0,0,1,2547.617,431.812Z" transform="translate(-2429.16 -325.368)" fill="#0c454b"/>
      <path id="패스_37859" data-name="패스 37859" d="M2542.206,440.074a.317.317,0,0,1-.029-.633c1.173-.109,1.192-1.8,1.192-1.873a.318.318,0,0,1,.317-.316h0a.317.317,0,0,1,.316.317c0,.809-.369,2.373-1.768,2.5Z" transform="translate(-2426.852 -330.601)" fill="#0c454b"/>
      <path id="패스_37860" data-name="패스 37860" d="M2554.6,440.369a.317.317,0,0,1-.317-.317,1.592,1.592,0,0,0-1.052-1.464c-.971-.323-2.187.578-2.771,1.011-.083.061-.155.115-.216.157a1.784,1.784,0,0,1-1.873.073,5.311,5.311,0,0,0-1.726.245.317.317,0,0,1-.161-.614,4.209,4.209,0,0,1,2.209-.178,1.152,1.152,0,0,0,1.187-.046c.056-.039.124-.09.2-.147.67-.5,2.066-1.531,3.349-1.1a2.219,2.219,0,0,1,1.485,2.066A.317.317,0,0,1,2554.6,440.369Z" transform="translate(-2428.886 -330.897)" fill="#0c454b"/>
      <path id="패스_37861" data-name="패스 37861" d="M2566.388,452.353a.317.317,0,0,1-.2-.566c.365-.287,1.273-.927,1.818-.655a.317.317,0,0,1-.284.567,2.455,2.455,0,0,0-1.142.586A.315.315,0,0,1,2566.388,452.353Z" transform="translate(-2438.137 -336.989)" fill="#0c454b"/>
      <path id="패스_37862" data-name="패스 37862" d="M2574.193,449.187a7.7,7.7,0,0,1-1.529-.2.317.317,0,0,1,.131-.621,5.151,5.151,0,0,0,1.822.145,1.065,1.065,0,0,1,.671-.482,2.33,2.33,0,0,1,1.845.172.317.317,0,1,1-.352.527,1.7,1.7,0,0,0-1.21-.121.691.691,0,0,0-.387.186C2575.083,449.056,2574.751,449.187,2574.193,449.187Z" transform="translate(-2441.096 -335.521)" fill="#0c454b"/>
      <path id="패스_37863" data-name="패스 37863" d="M2579.4,456.772a1.84,1.84,0,0,1-.672-.221,2.09,2.09,0,0,0-.743-.245,3.879,3.879,0,0,1-2.124.148.317.317,0,0,1,.09-.628,3.718,3.718,0,0,0,1.671-.038c.37-.27.9-.028,1.369.186.073.034.166.076.248.109a1.375,1.375,0,0,1,.43-.467,6.158,6.158,0,0,0,1.265-1.351,1.458,1.458,0,0,0,.319-1.094,1.59,1.59,0,0,0-.592-.917.317.317,0,0,1,.363-.521,2.223,2.223,0,0,1,.853,1.323,2.062,2.062,0,0,1-.427,1.578,6.838,6.838,0,0,1-1.382,1.475c-.135.109-.251.2-.251.243a.41.41,0,0,1-.183.354A.421.421,0,0,1,2579.4,456.772Z" transform="translate(-2442.576 -337.274)" fill="#0c454b"/>
      <path id="패스_37864" data-name="패스 37864" d="M2563.216,465.609a.317.317,0,0,1-.224-.541,4.557,4.557,0,0,1,2.945-1.361,1.605,1.605,0,0,0,.214-.285,1.232,1.232,0,0,1,.706-.635.717.717,0,0,1,.552.127c.3.2,1.345-.242,1.982-.639a.317.317,0,1,1,.336.538c-.312.195-1.9,1.139-2.67.629a.142.142,0,0,0-.074-.033c-.075.015-.222.24-.3.361-.175.268-.375.571-.717.571a3.922,3.922,0,0,0-2.524,1.175A.316.316,0,0,1,2563.216,465.609Z" transform="translate(-2436.656 -342.197)" fill="#0c454b"/>
      <path id="패스_37865" data-name="패스 37865" d="M2561.261,458.891l-.03,0a.317.317,0,0,1-.287-.345c.119-1.31-.2-1.367-.786-1.47a2.181,2.181,0,0,1-.991-.361.392.392,0,0,0-.335-.086c-.383.079-.781.644-.891.835a.317.317,0,0,1-.551-.315,2.454,2.454,0,0,1,1.313-1.142,1.027,1.027,0,0,1,.844.2,1.634,1.634,0,0,0,.722.244c.809.143,1.466.4,1.307,2.153A.318.318,0,0,1,2561.261,458.891Z" transform="translate(-2434.066 -339.284)" fill="#0c454b"/>
      <path id="패스_37866" data-name="패스 37866" d="M2547.747,456.368a.3.3,0,0,1-.087-.012.317.317,0,0,1-.219-.391,2.054,2.054,0,0,0-.99-2.379,5.118,5.118,0,0,1-1.83-1.655c-.372-.487-.576-.738-.86-.717-.713.059-2.883.238-3.669,1.418a.317.317,0,0,1-.528-.352c.858-1.287,2.777-1.586,4.145-1.7.639-.056,1.018.441,1.417.964a4.518,4.518,0,0,0,1.61,1.472,2.656,2.656,0,0,1,1.317,3.118A.318.318,0,0,1,2547.747,456.368Z" transform="translate(-2425.742 -336.761)" fill="#0c454b"/>
      <path id="패스_37867" data-name="패스 37867" d="M2537.123,454.552a.319.319,0,0,1-.3-.2,1.987,1.987,0,0,0-2.313-1.47.317.317,0,0,1-.159-.614,2.63,2.63,0,0,1,3.065,1.859.317.317,0,0,1-.183.41A.324.324,0,0,1,2537.123,454.552Z" transform="translate(-2423.225 -337.523)" fill="#0c454b"/>
      <path id="패스_37868" data-name="패스 37868" d="M2533.657,461.537a.324.324,0,0,1-.06-.006.315.315,0,0,1-.252-.363,1.284,1.284,0,0,1,.571-.8,2.529,2.529,0,0,1,1.92-.2,3.527,3.527,0,0,1,2.838-.74.317.317,0,1,1-.07.63,2.735,2.735,0,0,0-2.424.659.324.324,0,0,1-.318.107,2.143,2.143,0,0,0-1.585.066.68.68,0,0,0-.31.394A.321.321,0,0,1,2533.657,461.537Z" transform="translate(-2422.862 -340.876)" fill="#0c454b"/>
      <path id="패스_37869" data-name="패스 37869" d="M2546.6,465.671a.317.317,0,0,1-.27-.484,1.915,1.915,0,0,0,.368-1.55,1.2,1.2,0,0,0-.624-.678.32.32,0,0,1-.192-.353c.166-.878-.278-1.2-.3-1.214a.32.32,0,0,1-.084-.438.315.315,0,0,1,.433-.092,1.673,1.673,0,0,1,.606,1.629,1.792,1.792,0,0,1,.759.94,2.489,2.489,0,0,1-.429,2.089A.317.317,0,0,1,2546.6,465.671Z" transform="translate(-2428.511 -341.538)" fill="#0c454b"/>
      <path id="패스_37870" data-name="패스 37870" d="M2539.474,471.6a.317.317,0,0,1-.071-.627,3.605,3.605,0,0,0,.641-.695.317.317,0,0,1,.507.381c-.443.589-.79.9-1.032.937A.316.316,0,0,1,2539.474,471.6Zm-.079-.622Zm.036-.009h0Z" transform="translate(-2425.577 -345.897)" fill="#0c454b"/>
      <path id="패스_37871" data-name="패스 37871" d="M2550.816,473.374a5.478,5.478,0,0,1-2.518-.661c-.091-.045-.168-.083-.231-.11a3.6,3.6,0,0,0-1.444.02.317.317,0,0,1-.114-.624,4.16,4.16,0,0,1,1.8.02c.073.03.161.074.265.125a4.57,4.57,0,0,0,3.2.487c.673-.15,1.23-.319,1.722-.469.938-.285,1.559-.474,2.076-.23.58.274,3.6.944,4.731-.033a.317.317,0,0,1,.416.479c-1.457,1.264-4.838.4-5.418.128-.294-.139-.851.03-1.621.264-.477.145-1.072.325-1.768.48A5.051,5.051,0,0,1,2550.816,473.374Z" transform="translate(-2428.886 -346.675)" fill="#0c454b"/>
      <path id="패스_37872" data-name="패스 37872" d="M2575.426,476.233a.317.317,0,0,1-.12-.023,21.965,21.965,0,0,0-7.279-1.456,27.016,27.016,0,0,0-7.094,1.043.317.317,0,0,1-.189-.606,27.161,27.161,0,0,1,7.283-1.071,22.2,22.2,0,0,1,7.521,1.5.317.317,0,0,1-.121.61Z" transform="translate(-2435.547 -347.747)" fill="#0c454b"/>
      <path id="패스_37873" data-name="패스 37873" d="M2559.648,478.442a.317.317,0,0,1-.058-.629c.21-.039,5.175-.954,7.338-.3a.317.317,0,0,1-.182.607c-2.016-.6-6.989.311-7.039.32A.3.3,0,0,1,2559.648,478.442Z" transform="translate(-2434.991 -349.221)" fill="#0c454b"/>
      <path id="패스_37874" data-name="패스 37874" d="M2559.846,480.535a.313.313,0,0,1-.159-.043,1.068,1.068,0,0,0-1.058-.006.317.317,0,0,1-.341-.535,1.7,1.7,0,0,1,1.717-.007.317.317,0,0,1-.16.591Z" transform="translate(-2434.437 -350.357)" fill="#0c454b"/>
      <path id="패스_37875" data-name="패스 37875" d="M2552.859,482.205a2.984,2.984,0,0,1-.839-.136.317.317,0,1,1,.194-.6c.312.1.961.19,1.055-.045a.317.317,0,0,1,.589.235A.975.975,0,0,1,2552.859,482.205Z" transform="translate(-2431.477 -351.061)" fill="#0c454b"/>
      <path id="패스_37876" data-name="패스 37876" d="M2530.011,481.746a.317.317,0,0,1-.076-.625c4.507-1.116,10.078-.049,10.313,0a.317.317,0,1,1-.122.622c-.056-.011-5.67-1.085-10.039,0A.318.318,0,0,1,2530.011,481.746Z" transform="translate(-2421.161 -350.778)" fill="#0c454b"/>
      <path id="패스_37877" data-name="패스 37877" d="M2526.616,469.628c-1.211,0-1.385-.648-1.513-1.127-.1-.376-.156-.583-.624-.65a1.927,1.927,0,0,1-1.641-1.223,1.315,1.315,0,0,1-.985.195c-.955-.2-1.467-1.476-1.523-1.621a.317.317,0,0,1,.593-.227c.117.3.537,1.116,1.063,1.227a.949.949,0,0,0,.834-.37.317.317,0,0,1,.542.225,1.236,1.236,0,0,0,1.207,1.166,1.259,1.259,0,0,1,1.147,1.114c.119.444.184.689,1.021.654a16.18,16.18,0,0,0,2.785-.282.317.317,0,0,1,.154.615,16.185,16.185,0,0,1-2.914.3C2526.711,469.628,2526.663,469.628,2526.616,469.628Z" transform="translate(-2416.781 -343.385)" fill="#0c454b"/>
      <path id="패스_37878" data-name="패스 37878" d="M2503.357,476.139a.317.317,0,0,1-.224-.541,5.589,5.589,0,0,1,2.81-.8,19.54,19.54,0,0,0,1.988-.343,4.341,4.341,0,0,1,2.818.477c.452.194.879.377,1.084.3.866-.331,2.15-.822,2.992-.193a3.149,3.149,0,0,0,2.134-.049.317.317,0,0,1,.188.606c-.191.059-1.887.559-2.7-.049-.563-.421-1.694.012-2.37.27a2.2,2.2,0,0,1-1.578-.3,3.785,3.785,0,0,0-2.414-.444,19.934,19.934,0,0,1-2.055.356,5.9,5.9,0,0,0-2.448.618A.318.318,0,0,1,2503.357,476.139Z" transform="translate(-2408.722 -347.865)" fill="#0c454b"/>
      <path id="패스_37879" data-name="패스 37879" d="M2494.075,463.68a.313.313,0,0,1-.09-.013c-.053-.015-5.354-1.557-9.376-.942a.317.317,0,1,1-.1-.627c4.164-.638,9.43.895,9.652.961a.317.317,0,0,1-.089.621Z" transform="translate(-2399.95 -342.065)" fill="#0c454b"/>
      <path id="패스_37880" data-name="패스 37880" d="M2488.031,465.281a.321.321,0,0,1-.067-.007c-.078-.017-7.843-1.657-11.913-.326a.317.317,0,1,1-.2-.6c4.234-1.385,11.92.239,12.244.308a.317.317,0,0,1-.067.627Z" transform="translate(-2395.932 -342.926)" fill="#0c454b"/>
      <path id="패스_37881" data-name="패스 37881" d="M2483.971,467.178a10.965,10.965,0,0,1-1.677-.146.317.317,0,0,1,.1-.626c.988.164,2.538.235,2.9-.123a.317.317,0,0,1,.448.449A2.677,2.677,0,0,1,2483.971,467.178Z" transform="translate(-2398.917 -344.048)" fill="#0c454b"/>
      <path id="패스_37882" data-name="패스 37882" d="M2480.14,475.567l-.035,0a.317.317,0,0,1-.28-.351c.006-.053.172-1.311,2.3-1.548,1.673-.186,2.083-.815,2.087-.822a.321.321,0,0,1,.432-.11.315.315,0,0,1,.12.423c-.052.093-.561.916-2.569,1.139-1.606.179-1.741.981-1.742.989A.317.317,0,0,1,2480.14,475.567Z" transform="translate(-2397.887 -347.082)" fill="#0c454b"/>
      <path id="패스_37883" data-name="패스 37883" d="M2493.48,478.847a.317.317,0,0,1-.315-.282,2.877,2.877,0,0,0-.195-.843,1.9,1.9,0,0,1-.417-.826.317.317,0,0,1,.613-.164,1.52,1.52,0,0,0,.231.522,2.239,2.239,0,0,1,.4,1.241.317.317,0,0,1-.28.35Z" transform="translate(-2403.823 -348.858)" fill="#0c454b"/>
      <path id="패스_37884" data-name="패스 37884" d="M2476.805,469.852a.312.312,0,0,1-.07-.008.316.316,0,0,1-.24-.377,1.822,1.822,0,0,1,.959-1.246,1.742,1.742,0,0,1,1.65.426.317.317,0,1,1-.381.507,1.261,1.261,0,0,0-1.047-.339,1.173,1.173,0,0,0-.562.789A.318.318,0,0,1,2476.805,469.852Z" transform="translate(-2396.331 -344.961)" fill="#0c454b"/>
      <path id="패스_37885" data-name="패스 37885" d="M2485.7,450.7a.317.317,0,0,1-.308-.241c-.037-.151-.891-3.714.784-5.847a6.6,6.6,0,0,1,2.519-2.1,1.226,1.226,0,0,0,.442-.278c.188-.291.866-.487,2.013-.583.477-.04,2.892-.2,3.574.541a.317.317,0,1,1-.467.429c-.559-.608-4.139-.393-4.6-.026a1.6,1.6,0,0,1-.685.487,5.946,5.946,0,0,0-2.3,1.919c-1.484,1.889-.676,5.27-.668,5.3a.318.318,0,0,1-.308.393Zm3.953-8.1Z" transform="translate(-2400.371 -332.578)" fill="#0c454b"/>
      <path id="패스_37886" data-name="패스 37886" d="M2505.7,456.586a.316.316,0,0,1-.265-.142c-1.982-3.005-.347-6.981-.276-7.149a.317.317,0,0,1,.585.246c-.016.038-1.574,3.834.22,6.554a.317.317,0,0,1-.264.492Z" transform="translate(-2409.385 -336.072)" fill="#0c454b"/>
      <path id="패스_37887" data-name="패스 37887" d="M2507.984,461.936a.317.317,0,0,1-.1-.619,7.627,7.627,0,0,0,2.124-.951.317.317,0,0,1,.5.391,7.435,7.435,0,0,1-2.427,1.163A.3.3,0,0,1,2507.984,461.936Z" transform="translate(-2410.881 -341.273)" fill="#0c454b"/>
      <path id="패스_37888" data-name="패스 37888" d="M2474.944,452.571a.317.317,0,0,1-.147-.6c.628-.327,1.068-.417,1.307-.267a.317.317,0,0,1-.293.56,2.584,2.584,0,0,0-.721.27A.32.32,0,0,1,2474.944,452.571Zm.823-.328h0Z" transform="translate(-2395.462 -337.255)" fill="#0c454b"/>
      <path id="패스_37889" data-name="패스 37889" d="M2464.735,479.552a4.489,4.489,0,0,1-2.375-.9c-.484-.363-2.479.19-3.741.7a.317.317,0,0,1-.237-.588c.563-.227,3.417-1.323,4.358-.618.83.623,2.058.957,2.431.662.075-.059.155-.126.24-.2.592-.492,1.4-1.166,2.29-.943a.317.317,0,0,1-.154.615c-.573-.145-1.243.411-1.731.816-.089.074-.173.143-.252.205A1.309,1.309,0,0,1,2464.735,479.552Z" transform="translate(-2387.789 -349.383)" fill="#0c454b"/>
      <path id="패스_37890" data-name="패스 37890" d="M2453.227,471.966a.315.315,0,0,1-.269-.149c-.334-.536-1.4-1.961-2.325-2.115a1.735,1.735,0,0,1-1.456-.971,1.2,1.2,0,0,0-.283-.374,5.593,5.593,0,0,0-2.226-.342.317.317,0,1,1,0-.634,5.869,5.869,0,0,1,2.618.478,1.758,1.758,0,0,1,.441.557,1.138,1.138,0,0,0,1.01.661c1.394.232,2.7,2.317,2.759,2.405a.317.317,0,0,1-.1.436A.313.313,0,0,1,2453.227,471.966Z" transform="translate(-2382.267 -344.602)" fill="#0c454b"/>
      <path id="패스_37891" data-name="패스 37891" d="M2456.186,463.018a.317.317,0,0,1-.311-.254,1.822,1.822,0,0,1,.269-1.734,1.049,1.049,0,0,1,.95-.226.317.317,0,0,1-.159.614.431.431,0,0,0-.358.076c-.078.076-.243.339-.08,1.145a.317.317,0,0,1-.249.374A.36.36,0,0,1,2456.186,463.018Z" transform="translate(-2386.674 -341.519)" fill="#0c454b"/>
      <path id="패스_37892" data-name="패스 37892" d="M2450.2,457.761a.317.317,0,0,1-.248-.515c.058-.074,1.456-1.793,3.139-1.072a5.052,5.052,0,0,0,3.1.418.317.317,0,1,1,.261.578,5.44,5.44,0,0,1-3.61-.412c-1.237-.53-2.384.87-2.4.884A.315.315,0,0,1,2450.2,457.761Z" transform="translate(-2383.916 -339.291)" fill="#0c454b"/>
      <path id="패스_37893" data-name="패스 37893" d="M2447.125,463.69h-.029a.317.317,0,0,1-.287-.345c.145-1.589-2.4-3.9-3.393-4.661a.317.317,0,0,1,.385-.5c.156.12,3.846,2.96,3.639,5.223A.317.317,0,0,1,2447.125,463.69Z" transform="translate(-2380.839 -340.278)" fill="#0c454b"/>
      <path id="패스_37894" data-name="패스 37894" d="M2442.989,463.671a.314.314,0,0,1-.186-.06.318.318,0,0,1-.071-.443c.042-.057,1.032-1.4,2.264-1.229a.317.317,0,1,1-.089.628c-.855-.123-1.653.963-1.661.974A.317.317,0,0,1,2442.989,463.671Z" transform="translate(-2380.55 -342.056)" fill="#0c454b"/>
      <path id="패스_37895" data-name="패스 37895" d="M2425.555,473.021a.317.317,0,0,1-.25-.122,8.977,8.977,0,0,1-.054-3.761,1.341,1.341,0,0,1,.658-.813.9.9,0,0,0,.462-.549l.072-.213a2.827,2.827,0,0,1,1.512-1.895,1.264,1.264,0,0,1,1.839.14,2.614,2.614,0,0,0,.4.322c.072.045.091.057.4-.277a3.308,3.308,0,0,1,1.938-1.156,4.555,4.555,0,0,1,3.079.375.317.317,0,0,1-.331.542,4.009,4.009,0,0,0-2.631-.293,2.675,2.675,0,0,0-1.59.964c-.3.32-.664.718-1.2.385a3.129,3.129,0,0,1-.493-.4c-.34-.316-.466-.435-1.078-.062a2.229,2.229,0,0,0-1.24,1.554l-.073.218a1.518,1.518,0,0,1-.721.879.72.72,0,0,0-.392.461,10.339,10.339,0,0,0-.038,3.21.317.317,0,0,1-.266.49Zm.269-.483Zm-.019-.029h0Z" transform="translate(-2372.341 -343.303)" fill="#0c454b"/>
      <path id="패스_37896" data-name="패스 37896" d="M2435.2,474.418a.313.313,0,0,1-.225-.094c-.462-.467-.186-1.233.82-2.277l.016-.015a.3.3,0,0,1,.07-.071.324.324,0,0,1,.433.042c.072.082.16.255-.061.485-.892.924-.9,1.317-.827,1.39a.317.317,0,0,1-.226.54Z" transform="translate(-2376.857 -346.711)" fill="#0c454b"/>
      <path id="패스_37897" data-name="패스 37897" d="M2437.791,475.063a2.784,2.784,0,0,1-.96-.188.317.317,0,0,1,.238-.588h0a1.659,1.659,0,0,0,1.147.057.64.64,0,0,0,.325-.443.317.317,0,1,1,.613.162,1.272,1.272,0,0,1-.656.849A1.574,1.574,0,0,1,2437.791,475.063Z" transform="translate(-2377.732 -347.535)" fill="#0c454b"/>
      <path id="패스_37898" data-name="패스 37898" d="M2447.933,473.844a.318.318,0,0,1-.316-.287,2.128,2.128,0,0,0-.965-.234.318.318,0,0,1-.3-.334.323.323,0,0,1,.333-.3c.468.025,1.557.155,1.564.834a.317.317,0,0,1-.313.321Zm-.308-.276h0Z" transform="translate(-2382.267 -347.081)" fill="#0c454b"/>
      <path id="패스_37899" data-name="패스 37899" d="M2423.233,480.911a7.352,7.352,0,0,1-2.8-.734l-.135-.089c-.806-.524-2.946-1.916-3.062-4.321a.317.317,0,0,1,.634-.03c.1,2.081,2.043,3.344,2.775,3.82l.141.093a6.524,6.524,0,0,0,2.606.633,6.155,6.155,0,0,1,2.927-.686c.865,0,1.748-1.6,1.988-2.157a.317.317,0,0,1,.583.251c-.112.26-1.136,2.54-2.571,2.54a5.753,5.753,0,0,0-2.526.544A.82.82,0,0,1,2423.233,480.911Zm.108-.588h0Zm.07-.046Z" transform="translate(-2368.677 -348.362)" fill="#0c454b"/>
      <path id="패스_37900" data-name="패스 37900" d="M2408.11,471.177a.305.305,0,0,1-.116-.022c-2.923-1.15-8.79-.275-8.849-.266a.317.317,0,0,1-.1-.627c.248-.038,6.095-.91,9.177.3a.317.317,0,0,1-.116.612Z" transform="translate(-2360.067 -345.789)" fill="#0c454b"/>
      <path id="패스_37901" data-name="패스 37901" d="M2396.219,468.666a.317.317,0,0,1-.11-.614c.321-.119,7.92-2.881,12.725.026a.317.317,0,1,1-.328.542c-4.543-2.747-12.1,0-12.177.026A.318.318,0,0,1,2396.219,468.666Z" transform="translate(-2358.724 -344.309)" fill="#0c454b"/>
      <path id="패스_37902" data-name="패스 37902" d="M2394.048,473.189a.317.317,0,0,1-.115-.613c.186-.072,1.132-.4,1.523.1a.317.317,0,1,1-.5.389,1.3,1.3,0,0,0-.794.1A.315.315,0,0,1,2394.048,473.189Z" transform="translate(-2357.711 -346.946)" fill="#0c454b"/>
      <path id="패스_37903" data-name="패스 37903" d="M2415.772,460.8l-.036,0a.316.316,0,0,1-.28-.35,2.326,2.326,0,0,0-1.741-2.824.316.316,0,0,1-.24-.2,3.581,3.581,0,0,0-2.75-2.555c-1.25-.358-2.568,1.342-2.581,1.359a.317.317,0,0,1-.5-.385c.063-.084,1.591-2.062,3.261-1.585a4.179,4.179,0,0,1,3.11,2.789,2.981,2.981,0,0,1,2.077,3.471A.317.317,0,0,1,2415.772,460.8Z" transform="translate(-2364.171 -338.443)" fill="#0c454b"/>
      <path id="패스_37904" data-name="패스 37904" d="M2422.928,459.5h-.029a.317.317,0,0,1-.287-.345c.008-.3-1.252-1.193-2.643-1.87a.317.317,0,0,1,.278-.57c.929.453,3.079,1.6,3,2.5A.317.317,0,0,1,2422.928,459.5Z" transform="translate(-2369.872 -339.607)" fill="#0c454b"/>
      <path id="패스_37905" data-name="패스 37905" d="M2416.336,442.109a.317.317,0,0,1-.26-.135c-.621-.887-.975-.94-1.1-.925-.205.028-.351.322-.386.423a.317.317,0,0,1-.6-.2,1.238,1.238,0,0,1,.894-.848c.54-.077,1.1.311,1.711,1.189a.316.316,0,0,1-.078.442A.313.313,0,0,1,2416.336,442.109Z" transform="translate(-2367.158 -332.017)" fill="#0c454b"/>
      <path id="패스_37906" data-name="패스 37906" d="M2400.91,456.571a.317.317,0,0,1-.252-.51.828.828,0,0,0,.172-.306.459.459,0,0,0-.148-.03.317.317,0,0,1,0-.634.829.829,0,0,1,.721.379c.131.266.049.594-.244.977A.317.317,0,0,1,2400.91,456.571Zm-.063-.805h0Z" transform="translate(-2360.809 -338.868)" fill="#0c454b"/>
      <path id="패스_37907" data-name="패스 37907" d="M2390.165,452.237a.3.3,0,0,1-.057-.005.317.317,0,0,1-.255-.369c.282-1.55.1-1.675-.35-1.975a3.909,3.909,0,0,1-.619-.492c-.823-.823-1.867-1.66-1.877-1.668a.317.317,0,1,1,.4-.495c.044.035,1.08.866,1.929,1.715a3.257,3.257,0,0,0,.525.414c.693.467.944.834.62,2.616A.317.317,0,0,1,2390.165,452.237Z" transform="translate(-2354.518 -335.167)" fill="#0c454b"/>
      <path id="패스_37908" data-name="패스 37908" d="M2386.183,460.983h0a.318.318,0,0,1-.316-.319c0-.6-.271-.829-.888-1.106a.852.852,0,0,0-.605.048.932.932,0,0,1-1.207-.293c-.075-.114-.121-.129-.121-.129-.043,0-.163.076-.44.514-.261.411-.881.3-1.481.183a4.7,4.7,0,0,0-.5-.073.317.317,0,0,1-.357-.519c.2-.176.509-.119.974-.031a2.738,2.738,0,0,0,.842.079c.192-.3.506-.782.958-.788h.007a.778.778,0,0,1,.647.411c.09.134.131.148.494.038a1.433,1.433,0,0,1,1.049-.02,1.731,1.731,0,0,1,1.263,1.689A.317.317,0,0,1,2386.183,460.983Zm-5.5-1.215h0Z" transform="translate(-2351.376 -340.482)" fill="#0c454b"/>
      <path id="패스_37909" data-name="패스 37909" d="M2365.791,451.6a.318.318,0,0,1-.217-.085,5.155,5.155,0,0,1-1.632-3.436,3.151,3.151,0,0,1,1.27-2.326c.143-.691.826-3.525,2.4-3.525a9.363,9.363,0,0,0,1.781-.141c-.017-.6.064-1.969,1.116-2.179.9-.18,4.234-.309,4.78.305a.317.317,0,1,1-.474.421,11.136,11.136,0,0,0-4.182-.1c-.627.125-.638,1.349-.593,1.769a.317.317,0,0,1-.215.335,7.769,7.769,0,0,1-2.214.228c-.991,0-1.65,2.314-1.8,3.124a.318.318,0,0,1-.115.191,2.588,2.588,0,0,0-1.121,1.929,4.578,4.578,0,0,0,1.431,2.946.317.317,0,0,1-.217.549Z" transform="translate(-2343.808 -331.713)" fill="#0c454b"/>
      <path id="패스_37910" data-name="패스 37910" d="M2379.62,438.62a.318.318,0,0,1-.317-.308c-.028-.993,1.054-1.434,1.923-1.789.223-.091.432-.177.606-.263a6.765,6.765,0,0,1,2.925-.243.317.317,0,0,1-.07.63,6.242,6.242,0,0,0-2.572.18c-.2.1-.416.188-.65.283-.724.3-1.544.63-1.528,1.185a.318.318,0,0,1-.308.326Z" transform="translate(-2350.978 -330)" fill="#0c454b"/>
      <path id="패스_37911" data-name="패스 37911" d="M2394.42,437.718a.319.319,0,0,1-.252-.124,1.694,1.694,0,0,0-1.184-.762,1.769,1.769,0,0,0-1.2.47.317.317,0,0,1-.445-.452,2.384,2.384,0,0,1,1.679-.652,2.288,2.288,0,0,1,1.649,1.009.318.318,0,0,1-.251.51Z" transform="translate(-2356.553 -330.112)" fill="#0c454b"/>
      <path id="패스_37912" data-name="패스 37912" d="M2389.884,431.355a.316.316,0,0,1-.294-.2,5.4,5.4,0,0,1-.008-3.413.317.317,0,1,1,.6.191,4.85,4.85,0,0,0-.007,2.986.318.318,0,0,1-.178.412A.323.323,0,0,1,2389.884,431.355Z" transform="translate(-2355.65 -326.071)" fill="#0c454b"/>
      <path id="패스_37913" data-name="패스 37913" d="M2393.548,423.235a.318.318,0,0,1-.3-.425,2.545,2.545,0,0,1,1.4-1.422,2.863,2.863,0,0,1,2.442.411.317.317,0,0,1-.32.548,2.281,2.281,0,0,0-1.9-.364,1.928,1.928,0,0,0-1.023,1.045A.318.318,0,0,1,2393.548,423.235Z" transform="translate(-2357.478 -323.161)" fill="#0c454b"/>
      <path id="패스_37914" data-name="패스 37914" d="M2406.008,422.74a.316.316,0,0,1-.312-.261c-.318-1.753-1.655-1.659-1.806-1.644a.317.317,0,0,1-.073-.63,2.343,2.343,0,0,1,2.5,2.161.317.317,0,0,1-.255.369A.3.3,0,0,1,2406.008,422.74Z" transform="translate(-2362.288 -322.665)" fill="#0c454b"/>
      <path id="패스_37915" data-name="패스 37915" d="M2471.311,444.787a.317.317,0,0,1-.315-.281c-.052-.455-.278-2.757.431-3.417a.733.733,0,0,1,.66-.187,1.772,1.772,0,0,0,1.249-.078.238.238,0,0,0,.1-.188c.016-.289.217-.769,1.361-.8l.031-.029c.347-.324,1.4-1.309,3.085.1a.317.317,0,1,1-.407.487c-1.252-1.046-1.9-.443-2.245-.119a.528.528,0,0,1-.365.2c-.582,0-.824.139-.828.2a.868.868,0,0,1-.341.652,2.22,2.22,0,0,1-1.758.2.109.109,0,0,0-.111.029c-.347.323-.344,1.909-.232,2.879a.317.317,0,0,1-.279.351Z" transform="translate(-2393.733 -331.439)" fill="#0c454b"/>
      <path id="패스_37916" data-name="패스 37916" d="M2481.553,445.529a.317.317,0,0,1-.3-.425,2.407,2.407,0,0,1,3-1.335.317.317,0,0,1-.152.615,1.77,1.77,0,0,0-2.251.939A.318.318,0,0,1,2481.553,445.529Z" transform="translate(-2398.547 -333.535)" fill="#0c454b"/>
      <path id="패스_37917" data-name="패스 37917" d="M2473.9,431.05a.316.316,0,0,1-.283-.175,1.657,1.657,0,0,1-.058-1.293,1.59,1.59,0,0,1,1.1-.845,7.969,7.969,0,0,0,1.093-.4,2.588,2.588,0,0,1,1.794-.236,1.751,1.751,0,0,1,1.234.571c.016.018.037.044.046.051a.475.475,0,0,0,.061,0c.062,0,.146-.007.247-.016.737-.06,2.464-.2,3.1,1.49a.317.317,0,0,1-.594.222c-.466-1.241-1.758-1.136-2.452-1.08-.122.01-.223.018-.3.018a.68.68,0,0,1-.59-.278c-.09-.106-.214-.252-.853-.356a2,2,0,0,0-1.438.191,8.429,8.429,0,0,1-1.172.431,1,1,0,0,0-.692.487,1.023,1.023,0,0,0,.043.759.318.318,0,0,1-.285.457Z" transform="translate(-2394.915 -326.314)" fill="#0c454b"/>
    </g>
    <g id="그룹_444" data-name="그룹 444" transform="translate(2363.54 259.607)">
      <path id="패스_37918" data-name="패스 37918" d="M2476.1,428.315s4.492-5.156,9.288-4.187,8.75-.619,8.886-2.933-1.683.177-3.2.892a12.6,12.6,0,0,1-5.642.541c-1.492-.145-6.5,1.572-7.828,3.277a13.465,13.465,0,0,0-1.7,2.575" transform="translate(-2433.404 -344.448)" fill="#0e484e"/>
      <g id="그룹_422" data-name="그룹 422" transform="translate(21.715 56.406)">
        <path id="패스_37919" data-name="패스 37919" d="M2437.726,391.362l6.272-6.672-1.745,6.672Z" transform="translate(-2437.303 -384.268)" fill="#fff"/>
        <path id="패스_37920" data-name="패스 37920" d="M2441.882,391.415h-4.526a.423.423,0,0,1-.308-.713l6.272-6.671a.423.423,0,0,1,.717.4l-1.746,6.672A.423.423,0,0,1,2441.882,391.415Zm-3.548-.846h3.222l1.243-4.749Z" transform="translate(-2436.933 -383.898)" fill="#0c474d"/>
      </g>
      <g id="그룹_423" data-name="그룹 423" transform="translate(55.128 56.514)">
        <path id="패스_37921" data-name="패스 37921" d="M2506.528,391.565l-5.157-6.672-.995,7.033Z" transform="translate(-2499.953 -384.471)" fill="#fff"/>
        <path id="패스_37922" data-name="패스 37922" d="M2500.006,391.979a.423.423,0,0,1-.418-.482l.994-7.033a.423.423,0,0,1,.753-.2l5.158,6.671a.423.423,0,0,1-.31.681l-6.152.361Zm1.273-6.4-.782,5.529,4.837-.284Z" transform="translate(-2499.583 -384.101)" fill="#0c474d"/>
      </g>
      <path id="패스_37923" data-name="패스 37923" d="M2439.063,336.29l1.373-3.6,2.451-3.518,1.8-.765s1.652.5,1.8.5,7.218,1.421,7.218,1.421,3.723.325,4.116.339,3.045.058,3.489.025,3.008-.236,3.3-.274,4.79-.563,4.79-.563l1.821-.034,1.6,4.293-.344,3.689s-5.1,1.039-5.353,1.128-7.295,2.959-7.444,3-1.957,1-1.957,1l-4.576.132s-2.763-1.277-2.955-1.253a10.666,10.666,0,0,1-1.855-1.4c-.141-.151-3.934-2.426-3.934-2.426s-1.936-.75-2.278-.81S2439.063,336.29,2439.063,336.29Z" transform="translate(-2416.212 -301.594)" fill="#fff"/>
      <path id="패스_37924" data-name="패스 37924" d="M2471.905,320.738c13.1-.169,22.83-17.054,9.184-25.071-4.177-2.453-9.362-2.2-14.048-2.175-7.942.037-13.587.107-26.577-6.593s-20.657-1.745-20.657-1.745-9.244,4.79-8.834,14.4,11.726,15.068,11.726,15.068S2436.179,321.2,2471.905,320.738Z" transform="translate(-2403.097 -280.588)" fill="#fff"/>
      <ellipse id="타원_23" data-name="타원 23" cx="3.775" cy="2.668" rx="3.775" ry="2.668" transform="matrix(0.178, -0.984, 0.984, 0.178, 30.32, 40.414)" fill="#0e484e"/>
      <ellipse id="타원_24" data-name="타원 24" cx="3.775" cy="2.668" rx="3.775" ry="2.668" transform="matrix(0.178, -0.984, 0.984, 0.178, 41.552, 41.124)" fill="#0e484e"/>
      <path id="패스_37925" data-name="패스 37925" d="M2538.219,321.04c.133.322-.124,1.1-.182,1.422a12.224,12.224,0,0,1-4.366,7.746,13.09,13.09,0,0,1-3.9,1.915c-1.32.4-2.935.815-4.244.188-1.421-.68-1.633-2.282-2.246-3.556a23.577,23.577,0,0,0-2.8-4.671,5.742,5.742,0,0,0-.609-.658c-.095-.085-.495-.28-.535-.374,0,0,2.838,6.764,1.44,10.928l-.133.957,2.264.639-3.65,1.78,4.315.071-.258.775,2.143-.211,2.858-.812,2.355-1.294,1.581-.985,2.736-2.334,2.723-4.539.931-3.394-.184-3.027Z" transform="translate(-2453.634 -298.158)" fill="#efeae0"/>
      <path id="패스_37926" data-name="패스 37926" d="M2412.863,303.318a12.991,12.991,0,0,0,1.681,9.9c1.243,2.036,3.427,4.532,5.968,4.837,1.462.175,2.345-.53,3.354-1.447a13.335,13.335,0,0,1,4.627-3,21.584,21.584,0,0,0-4.894,10.707s-9.256-4.864-11.3-12.235A12.238,12.238,0,0,1,2412.863,303.318Z" transform="translate(-2403.48 -289.888)" fill="#efeae0"/>
      <path id="패스_37927" data-name="패스 37927" d="M2482.336,331.266c-.119-.046-.341-.127-.655-.227a19.3,19.3,0,0,0,.516-2.536,14.2,14.2,0,0,0,.031-2.464,22.428,22.428,0,0,0-.494-3.532c-.255-1.072-.186-1.539-1.116-2.2-4.652-3.315-8.555-5.195-13.806-6.044-5.218-.844-11.726-1.883-16.94-.875a33.526,33.526,0,0,0-7.705,2.48,13.571,13.571,0,0,0-3.545,1.957,16.534,16.534,0,0,0-2.8,3.723,16.978,16.978,0,0,0-2.061,7.65c-.1.012-.2.025-.307.041l.031.206a13.241,13.241,0,0,1,3.887,0l.036-.2s1.024-5.355,4.642-7.376c0,0,10.113,4.32,25.931,1.394a11.684,11.684,0,0,1,.817,7.676,12.1,12.1,0,0,0-1.685.179c.293-.078-.652.177-.366.107l.141-.033c8.755-2.09,14.533-.058,15.365.267a.044.044,0,0,1-.028-.039.042.042,0,0,1,.022-.039l.1.185a.166.166,0,0,0,.091-.156A.162.162,0,0,0,2482.336,331.266Z" transform="translate(-2413.596 -294.392)" fill="#0e484e"/>
      <path id="패스_37928" data-name="패스 37928" d="M2431.541,320.9a23.582,23.582,0,0,1,5.708-4.55,12.455,12.455,0,0,1,1.65-.8c.559-.25,1.123-.483,1.691-.707a38.268,38.268,0,0,1,10.66-2.613,48.82,48.82,0,0,1,21.532,3.269,30.826,30.826,0,0,1,6.489,3.473,16.4,16.4,0,0,1,3.626,4.185,12.934,12.934,0,0,1,.792,1.644,15.917,15.917,0,0,0-5.166-4.8c-7.96-5.593-21.16-7.886-30.665-6.014a41.377,41.377,0,0,0-8.445,2.717,38,38,0,0,0-7.873,4.193Z" transform="translate(-2412.702 -293.974)" fill="#0e484e"/>
      <path id="패스_37929" data-name="패스 37929" d="M2423.045,315c-4.883-2.627-9.693-6.581-11.7-11.891a13.434,13.434,0,0,1-.528-7.275,16.139,16.139,0,0,1,4.83-8.383,17.644,17.644,0,0,1,5.374-3.633,21.054,21.054,0,0,1,12.607-.308c.7.18,1.587.482,2.287.687a39.035,39.035,0,0,1,3.663,1.533c1.868.878,3.766,1.88,5.654,2.726a50.617,50.617,0,0,0,10.3,3.516,56.842,56.842,0,0,0,12.428.812c4.959-.062,10.385-.06,14.59,3,.433.314.863.639,1.276.98.031.031.821.748.893.818l.272.3.543.6c.262.308.477.66.728.975.076.111.141.231.212.346l.415.7.344.737a11.979,11.979,0,0,1-.464,10.171,16.957,16.957,0,0,1-14.781,9.332.211.211,0,0,1-.005-.423,16.489,16.489,0,0,0,13.035-7.2c4.656-6.864,2.425-14.176-4.89-17.849-3.76-1.794-8.058-1.685-12.159-1.655-2.1.012-4.2.043-6.307-.051a41.906,41.906,0,0,1-15.32-3.732c-2.39-.993-4.787-2.265-7.114-3.374a37.591,37.591,0,0,0-3.577-1.505c-.521-.158-1.329-.412-1.852-.572-.413-.137-1.485-.342-1.883-.446a19.687,19.687,0,0,0-10.626.581,16.941,16.941,0,0,0-5.152,3.453c-4.092,3.768-6.156,9.565-4.224,14.935,1.346,3.747,4.2,6.742,7.322,9.121a29.873,29.873,0,0,0,4.006,2.574.224.224,0,1,1-.2.4Z" transform="translate(-2402.905 -280.265)" fill="#0e484e"/>
      <path id="패스_37930" data-name="패스 37930" d="M2469.032,285.117s6.035-7.535,8.742-6.948,3.432,5.763,3.878,11.843l-2.211-.6-5.6-2.058Z" transform="translate(-2430.198 -278.136)" fill="#0e484e"/>
      <path id="패스_37931" data-name="패스 37931" d="M2498.122,292.515s4.476-10.349,7.418-10.246,4.379,6.015,5.308,10.692l-4.784.137-6.2-.3Z" transform="translate(-2443.773 -280.064)" fill="#0e484e"/>
      <path id="패스_37932" data-name="패스 37932" d="M2456.688,377.533s1.78,6.029,1,9.858c0,0,14.484-1.6,21.287-10.481a4.217,4.217,0,0,0,.682-1.735s-7.568,2.759-14.2,2.886Z" transform="translate(-2424.437 -323.421)" fill="#0e484e"/>
      <g id="그룹_424" data-name="그룹 424" transform="translate(31.832 83.008)">
        <path id="패스_37933" data-name="패스 37933" d="M2456.311,435.444s.89,3.779.647,4.588,6.424,2.456,6.559,1.619.216-6.558-.513-7.044S2456.311,435.444,2456.311,435.444Z" transform="translate(-2456.094 -434.114)" fill="#fff"/>
        <path id="패스_37934" data-name="패스 37934" d="M2456.351,435.111c.239.951.494,2.094.654,3.111a5,5,0,0,1,.066,1.55.164.164,0,0,0,0-.083.872.872,0,0,0,.2.155,14.151,14.151,0,0,0,4.092,1.191,5.444,5.444,0,0,0,1.626.075c.033-.006.056-.028.014,0a.234.234,0,0,0-.068.115.133.133,0,0,0,0,.02s0,0,0-.006l0-.02a35.6,35.6,0,0,0,.015-4.181,10.621,10.621,0,0,0-.292-2.267.8.8,0,0,0-.074-.17l-.006-.012a.018.018,0,0,0,.009.01,13.829,13.829,0,0,0-3.256.22c-.73.106-2.051.307-2.767.428-.1.017-.274.043-.37.061h-.006a.18.18,0,0,0,.115-.091l.051-.108Zm-.434-.083a.284.284,0,0,1,.176-.133l.006,0,.024-.006.049-.013c.989-.261,2.042-.51,3.045-.707a14.764,14.764,0,0,1,3.284-.383.9.9,0,0,1,.813.482,8.2,8.2,0,0,1,.472,2.729,30.839,30.839,0,0,1-.045,4.283c-.082.821-1.13.668-1.685.633-.919-.077-5.868-1.082-5.594-2.267,0-.007.01-.039.01-.045a1.391,1.391,0,0,0,.025-.16l.01-.176a21.032,21.032,0,0,0-.446-3.321c-.022-.122-.094-.468-.117-.588a.662.662,0,0,1-.026-.325Z" transform="translate(-2455.903 -433.777)" fill="#0e484e"/>
      </g>
      <g id="그룹_425" data-name="그룹 425" transform="translate(25.419 86.812)">
        <path id="패스_37935" data-name="패스 37935" d="M2454.52,443.76s3.594-2.495,4.026-2.345-.568,5.116-.32,6.519,1.183,4.1.787,3.923-.906-.18-2.2.144-2.723.684-2.295,0-1.948.419-3.171.389-3.418.582-5.218-.893-1.692-2.159-1.043-1.979a7.075,7.075,0,0,0,3.2.324c1.224-.252,3.221-.648,3.23-.935s-.687-7.126-1.023-7.306S2454.079,442.764,2454.52,443.76Z" transform="translate(-2444.241 -441.142)" fill="#e0972f"/>
        <path id="패스_37936" data-name="패스 37936" d="M2454.3,443.348a.247.247,0,0,0-.261-.013l.009-.006.021-.014c.173-.123.44-.305.615-.427.64-.433,1.348-.913,2.01-1.31a5.757,5.757,0,0,1,1.326-.656.524.524,0,0,1,.212,0c.549.106.268,1.515.266,1.934-.1,1.063-.23,2.115-.308,3.162a6.37,6.37,0,0,0,.047,1.886c.247,1.2.694,2.3.863,3.531.031.281-.148.6-.484.548a3.324,3.324,0,0,0-1.978.123,14.664,14.664,0,0,1-2,.429,1,1,0,0,1-.777-.171.608.608,0,0,1-.064-.748c0-.011.032-.055.036-.065a.312.312,0,0,0,.084.316.321.321,0,0,0,.1.063c.038.012.033.006.02.007a1.76,1.76,0,0,0-.3.049c-.61.142-1.322.378-1.942.49-.747.126-1.588.1-2.434.178a5.5,5.5,0,0,1-3.664-.925,8.482,8.482,0,0,1-.95-.82,2.3,2.3,0,0,1-.865-1.511.644.644,0,0,1,.713-.556,1.261,1.261,0,0,1,.285.052,7.212,7.212,0,0,0,2.593.371c.425-.041,1.09-.205,1.515-.286a9.655,9.655,0,0,0,1.862-.519s.007-.013-.035.042a.344.344,0,0,0-.028.059.26.26,0,0,0-.018.1c0,.01,0-.009,0-.02-.035-.555-.165-1.885-.218-2.453a39.817,39.817,0,0,0-.637-4.614.28.28,0,0,0,.037.037.224.224,0,0,0,.041.026l-.029-.018c-.022-.164-.052.3-.1-.429.266-.242.318-.109.3-.142a10.881,10.881,0,0,1,1.45.55,6.7,6.7,0,0,1,2.693,1.749Zm-.166.4c-.185-.073-.206-.247-.372-.379a11.825,11.825,0,0,0-3.686-1.716l.013,0c-.021-.034.02.1.282-.14-.051-.721-.07-.254-.086-.412l-.008-.005a.474.474,0,0,1,.06.042.347.347,0,0,1,.069.074.573.573,0,0,1,.055.092,8.554,8.554,0,0,1,.371,1.636c.171,1.055.31,2.109.44,3.165.075.664.242,1.921.274,2.574a.617.617,0,0,1-.387.5,10.681,10.681,0,0,1-2.005.578l-.782.167a6.93,6.93,0,0,1-3.719-.23l-.045-.012-.023,0c-.016,0-.034-.009-.036-.005s-.017,0,0,0a.224.224,0,0,0,.16-.186l0,0c0-.023,0,.01.012.035a5.161,5.161,0,0,0,1.32,1.43c.075.051.214.162.288.214a4.834,4.834,0,0,0,2.989.676,14.877,14.877,0,0,0,3.071-.32c.285-.074.887-.243,1.169-.3.246-.047.642-.154.887.076a.5.5,0,0,1,.088.59l-.043.079-.017.03c-.02.023-.008.053-.009-.044a.26.26,0,0,0-.133-.19,18.915,18.915,0,0,0,2.928-.543,2.629,2.629,0,0,1,1.531.082.3.3,0,0,0-.388.15c-.022.04-.015.078-.015.016-.178-1.276-.685-2.556-.872-3.849-.11-2.092.492-4.085.492-6.151a.714.714,0,0,0-.017-.107l0,.008.018.022a.247.247,0,0,0,.045.034c.013.01.031.01.042.018s.042,0,.028,0a.029.029,0,0,1-.014,0,14.41,14.41,0,0,0-2.512,1.395c-.23.148-.778.505-1,.65-.06.043-.19.125-.247.165a.348.348,0,0,1-.23.092Z" transform="translate(-2443.879 -440.909)" fill="#0e484e"/>
      </g>
      <g id="그룹_426" data-name="그룹 426" transform="translate(42.944 83)">
        <path id="패스_37937" data-name="패스 37937" d="M2484.824,435.444s-.891,3.779-.648,4.588-6.424,2.456-6.559,1.619-.216-6.558.513-7.044S2484.824,435.444,2484.824,435.444Z" transform="translate(-2477.106 -434.106)" fill="#fff"/>
        <path id="패스_37938" data-name="패스 37938" d="M2484.658,435.02a.656.656,0,0,1-.026.325c-.027.119-.092.462-.117.588a21.06,21.06,0,0,0-.447,3.321l.01.176a1.288,1.288,0,0,0,.026.16v.009l.009.037c.272,1.185-4.663,2.187-5.594,2.267-.556.036-1.6.188-1.685-.633a30.877,30.877,0,0,1-.045-4.283,10.161,10.161,0,0,1,.368-2.492,1.5,1.5,0,0,1,.187-.37c.369-.492,1.088-.347,1.6-.334a30.21,30.21,0,0,1,3.995.711c.255.061.929.22,1.174.287.055.018.237.061.292.078s.082.018.129.038a.292.292,0,0,1,.126.116Zm-.434.083.052.108a.189.189,0,0,0,.115.091h-.006c-.1-.015-.27-.045-.371-.061-.71-.121-2.041-.323-2.766-.428a13.806,13.806,0,0,0-3.256-.22.02.02,0,0,0,.009-.01l-.007.012a.192.192,0,0,0-.021.038,1.01,1.01,0,0,0-.052.132,10.621,10.621,0,0,0-.292,2.267,35.6,35.6,0,0,0,.015,4.181l0,.02s0,.01,0,.006a.092.092,0,0,0,0-.02.24.24,0,0,0-.069-.115c-.042-.031-.019-.01.014,0a5.458,5.458,0,0,0,1.626-.075,14.15,14.15,0,0,0,4.092-1.191.867.867,0,0,0,.2-.155.122.122,0,0,0-.008.036.213.213,0,0,0,0,.047,4.994,4.994,0,0,1,.065-1.55c.16-1.016.417-2.161.654-3.111Z" transform="translate(-2476.738 -433.761)" fill="#0e484e"/>
      </g>
      <g id="그룹_427" data-name="그룹 427" transform="translate(42.068 86.815)">
        <path id="패스_37939" data-name="패스 37939" d="M2480.352,443.76s-3.595-2.495-4.026-2.345.568,5.116.32,6.519-1.184,4.1-.788,3.923.907-.18,2.2.144,2.723.684,2.3,0,1.948.419,3.171.389,3.419.582,5.218-.893,1.691-2.159,1.044-1.979a7.079,7.079,0,0,1-3.2.324c-1.224-.252-3.221-.648-3.23-.935s.688-7.126,1.023-7.306S2480.792,442.764,2480.352,443.76Z" transform="translate(-2475.406 -441.145)" fill="#e0972f"/>
        <path id="패스_37940" data-name="패스 37940" d="M2480.061,443.751a.346.346,0,0,1-.229-.092c-.065-.046-.184-.122-.247-.165-.219-.148-.77-.5-1-.65a13.859,13.859,0,0,0-2.526-1.4c-.015,0,.02,0,.028,0s.028-.008.042-.018a.181.181,0,0,0,.068-.065.68.68,0,0,0-.017.107c0,2.067.6,4.059.492,6.151-.187,1.292-.694,2.573-.872,3.849a.177.177,0,0,0,0,.031.263.263,0,0,0-.016-.047.306.306,0,0,0-.389-.15,2.629,2.629,0,0,1,1.531-.082,18.873,18.873,0,0,0,2.929.543.157.157,0,0,0-.054.036.266.266,0,0,0-.079.154c0,.1.011.067-.009.044l-.017-.03-.043-.079a.5.5,0,0,1,.088-.59c.245-.23.641-.124.887-.076.275.073.891.22,1.169.3a14.874,14.874,0,0,0,3.071.32,4.837,4.837,0,0,0,2.989-.676c.132-.107.31-.22.433-.337a4.7,4.7,0,0,0,1.175-1.307c.023-.092,0,0,.033.03a.222.222,0,0,0,.142.124c.018,0,.007,0,0,0a.537.537,0,0,0-.1.021,7.19,7.19,0,0,1-3.326.311c-.914-.2-1.85-.37-2.754-.657-.307-.111-.789-.247-.812-.671.032-.647.2-1.917.274-2.574.131-1.056.269-2.11.44-3.165a8.507,8.507,0,0,1,.37-1.636l.022-.041a.33.33,0,0,1,.032-.051.365.365,0,0,1,.069-.074.476.476,0,0,1,.06-.042l-.008.005c-.016.158-.036-.308-.087.412.261.237.3.106.281.14l.013,0a11.834,11.834,0,0,0-3.686,1.716,1.115,1.115,0,0,0-.164.184.4.4,0,0,1-.208.195Zm-.166-.4a6.7,6.7,0,0,1,2.694-1.749,10.937,10.937,0,0,1,1.45-.55c-.014.034.039-.1.3.142-.052.729-.082.265-.1.429l-.029.018a.237.237,0,0,0,.041-.026.222.222,0,0,0,.036-.037,39.939,39.939,0,0,0-.636,4.614c-.054.574-.182,1.893-.218,2.453,0,.011,0,.029,0,.02a.269.269,0,0,0-.018-.1.343.343,0,0,0-.028-.059c-.042-.055-.039-.043-.035-.042a9.645,9.645,0,0,0,1.863.519c.424.078,1.088.246,1.515.286a7.2,7.2,0,0,0,2.592-.371,1.275,1.275,0,0,1,.286-.052.644.644,0,0,1,.713.556,2.3,2.3,0,0,1-.865,1.511,8.49,8.49,0,0,1-.95.82,5.5,5.5,0,0,1-3.665.925c-.845-.083-1.687-.052-2.433-.178-.62-.111-1.332-.347-1.942-.49a1.759,1.759,0,0,0-.3-.049c-.013,0-.017,0,.02-.007a.3.3,0,0,0,.1-.063.313.313,0,0,0,.084-.316.019.019,0,0,1,0,.008l.031.057a.7.7,0,0,1,.1.42.534.534,0,0,1-.164.328,1,1,0,0,1-.776.171,14.568,14.568,0,0,1-2-.429,3.326,3.326,0,0,0-1.979-.123.408.408,0,0,1-.437-.237.682.682,0,0,1-.047-.31c.169-1.234.615-2.329.863-3.531a6.386,6.386,0,0,0,.047-1.886c-.078-1.046-.211-2.1-.309-3.162a4.972,4.972,0,0,1,.017-1.724c.133-.3.467-.236.7-.136a25.874,25.874,0,0,1,3.429,2.119c.091.061.22.155.307.214l.009.006a.2.2,0,0,0-.176-.023l-.086.036Z" transform="translate(-2475.096 -440.915)" fill="#0e484e"/>
      </g>
      <g id="그룹_428" data-name="그룹 428" transform="translate(30.849 77.254)">
        <path id="패스_37941" data-name="패스 37941" d="M2474.138,423.4a9.334,9.334,0,0,1,.3,2.463c-.059,1.133-.226,3.212.128,3.805s.677.486.272,1.08-7.557.215-7.8,0c0,0-.952.055-1.149-.189-.419-.518-.512-1.548-.972-1.629s-1.134.145-1.026.793-.918.81-1.16,1.026-7.4.594-7.8,0-.081-.486.272-1.08.187-2.672.128-3.805a7.149,7.149,0,0,1,.409-2.406" transform="translate(-2454.379 -423.181)" fill="#10494f"/>
        <path id="패스_37942" data-name="패스 37942" d="M2474.035,423.15a8.933,8.933,0,0,1,.357,2.46,20.074,20.074,0,0,0,.024,3.318c.086.818,1.052.828.417,1.776a.847.847,0,0,1-.564.345,9.8,9.8,0,0,1-1.756.179c-1.3.041-2.6.019-3.9-.056a13.411,13.411,0,0,1-1.957-.208.515.515,0,0,1-.2-.107l.29.1c-1.162.033-1.524-.054-1.937-1.2a2.541,2.541,0,0,0-.3-.62c-.122-.021-.508.021-.529.217a.375.375,0,0,0,.005.123,1.037,1.037,0,0,1-.558,1.036c-.331.2-.605.263-.854.435a9.268,9.268,0,0,1-1.947.237c-1.373.076-2.743.115-4.12.07a7.507,7.507,0,0,1-1.79-.215.94.94,0,0,1-.321-.17c-.241-.25-.47-.711-.242-1.046.148-.218.306-.317.425-.526a1.908,1.908,0,0,0,.157-.67c.153-1.346-.148-2.742.1-4.087a7.921,7.921,0,0,1,.386-1.35.212.212,0,0,1,.4.138,7.575,7.575,0,0,0-.339,1.942,33.69,33.69,0,0,1,.131,3.417,2.413,2.413,0,0,1-.228.975,3.913,3.913,0,0,1-.412.545c0,.007.021-.057.017-.072s.034.076.088.149l.042.06a.17.17,0,0,0-.033-.039,14.11,14.11,0,0,0,2.988.166,36.764,36.764,0,0,0,4.324-.285c.038-.009.035-.011.014,0a.316.316,0,0,0-.081.054c.312-.257.768-.307,1.006-.56.023-.034.023-.035.024-.057a1.324,1.324,0,0,1,0-.406,1.193,1.193,0,0,1,2.095-.446c.251.424.436,1.111.608,1.315a2.624,2.624,0,0,0,.832.069l.29.1a.31.31,0,0,0-.082-.054c-.009,0-.015-.005-.009,0l.028.007a34.423,34.423,0,0,0,3.656.273,28.57,28.57,0,0,0,2.86-.015,3.369,3.369,0,0,0,.824-.136c.009,0,.02-.018-.02.026-.016.026.015-.021.018-.026a1.171,1.171,0,0,0,.1-.183c.005-.013,0-.009,0,.012a.089.089,0,0,0,.011.038c-.066-.08-.209-.241-.288-.35a1.7,1.7,0,0,1-.317-.811,11,11,0,0,1-.021-2c.025-.544.12-1.379.1-1.908a10.043,10.043,0,0,0-.254-1.87.224.224,0,0,1,.434-.109Z" transform="translate(-2454.06 -422.988)" fill="#0e484e"/>
      </g>
      <path id="패스_37943" data-name="패스 37943" d="M2455.294,411.267a16.963,16.963,0,0,1,.583,3.228,3.18,3.18,0,0,1-.094,1.367c-.344.556-.806,1.059-1.163,1.587a.211.211,0,0,1-.177.241c-.27.035-.28-.315-.231-.49a6.882,6.882,0,0,1,.824-1.693c.079-1.328-.174-2.785-.185-4.169a.226.226,0,0,1,.442-.07Z" transform="translate(-2423.271 -340.19)" fill="#0e484e"/>
      <path id="패스_37944" data-name="패스 37944" d="M2455.626,411.063l.161,2.207-.368,2.111-.576.576v.954s.9.162.944.2,1.607-.1,1.607-.1h2.829l2.4.254h1.671c.054,0,3.387-.093,3.387-.093l2.679-.218,3.866-.611-6.952-5.375-3.561-.95-1.315-1.314-1.515.719Z" transform="translate(-2423.576 -339.069)" fill="#fff"/>
      <g id="그룹_429" data-name="그룹 429" transform="translate(30.478 76.347)">
        <path id="패스_37945" data-name="패스 37945" d="M2455.958,421.543s-1.785.311-1.791,1.46c0,.4.795.283,1.522.059" transform="translate(-2453.74 -421.407)" fill="#fff"/>
        <path id="패스_37946" data-name="패스 37946" d="M2455.607,421.558c-.491.263-1.165.593-1.349,1.092a.72.72,0,0,0-.035.227.252.252,0,0,0-.026-.086.181.181,0,0,0-.075-.078c-.015-.006-.012,0,0,0a2.871,2.871,0,0,0,.865.017.327.327,0,0,1,.3.1c.169.139-.009.437-.146.458-.511.215-1.312.512-1.7-.1a1.261,1.261,0,0,1,.472-1.412,2.47,2.47,0,0,1,1.646-.5.14.14,0,0,1,.047.268Z" transform="translate(-2453.365 -421.288)" fill="#0e484e"/>
      </g>
      <path id="패스_37947" data-name="패스 37947" d="M2453.941,423.887a9.724,9.724,0,0,1,5.043-.433,14,14,0,0,0,2.4.164c3.906-.026,7.825-.249,11.72-.566a3.81,3.81,0,0,0,.6-.1.112.112,0,0,1,.077.21,25.372,25.372,0,0,1-4.934.913,51.674,51.674,0,0,1-7.485.332,12.463,12.463,0,0,1-2.534-.326,7.869,7.869,0,0,0-2.372-.205,11.839,11.839,0,0,0-2.4.378.194.194,0,0,1-.113-.37Z" transform="translate(-2423.095 -345.717)" fill="#0e484e"/>
      <path id="패스_37948" data-name="패스 37948" d="M2441.714,349.029l7.971.542c15.6-8.688,27.306-3.709,27.306-3.709l-4.475,2.011c1.274.045,4.84-.163,5.139-.164-.12.814-4.288,3.579-4.288,3.579l4.3-.38a.062.062,0,0,1,.056.1,30.909,30.909,0,0,1-6.9,6.134c-8.285,5.983-19.248,6.936-29.116,5.747-5.941-.716-11.767-2.189-16.738-5.6-2.392-1.639-4.8-4.009-4.807-7.094-.013-3.629,3.837-6.2,7.087-6.7C2432.448,342.7,2437.906,345.66,2441.714,349.029Z" transform="translate(-2407.391 -308.576)" fill="#fff"/>
      <path id="패스_37949" data-name="패스 37949" d="M2497.558,371.348c1.758-1.069,2.472-3.163,5.8-4.342,2.952-1.046,4.966-.8,6.357-1.166a21.828,21.828,0,0,0,3.522-.888c.254-.122.545.318.4.558-.9,1.505-1.039,2.619-2.24,3.892-1.9,2.01-5.924,1.9-8.754,1.918C2500.25,371.338,2500.129,371.738,2497.558,371.348Z" transform="translate(-2443.51 -318.64)" fill="#0e484e"/>
      <path id="패스_37950" data-name="패스 37950" d="M2498.465,376.943c1.319.379,2.749-.37,5.041.732,1.876.9,2.51,2.85,4.353,3.81.385.2.75.4,1.135.554.173.07.141.278-.031.35a7.3,7.3,0,0,1-3.149.677,7.959,7.959,0,0,1-5.3-2.207C2499.425,379.716,2498.436,378.491,2498.465,376.943Z" transform="translate(-2443.933 -324.246)" fill="#0e484e"/>
      <ellipse id="타원_25" data-name="타원 25" cx="3.116" cy="4.894" rx="3.116" ry="4.894" transform="translate(32.442 45.068) rotate(-88.191)" fill="#0e484e"/>
      <path id="패스_37951" data-name="패스 37951" d="M2440.524,348.788c-4.287-3.725-10.95-6.7-16.546-4.433-2.623,1.076-5.125,3.6-4.566,6.632a8.312,8.312,0,0,0,3.1,4.817c7.14,5.737,16.793,6.981,25.692,7.1,7-.069,14.187-1.483,20.125-5.331a40.883,40.883,0,0,0,7.029-5.647q.534-.583,1.008-1.212a.353.353,0,0,0,.27.55c-.578.059-3.465.3-4.263.374a.407.407,0,0,1-.26-.741,36.552,36.552,0,0,0,3.359-2.486,3.962,3.962,0,0,0,.771-.822l.395.455c-1.535.057-3.655.189-5.166.157a.391.391,0,0,1-.146-.746l4.493-2,.007.683a14.763,14.763,0,0,0-1.639-.533c-8.6-2.23-17.817-.11-25.485,4.093a.212.212,0,0,1-.206-.37,44.372,44.372,0,0,1,6.475-3.011,33.031,33.031,0,0,1,19.4-1.419,15.354,15.354,0,0,1,1.743.554.372.372,0,0,1,.007.683l-4.479,2.031-.146-.746c.758.02,1.783-.027,2.547-.053l2.6-.118a.379.379,0,0,1,.386.455,1.1,1.1,0,0,1-.107.3,9.053,9.053,0,0,1-2.041,1.916c-.759.578-1.529,1.123-2.319,1.654l-.26-.741c.417-.039,3.4-.3,3.795-.341l.38-.034.094-.009.024,0a.475.475,0,0,1,.492.657,25.875,25.875,0,0,1-5.783,5.416c-6.489,5.144-14.933,7.177-23.095,7.193-8.618-.1-17.723-1.325-24.937-6.406a11.587,11.587,0,0,1-4.091-4.671,6.044,6.044,0,0,1,1.879-7.226c5.023-4.255,12.411-2.257,17.339,1.151a25.8,25.8,0,0,1,2.425,1.892.224.224,0,0,1-.3.335Z" transform="translate(-2406.693 -308.403)" fill="#0e484e"/>
      <g id="그룹_431" data-name="그룹 431" transform="translate(24.514 51.458)">
        <g id="그룹_430" data-name="그룹 430">
          <path id="패스_37952" data-name="패스 37952" d="M2453.383,375.173s-10.7,1.489-10.755,2.1,3.7,24.323,4.137,24.323,6.674-2.758,6.894-2.647,8.659,1.931,8.935,1.765,2.206-1.875,2.482-1.654,6.343,2.537,6.233,1.71,5.681-23.11,5.129-23.44a82.016,82.016,0,0,0-9.266-2.151c-.276.11-3.585,2.316-3.861,2.316S2453.383,375.173,2453.383,375.173Z" transform="translate(-2442.39 -374.876)" fill="#fff"/>
          <path id="패스_37953" data-name="패스 37953" d="M2453.194,375.109c-3.348.535-6.836.964-10.112,1.828a2.286,2.286,0,0,0-.441.174c-.02.009-.027.026-.009,0a.144.144,0,0,0,.022-.054c0-.031,0-.02,0-.025.058.61.276,2.047.371,2.683,1.141,7.057,2.245,14.63,3.723,21.388.047-.015-.287-.11-.2-.075,0,0-.007,0,0,0l.04-.011c.093-.026.186-.058.281-.091,1.674-.614,4.3-1.787,5.987-2.408a3.845,3.845,0,0,1,.465-.141l.042-.007a.447.447,0,0,1,.128,0c.226.063.546.134.793.193,2.5.548,5.043,1.106,7.565,1.511a4.19,4.19,0,0,0,.454.048.176.176,0,0,0-.06.014.151.151,0,0,0-.036.022l.026-.018a12.514,12.514,0,0,1,2.366-1.676.538.538,0,0,1,.448.041c.059.04.017.01.019.012.163.082.376.173.557.245a36.08,36.08,0,0,0,4.027,1.365,4.925,4.925,0,0,0,1.16.2c.042,0,.087-.022.03.007a.246.246,0,0,0-.1.207c0,.026,0,.015,0-.021a.55.55,0,0,1,0-.057c.112-1.012.5-2.463.712-3.47,1.3-5.583,2.734-11.148,3.952-16.742a23.2,23.2,0,0,0,.526-3.055.259.259,0,0,0,.121.158c.013.008,0,0,0,0l-.019-.01-.042-.015c-1.043-.349-2.206-.617-3.278-.887-1.8-.43-3.613-.873-5.436-1.2-.083-.014-.158-.025-.238-.031-.006,0-.046,0,0,0a.105.105,0,0,0,.035-.012l0,0c-.461.265-1.722,1.062-2.2,1.363-.477.281-1.018.644-1.524.879a.683.683,0,0,1-.182.057.2.2,0,0,1-.089,0c-.213-.03-.527-.108-.731-.153-2.734-.647-6.4-1.55-9.138-2.234Zm-.046-.385c2.267.5,7.778,1.813,9.952,2.237,1.109-.6,2.527-1.593,3.663-2.268l.067-.034a.161.161,0,0,1,.046-.018.541.541,0,0,1,.089-.017.46.46,0,0,1,.1,0l.068,0c1.93.3,3.821.764,5.723,1.191,1.139.281,2.313.523,3.431.905l.077.037c.016.009.018.008.046.025a.4.4,0,0,1,.181.3,18.3,18.3,0,0,1-.518,3.3c-1.2,5.578-2.613,11.21-3.907,16.766-.176.75-.505,2.175-.648,2.923-.019.137-.058.312-.059.391,0-.018,0-.011,0,.033a.531.531,0,0,1,0,.093.485.485,0,0,1-.22.339,1.344,1.344,0,0,1-.885.074,17.4,17.4,0,0,1-2.548-.7,26.343,26.343,0,0,1-3.136-1.227.255.255,0,0,0,.115.042c.043,0,.032,0,.02,0a12.7,12.7,0,0,0-1.985,1.428,1.354,1.354,0,0,1-.334.22,1.987,1.987,0,0,1-.729-.029c-2.288-.373-4.515-.871-6.772-1.362-.447-.106-1.167-.254-1.605-.381-.024-.01-.122-.044-.01,0,.033.012.111,0,.065.006-.233.06-.531.177-.754.258-1.508.572-4.09,1.692-5.6,2.237a2.228,2.228,0,0,1-.506.137c.074.039-.281-.06-.244-.091a.4.4,0,0,1-.095-.135,8.034,8.034,0,0,1-.33-1.241c-1.429-7.331-2.541-14.71-3.607-22.1-.043-.345-.1-.694-.117-1.046a.289.289,0,0,1,.009-.077c.08-.486,1.994-.74,2.448-.869,2.792-.55,5.689-.967,8.508-1.362Z" transform="translate(-2442.182 -374.62)" fill="#0e484e"/>
        </g>
        <path id="패스_37954" data-name="패스 37954" d="M2462.639,375.014c.165,7.868.261,15.742-.067,23.606a.186.186,0,0,1-.37,0c-.084-1.967-.128-3.934-.147-5.9-.035-3.934,0-7.869.059-11.8q.041-2.95.133-5.9a.2.2,0,0,1,.392,0Z" transform="translate(-2451.449 -374.717)" fill="#0e484e"/>
        <path id="패스_37955" data-name="패스 37955" d="M2480.759,379.363c-.074,7.6-.216,15.2-.783,22.779a.186.186,0,0,1-.37-.013c-.023-1.9-.007-3.8.032-5.7.084-3.8.234-7.594.417-11.389q.131-2.846.313-5.691a.2.2,0,0,1,.392.013Z" transform="translate(-2459.641 -376.744)" fill="#0e484e"/>
        <path id="패스_37956" data-name="패스 37956" d="M2486.862,375.964c-.589,7.719-1.247,15.439-2.327,23.109a.186.186,0,0,1-.369-.037c.1-1.934.25-3.865.419-5.793.342-3.857.749-7.706,1.189-11.552q.323-2.886.7-5.765a.2.2,0,0,1,.39.039Z" transform="translate(-2461.775 -375.151)" fill="#0e484e"/>
        <path id="패스_37957" data-name="패스 37957" d="M2446.169,379.6c2.386-.478,4.822-.977,7.273-1.437a.285.285,0,0,1,.337.288l-.062,5.323-.084,5.323a.36.36,0,0,1-.314.351c-.855.116-1.708.241-2.563.349l-2.566.33a.352.352,0,0,1-.4-.287l-.447-2.582c-.384-2.378-.833-5.279-1.178-7.658Zm.306.227c.677,3.149,1.434,6.721,2.015,9.887l-.4-.287,2.563-.357c.854-.12,1.71-.225,2.565-.338l-.313.351.136-5.322.16-5.321.336.288c-2.329.385-4.673.732-7.067,1.1Z" transform="translate(-2444.042 -376.269)" fill="#0e484e"/>
        <path id="패스_37958" data-name="패스 37958" d="M2450.2,402.034c1.673-.4,3.389-.817,5.116-1.2a.272.272,0,0,1,.33.268l.053,4.468c.021,1.489.023,2.978.031,4.468a.354.354,0,0,1-.212.327l-1.792.782c-.6.263-1.2.513-1.793.77a.366.366,0,0,1-.505-.281c-.469-3.1-.872-6.478-1.227-9.6Zm.307.227c.569,2.989,1.183,6.273,1.641,9.263l-.505-.28c1.034-.448,2.533-1.1,3.588-1.538l-.216.329c.007-2.586.05-6.312.084-8.935l.33.268c-1.618.313-3.249.6-4.921.893Z" transform="translate(-2445.924 -386.849)" fill="#0e484e"/>
        <path id="패스_37959" data-name="패스 37959" d="M2465.263,379.756c2.422.42,4.912.838,7.4,1.306a.28.28,0,0,1,.228.29c-.091,2.817-.207,7.146-.314,9.93a.355.355,0,0,1-.381.341l-3.42-.235-3.419-.263a.353.353,0,0,1-.329-.353l.021-2.787c.049-2.559.131-5.677.216-8.228Zm.235.3c.1,3.357.23,7.357.237,10.716l-.328-.354,3.421.234,3.418.261-.381.341c.117-2.771.322-7.123.458-9.925l.229.29c-2.332-.489-4.659-1.027-7.053-1.563Z" transform="translate(-2452.843 -377.017)" fill="#0e484e"/>
        <path id="패스_37960" data-name="패스 37960" d="M2465.263,404.592c2.228.035,4.516.048,6.814.12a.3.3,0,0,1,.285.3c-.03,1.69-.1,5.082-.148,6.77a.357.357,0,0,1-.4.345q-3.235-.323-6.463-.709a.342.342,0,0,1-.307-.342c.018-2.108.122-4.378.216-6.484Zm.256.282c.085,1.814.2,4.42.215,6.2l-.307-.341q3.237.306,6.466.68l-.4.345c.058-1.685.195-5.076.27-6.76l.285.307c-2.151-.112-4.312-.283-6.533-.432Z" transform="translate(-2452.852 -388.607)" fill="#0e484e"/>
        <path id="패스_37961" data-name="패스 37961" d="M2490.1,378.391c1.895.479,3.854.962,5.8,1.491a.277.277,0,0,1,.2.33c-.531,2.535-1.255,6.1-1.8,8.593a.355.355,0,0,1-.4.276l-2.4-.361-2.4-.378a.363.363,0,0,1-.3-.4c.09-.809.195-1.617.295-2.425.277-2.208.687-4.915,1.012-7.127Zm.2.322c-.2,2.735-.492,6.627-.79,9.311l-.3-.4,2.4.367,2.4.383-.4.277c.32-1.428.635-2.857.966-4.282l.984-4.278.2.33c-1.8-.537-3.592-1.121-5.446-1.708Z" transform="translate(-2463.935 -376.38)" fill="#0e484e"/>
        <path id="패스_37962" data-name="패스 37962" d="M2488.435,399.694c1.537.111,3.135.2,4.739.357a.3.3,0,0,1,.262.363c-.271,1.414-.543,2.828-.832,4.238a.362.362,0,0,1-.408.285c-1.365-.189-2.728-.389-4.088-.612a.338.338,0,0,1-.293-.372c.155-1.418.388-2.858.62-4.259Zm.233.3c-.03,1.171-.076,2.878-.168,4.022l-.293-.373c1.368.172,2.732.365,4.095.571l-.409.285c.307-1.407.63-2.81.954-4.213l.262.362c-1.455-.183-2.917-.429-4.441-.655Z" transform="translate(-2463.476 -386.321)" fill="#0e484e"/>
        <path id="패스_37963" data-name="패스 37963" d="M2486.877,410.558c1.35.058,2.752.1,4.163.194a.292.292,0,0,1,.267.344c-.157,1.062-.481,3.2-.65,4.259a.36.36,0,0,1-.41.3c-1.312-.231-2.621-.474-3.926-.74a.337.337,0,0,1-.278-.391c.228-1.324.531-2.663.834-3.966Zm.226.307c-.106,1.239-.212,2.547-.381,3.765l-.277-.391c1.311.213,2.616.45,3.919.7l-.424.3.385-2.119.4-2.116.267.344c-1.273-.131-2.555-.312-3.888-.477Z" transform="translate(-2462.648 -391.391)" fill="#0e484e"/>
      </g>
      <g id="그룹_432" data-name="그룹 432" transform="translate(20.477 62.067)">
        <path id="패스_37964" data-name="패스 37964" d="M2442.5,397.592c.753-2.12-1.911-2.422-3.2-2.384a4.107,4.107,0,0,0-3.91,3.375,4.4,4.4,0,0,0,4.514,5.3c3.351,0,4.24-1.82,3.009-2.754" transform="translate(-2434.936 -394.835)" fill="#fff"/>
        <path id="패스_37965" data-name="패스 37965" d="M2439.571,403.926a4.768,4.768,0,0,1-4.87-5.736,4.5,4.5,0,0,1,4.262-3.676c.6-.018,2.616.008,3.4,1.09a1.843,1.843,0,0,1,.157,1.788.37.37,0,0,1-.7-.247,1.139,1.139,0,0,0-.058-1.1c-.458-.628-1.789-.814-2.785-.786a3.761,3.761,0,0,0-3.557,3.076,4.173,4.173,0,0,0,.852,3.418,4.079,4.079,0,0,0,3.291,1.438h.007c1.881,0,2.928-.614,3.131-1.22a.782.782,0,0,0-.345-.87.37.37,0,1,1,.447-.589,1.488,1.488,0,0,1,.6,1.695c-.279.831-1.433,1.721-3.831,1.724Z" transform="translate(-2434.613 -394.511)" fill="#0c474d"/>
      </g>
      <g id="그룹_433" data-name="그룹 433" transform="translate(24.879 64.638)">
        <path id="패스_37966" data-name="패스 37966" d="M2443.237,400.394c.272-.3,3.783-1.1,4.058.582.461,2.822-2.838,2.757-3.214,2.609" transform="translate(-2443.04 -399.616)" fill="#fff"/>
        <path id="패스_37967" data-name="패스 37967" d="M2442.919,399.98a2.951,2.951,0,0,1,1.229-.5c1.029-.2,2.425-.363,3.139.633a1.591,1.591,0,0,1,.224.719,2.279,2.279,0,0,1-1.118,2.378,3.484,3.484,0,0,1-2.206.336c-.135-.031-.509-.065-.425-.305a.173.173,0,0,1,.206-.094,3.879,3.879,0,0,0,2.076-.522,1.745,1.745,0,0,0,.627-2.129,1.631,1.631,0,0,0-1.3-.517,6.069,6.069,0,0,0-2.093.234c-.038.012-.074.035-.071.025a.2.2,0,0,1-.291-.262Z" transform="translate(-2442.867 -399.332)" fill="#0c474d"/>
      </g>
      <g id="그룹_434" data-name="그룹 434" transform="translate(54.062 61.39)">
        <path id="패스_37968" data-name="패스 37968" d="M2499.217,396.323c-.752-2.12,1.912-2.422,3.2-2.384a4.108,4.108,0,0,1,3.91,3.375,4.4,4.4,0,0,1-4.513,5.3c-3.351,0-4.24-1.82-3.009-2.754" transform="translate(-2497.909 -393.566)" fill="#fff"/>
        <path id="패스_37969" data-name="패스 37969" d="M2501.5,402.657h-.008c-2.4,0-3.552-.893-3.831-1.724a1.488,1.488,0,0,1,.6-1.695.37.37,0,0,1,.448.589.782.782,0,0,0-.345.87c.2.605,1.25,1.217,3.131,1.219h.007a4.079,4.079,0,0,0,3.292-1.438,4.176,4.176,0,0,0,.852-3.418,3.761,3.761,0,0,0-3.558-3.076c-1-.026-2.327.158-2.784.786a1.14,1.14,0,0,0-.058,1.1.37.37,0,1,1-.7.247,1.842,1.842,0,0,1,.157-1.788c.789-1.082,2.807-1.109,3.4-1.09a4.5,4.5,0,0,1,4.262,3.676,4.767,4.767,0,0,1-4.87,5.736Z" transform="translate(-2497.584 -393.242)" fill="#0c474d"/>
      </g>
      <g id="그룹_435" data-name="그룹 435" transform="translate(53.865 63.956)">
        <path id="패스_37970" data-name="패스 37970" d="M2502.007,399.126c-.271-.3-3.784-1.1-4.058.582-.461,2.822,2.838,2.757,3.214,2.609" transform="translate(-2497.537 -398.342)" fill="#fff"/>
        <path id="패스_37971" data-name="패스 37971" d="M2501.54,398.969c-.83-.279-2.9-.548-3.461.258a1.973,1.973,0,0,0,0,1.4,2.549,2.549,0,0,0,2.17,1.223,2.807,2.807,0,0,0,.572.019.161.161,0,0,1,.078.308,2.892,2.892,0,0,1-3.494-1.261,2.616,2.616,0,0,1-.168-1.357,1.587,1.587,0,0,1,.224-.719c.832-1.208,3.068-.8,4.188-.273a.69.69,0,0,1,.18.136.2.2,0,0,1-.292.262Z" transform="translate(-2497.216 -398.054)" fill="#0c474d"/>
      </g>
      <g id="그룹_443" data-name="그룹 443" transform="translate(0 42.606)">
        <g id="그룹_436" data-name="그룹 436">
          <path id="패스_37972" data-name="패스 37972" d="M2419.618,374.255s-5.2-.48-5.376-.076-4.976,3.66-10.593,2.576-6.691-6.257-6.83-8.4c-.155-2.384.189-6.97,4.1-8.916,5.166-2.574,12.451,1.228,13.9,5.189.758,2.072,1.168,4.3.869,5.442S2419.508,374.084,2419.618,374.255Z" transform="translate(-2396.485 -358.29)" fill="#fff"/>
          <path id="패스_37973" data-name="패스 37973" d="M2419.482,374.08c-.3.15-.088.038-.163.073l-.016,0-.032,0c-.256-.023-.708-.054-.97-.075a24.106,24.106,0,0,0-4.094-.067.37.37,0,0,0-.081.026c-.009,0,0,.005.009-.011a8.19,8.19,0,0,1-2.527,1.6c-5.2,2.375-12.251,1.91-14.581-4.111-1.463-3.753-1.084-9.232,2.285-11.863,4.5-3.5,12.21-.919,15.026,3.655a13.436,13.436,0,0,1,1.272,4.041,6.988,6.988,0,0,1,.016,2.61,2.614,2.614,0,0,0,.728,1.182,20.953,20.953,0,0,0,2.291,2.069c.1.081.5.4.609.488l.1.085.053.046.028.025a.2.2,0,0,1,.059.106.213.213,0,0,1-.015.126Zm-.248-.194a.13.13,0,0,0-.015.193c-.038-.033-.125-.1-.166-.134-.474-.363-.978-.744-1.439-1.12a10.285,10.285,0,0,1-2.234-2.265,1.432,1.432,0,0,1-.2-.581,4.58,4.58,0,0,1,.071-.555,7.406,7.406,0,0,0-.125-2,13.048,13.048,0,0,0-1.258-3.845,11.4,11.4,0,0,0-6.507-4.521c-4-1.168-8.479.053-9.918,4.3a11.88,11.88,0,0,0,.119,7.944c2.155,5.738,8.93,6.124,13.874,3.933a9.006,9.006,0,0,0,2.355-1.4c.005-.006-.017.027.049-.07a.356.356,0,0,1,.116-.084,3.916,3.916,0,0,1,1.245-.121c.7.006,1.395.045,2.088.092.321.021,1.243.094,1.558.122.107.007.388.036.5.046-.063.035.155-.072-.116.068Z" transform="translate(-2396.218 -358.023)" fill="#0e484e"/>
        </g>
        <g id="그룹_439" data-name="그룹 439" transform="translate(2.505 5.095)">
          <g id="그룹_437" data-name="그룹 437" transform="translate(0 0)">
            <ellipse id="타원_26" data-name="타원 26" cx="3.18" cy="2.534" rx="3.18" ry="2.534" transform="matrix(0.414, -0.91, 0.91, 0.414, 0, 5.789)" fill="#e0972f"/>
            <path id="패스_37974" data-name="패스 37974" d="M2404.74,375.379a2.283,2.283,0,0,1-.947-.2,2.5,2.5,0,0,1-1.363-1.731,3.987,3.987,0,0,1,1.97-4.333,2.5,2.5,0,0,1,2.2-.11c1.377.627,1.869,2.522,1.095,4.223h0A3.441,3.441,0,0,1,2404.74,375.379Zm.908-6.159a2.325,2.325,0,0,0-1.054.269,3.565,3.565,0,0,0-1.752,3.854,2.084,2.084,0,0,0,1.127,1.449c1.165.53,2.666-.251,3.344-1.741h0c.677-1.49.28-3.133-.886-3.663A1.865,1.865,0,0,0,2405.648,369.221Zm1.856,3.918h0Z" transform="translate(-2401.575 -368.146)" fill="#0c474d"/>
          </g>
          <g id="그룹_438" data-name="그룹 438" transform="translate(2.021 1.061)">
            <path id="패스_37975" data-name="패스 37975" d="M2407.953,369.765a6.243,6.243,0,0,1-1.878,2.547c-1.057.578-1.183,2.812-1.126,3.045" transform="translate(-2404.813 -369.659)" fill="#e0972f"/>
            <path id="패스_37976" data-name="패스 37976" d="M2407.948,369.715a5.563,5.563,0,0,1-1.767,2.614,2.19,2.19,0,0,0-.944,1.363,6.758,6.758,0,0,0-.294,1.547.106.106,0,0,1-.205.05,3.532,3.532,0,0,1,1.046-3.2,3.652,3.652,0,0,0,1.122-1.077,11.3,11.3,0,0,0,.837-1.388.112.112,0,0,1,.2.09Z" transform="translate(-2404.705 -369.565)" fill="#0c474d"/>
          </g>
        </g>
        <g id="그룹_442" data-name="그룹 442" transform="translate(8.738 5.635)">
          <g id="그룹_440" data-name="그룹 440" transform="translate(0 0)">
            <ellipse id="타원_27" data-name="타원 27" cx="3.991" cy="3.18" rx="3.991" ry="3.18" transform="matrix(0.414, -0.91, 0.91, 0.414, 0, 7.266)" fill="#e0972f"/>
            <path id="패스_37977" data-name="패스 37977" d="M2417.462,378.378a2.813,2.813,0,0,1-1.174-.253c-1.7-.774-2.307-3.12-1.348-5.229a4.736,4.736,0,0,1,2.112-2.284,3.083,3.083,0,0,1,2.715-.137c1.7.774,2.307,3.12,1.347,5.229a4.74,4.74,0,0,1-2.113,2.284A3.394,3.394,0,0,1,2417.462,378.378Zm1.131-7.732a2.975,2.975,0,0,0-1.348.343,4.319,4.319,0,0,0-1.92,2.082c-.862,1.9-.352,3.992,1.138,4.67a2.671,2.671,0,0,0,2.348-.129,4.319,4.319,0,0,0,1.92-2.083c.862-1.9.352-3.991-1.138-4.669A2.4,2.4,0,0,0,2418.593,370.646Z" transform="translate(-2413.48 -369.35)" fill="#0c474d"/>
          </g>
          <g id="그룹_441" data-name="그룹 441" transform="translate(2.569 1.358)">
            <path id="패스_37978" data-name="패스 37978" d="M2421.435,371.334s-1.03,2.472-2.357,3.2-1.485,3.529-1.414,3.821" transform="translate(-2417.527 -371.227)" fill="#e0972f"/>
            <path id="패스_37979" data-name="패스 37979" d="M2421.431,371.284a7.016,7.016,0,0,1-2.222,3.245,2.794,2.794,0,0,0-1.2,1.744,7.753,7.753,0,0,0-.347,1.962.106.106,0,1,1-.205.05,5.535,5.535,0,0,1,.566-3.126,2.231,2.231,0,0,1,.752-.835,3.664,3.664,0,0,0,.777-.6,10.492,10.492,0,0,0,1.675-2.525.112.112,0,0,1,.207.086Z" transform="translate(-2417.42 -371.133)" fill="#0c474d"/>
          </g>
        </g>
      </g>
      <path id="패스_37980" data-name="패스 37980" d="M2468.393,371.108a3.907,3.907,0,0,1-1.371-.212,1.735,1.735,0,0,1-1.244-2.458c.47-1.174,1.364-2.429,2.465-2.43h0a2.259,2.259,0,0,1,1.547.829,4.137,4.137,0,0,1,1.178,2.789,1.305,1.305,0,0,1-.661,1.041A3.78,3.78,0,0,1,2468.393,371.108Zm-.149-4.466h0c-.646,0-1.383.8-1.876,2.031-.366.917.032,1.282.9,1.636a3.86,3.86,0,0,0,2.708-.181.68.68,0,0,0,.364-.542,3.542,3.542,0,0,0-1.007-2.315,1.689,1.689,0,0,0-1.085-.629Z" transform="translate(-2428.594 -319.143)" fill="#0c474d"/>
      <path id="패스_37981" data-name="패스 37981" d="M2467.073,368.8a2.472,2.472,0,0,0,3.084,0l.913,1.724-.706,1.153-1.475.332-1.713-.343-.862-.914.26-1.142Z" transform="translate(-2428.93 -320.447)" fill="#0c474d"/>
      <path id="패스_37982" data-name="패스 37982" d="M2477.1,339.168a2.915,2.915,0,0,1,4.206-.993,3.278,3.278,0,0,1,.972,1.193.217.217,0,0,1-.333.261,8.312,8.312,0,0,0-1.082-.8c-1.155-.768-2.48-.209-3.431.631a.225.225,0,0,1-.333-.293Z" transform="translate(-2433.945 -305.899)" fill="#0e484e"/>
      <path id="패스_37983" data-name="패스 37983" d="M2456.173,337.066a2.915,2.915,0,0,1,4.308-.355,3.284,3.284,0,0,1,.782,1.324.216.216,0,0,1-.367.208,8.323,8.323,0,0,0-.951-.951c-1.027-.931-2.421-.576-3.486.114a.225.225,0,0,1-.286-.34Z" transform="translate(-2424.17 -305.097)" fill="#0e484e"/>
    </g>
  </g>
</svg>
