<svg xmlns="http://www.w3.org/2000/svg" xmlns:xlink="http://www.w3.org/1999/xlink" width="330.752" height="300.75" viewBox="0 0 330.752 300.75">
  <defs>
    <clipPath id="clip-path">
      <rect id="사각형_175" data-name="사각형 175" width="292" height="267.773" fill="none"/>
    </clipPath>
  </defs>
  <g id="그룹_1381" data-name="그룹 1381" transform="translate(-58 -123.25)">
    <g id="그룹_1277" data-name="그룹 1277" transform="translate(58 156.227)">
      <g id="그룹_1276" data-name="그룹 1276" clip-path="url(#clip-path)">
        <path id="패스_105116" data-name="패스 105116" d="M168.052,4.376C200.37,3.289,249.6,27.592,259.241,44c12.747,21.705,49.1,84.261,24.293,125.657s-35.673,63.559-77.977,52.251-63.8-6.25-90.031,1.255-81.972-37.528-94.291-74.837-35.35-65.421-9.4-94.037C30.125,34.116,49.544,4.154,78.71,7.639S135.733,5.463,168.052,4.376Z" transform="translate(0 0)" fill="#ece5d6"/>
        <path id="패스_105117" data-name="패스 105117" d="M124.839,383.6s4.751-11.206,6.506-12.128L141.717,358.3l11.019-8.194,12.091-3.506,9.675.981,13.636,5.673,8.834,8.363,6.809,14.089,1.7,8.29s1.18,8.924,0,10.987h6.6l10.707,1.668,8.554,5.022s5.457-3.54,8.876-2.5,13.1,4.235,13.1,4.235,3.108-8.654,4.19-10.276,7.712-10.68,7.712-10.68l10.008-4.817,11.12-.406,10.228,4.406,9.264,10.431,2.937,5.814s6.459,11.032,2.525,18.941l5.814.358,6.41,3.494,5.806,9.989-.869,9.842-7.273,7.023-13.428,2.117-6.8,8.706-11.607,5.777L273.633,462.3l-10.325-4.35-6.687-7.978s.129,10.518-.525,13.2-9.813,10.071-9.813,10.071l-11.647,1.284-9.8,10.33-12.666,6.31-12.09-3.186-14.4-9.351-2.89-3.072-8.369,3.8L162.023,481.8l-10.594-5.074-5.248-5.88s-3.247-7.037-3.64-8.779l-7.911-5.931-3.1-6.489-15.793,4.839-15.442-.446-10.028-3.855L79.6,440.5l-4.624-9.842L73.141,416.03l2.033-11.412,6.573-12.359,10.932-8.474,11.49-2.963,12.35.235Z" transform="translate(-47.279 -223.395)" fill="#fff"/>
        <path id="패스_105118" data-name="패스 105118" d="M204.8,508.27c-5.4,12.352-16.763,22.219-30.649,22.205-12.528.042-27.584-2.921-37.782-10.588a17.45,17.45,0,0,1-5.517-6.653,10.225,10.225,0,0,1-.717-2.885l.662.366a52.873,52.873,0,0,1-11.8,4.135c-10.634,2.489-22.433,1.462-31.705-4.662a31.937,31.937,0,0,1-12.7-15.672c-5.609-14.5-3.189-32.915,7.912-44.175,5.4-5.432,12.047-8.228,19.564-9.147a43.167,43.167,0,0,1,17.083.875,34.44,34.44,0,0,1,22.375,18.32,35.591,35.591,0,0,1,3.408,12.033,38.516,38.516,0,0,1,.073,6.274.265.265,0,1,1-.529-.035,37.937,37.937,0,0,0-.126-6.178,34.422,34.422,0,0,0-15.615-25.336,37.836,37.836,0,0,0-23.493-5.385c-9.827.753-17.659,3.8-24.109,11.534a39.866,39.866,0,0,0-8.317,22.722,43.3,43.3,0,0,0,2.728,18.118,31.742,31.742,0,0,0,8.605,12.474,36.24,36.24,0,0,0,22.456,8.528,51.536,51.536,0,0,0,23.762-5.226.458.458,0,0,1,.662.366,9.315,9.315,0,0,0,.646,2.608,16.572,16.572,0,0,0,5.23,6.3c8.2,6.167,18.77,8.885,28.814,10.059,4.639.431,9.361.761,13.972-.088,11.161-2.069,20.057-10.932,24.582-21.1a.281.281,0,1,1,.522.208" transform="translate(-46.336 -284.067)" fill="#00393d"/>
        <path id="패스_105119" data-name="패스 105119" d="M591.251,449.745a25.445,25.445,0,0,1,16.068-17.879c8.023-2.672,16.946-2.088,23.94,2.944A36.01,36.01,0,0,1,642.631,448.7a34.542,34.542,0,0,1,1.739,4.18.265.265,0,0,1-.5.171c-3.189-7.76-8.465-15.158-16-19.088a24.171,24.171,0,0,0-8.323-2.508,27.241,27.241,0,0,0-17.766,4.272,25.769,25.769,0,0,0-9.973,14.134.281.281,0,1,1-.549-.12" transform="translate(-382.184 -277.339)" fill="#00393d"/>
        <path id="패스_105120" data-name="패스 105120" d="M571.365,549.345c11.478-9.107,23.689-8.488,29.483,6.283a14.419,14.419,0,0,1-4.264,16.811,21.472,21.472,0,0,1-17.268,4.51l.559-.289c-3.505,7.03-10.009,12.733-17.772,14.307a27.564,27.564,0,0,1-9.733.1l-.962-.12c-7.94-1.225-16.155-4.217-21.352-10.672a21.385,21.385,0,0,1-2.2-3.267l.786.081a20.228,20.228,0,0,1-3.716,3.079,25.106,25.106,0,0,1-20.631,2.9,40.668,40.668,0,0,1-10.772-4.817.266.266,0,0,1,.275-.456,41.937,41.937,0,0,0,9.551,4.29c8.583,2.591,18.213,1.008,24.564-5.633a.484.484,0,0,1,.786.081,24.264,24.264,0,0,0,11.053,9.931,44.811,44.811,0,0,0,14.65,3.775c9.141,1.087,17.484-3.238,22.637-10.772a23.944,23.944,0,0,0,1.918-3.235.507.507,0,0,1,.56-.289c8.282,1.543,18.809-2.737,21.146-11.429,1.436-5.757-1.367-11.861-5.158-16.122a12.965,12.965,0,0,0-7.483-4.175c-5.874-.884-11.741,2-16.29,5.547a.282.282,0,1,1-.365-.429" transform="translate(-318.934 -350.202)" fill="#00393d"/>
        <path id="패스_105121" data-name="패스 105121" d="M388.569,668.261a16.112,16.112,0,0,1-7.818,11.319c-4.193,2.294-9.231,2.273-13.791,1.324l.46-.2a43.718,43.718,0,0,1-4.843,6.386c-10.518,11.578-22.536,13.586-36.2,6.061a45.821,45.821,0,0,1-12.317-10.159l.631.136a79.093,79.093,0,0,1-15.193,6.048,14.734,14.734,0,0,1-2.755.43c-5.62.137-12.024-3.46-15.919-7.356a20.382,20.382,0,0,1-3.96-5.611.266.266,0,0,1,.478-.231,20.418,20.418,0,0,0,4.927,6.279c3.916,3.279,9.851,6.448,15.07,5.958a35.615,35.615,0,0,0,7.039-2.034c3.35-1.289,6.641-2.786,9.848-4.4a.514.514,0,0,1,.63.136,43.5,43.5,0,0,0,5.594,5.448,42.871,42.871,0,0,0,9.93,6.176c12.531,5.373,22.395,2.252,31.524-7.508a42.91,42.91,0,0,0,4.775-6.2.43.43,0,0,1,.46-.2c4.4.935,9.206,1.021,13.269-1.123a15.483,15.483,0,0,0,7.608-10.753.281.281,0,1,1,.555.082" transform="translate(-178.949 -430.503)" fill="#00393d"/>
        <path id="패스_105200" data-name="패스 105200" d="M0,0,45.749-.02V2.1L0,2.121Z" transform="translate(99.945 238.459) rotate(-84.914)" fill="#e37d00"/>
        <path id="패스_105201" data-name="패스 105201" d="M0,0H2.121l0,29.583H0Z" transform="translate(78.249 198.64) rotate(-0.795)" fill="#e37d00"/>
        <path id="패스_105202" data-name="패스 105202" d="M0,0H2.121L2.109,25.954H-.012Z" transform="translate(47.99 204.292) rotate(-5.322)" fill="#e37d00"/>
        <path id="패스_105203" data-name="패스 105203" d="M0,0,47.553-.013V2.108L0,2.121Z" transform="translate(125.496 234.986) rotate(-86.952)" fill="#e37d00"/>
        <path id="패스_105204" data-name="패스 105204" d="M0,0H2.121L2.1,47.115H-.018Z" transform="matrix(0.997, -0.077, 0.077, 0.997, 154.18, 179.945)" fill="#e37d00"/>
        <path id="패스_105205" data-name="패스 105205" d="M0,0H2.12L2.092,47.076H-.028Z" transform="translate(180.573 170.936) rotate(-6.9)" fill="#e37d00"/>
        <path id="패스_105206" data-name="패스 105206" d="M0,0,2.12,0,2.067,45.607l-2.12,0Z" transform="translate(207.175 160.136) rotate(-13.775)" fill="#e37d00"/>
        <path id="패스_105207" data-name="패스 105207" d="M0,0,2.12,0,2.068,43.1l-2.12,0Z" transform="translate(235.22 148.165) rotate(-14.136)" fill="#e37d00"/>
        <path id="패스_105208" data-name="패스 105208" d="M0,0,2.12,0,2.063,41.353l-2.12,0Z" transform="translate(258.779 136.335) rotate(-16.368)" fill="#e37d00"/>
        <path id="패스_105122" data-name="패스 105122" d="M76.65,420a809.477,809.477,0,0,0,151-36.142c14.749-5.1,29.91-11.042,44.205-17.339,7.552-3.282,16.065-7.381,23.429-11.037,2.735-1.434,6.829-3.574,9.558-5.01,1.568-.789,7.836-4.37,9.432-5.24,2.238-1.211,5.244-3.08,7.434-4.386,2-1.2,5.4-3.222,7.341-4.54l7.242-4.7a1.211,1.211,0,0,1,1.712.339,1.223,1.223,0,0,1-.353,1.679l-7.255,4.795c-3.29,2.227-7.667,4.8-11.063,6.906-2.342,1.465-8.786,5.066-11.294,6.514-3.478,1.919-7.984,4.232-11.51,6.115-47.792,24.2-99.261,40.359-151.4,51.932-22.577,4.939-45.315,9.076-68.285,11.828A.863.863,0,1,1,76.65,420" transform="translate(-49.051 -213.59)" fill="#003a3f"/>
        <path id="패스_105123" data-name="패스 105123" d="M272.225,534.592c17.1-1.552,34.007-5.328,50.581-9.794a450.638,450.638,0,0,0,72.515-27.049c9.5-4.444,19.548-9.682,28.752-14.721,3.216-1.785,6.628-3.768,9.837-5.583,2.508-1.5,7.213-4.318,9.711-5.8,4.185-2.625,9.554-5.913,13.649-8.662l5.408-3.549a1.209,1.209,0,0,1,1.7.339,1.223,1.223,0,0,1-.341,1.679l-5.393,3.627c-4.079,2.806-9.441,6.173-13.622,8.859a460.5,460.5,0,0,1-96.694,45.788,353.2,353.2,0,0,1-63.056,15.245c-4.3.583-8.585,1.089-12.957,1.35a.863.863,0,1,1-.089-1.724" transform="translate(-175.438 -295.98)" fill="#003a3f"/>
        <path id="패스_105124" data-name="패스 105124" d="M387.573,537.352c-.83-.684-10.654,2.105-15.482-6.157s-12.657-3.543-12.99,0,3.211,1.441,4.185.985,5.094-.352,7.175,1.8c4.682,4.839,13.725,6.652,16.768,5.746" transform="translate(-232.111 -339.413)" fill="#003a3f"/>
        <path id="패스_105125" data-name="패스 105125" d="M331.125,494.144l-.671,1.878-9.344-2.942-1.4-1.2.263-2.036.565-.805Z" transform="translate(-206.663 -315.203)" fill="#fff"/>
        <path id="패스_105126" data-name="패스 105126" d="M323.245,510.528l.337,2.587-.629,2.688-2.757,1.35-1.258,1.348-1.545,1.147a16.108,16.108,0,0,1-2.628.146,12.105,12.105,0,0,0-2.019-1.244l-1.339-1.939-3.055-3.086-2.119-3.328,1.466-3.64,2.248-1.625Z" transform="translate(-197.951 -325.445)" fill="#fff"/>
        <path id="패스_105127" data-name="패스 105127" d="M550.121,450.358l-3.068-2.877-.308-3.245,2.08,1.283,1.561,2.219Z" transform="translate(-353.42 -286.324)" fill="#fff"/>
        <path id="패스_105128" data-name="패스 105128" d="M495.793,471.26l19.243.518.322,1.755.207,1.05-1.512.792-4.408.822-4.683,1.283-5.71.361Z" transform="translate(-320.484 -303.742)" fill="#fff"/>
        <path id="패스_105129" data-name="패스 105129" d="M388.218,576.3c-.016.081-1.637,5.045-1.736,5.257-1.012,2.17-6.207,10.3-12.491,5.623l-7.511-6.654s-3.25,7.006-6.432,5.982-6.858-4.632-2.567-14.309,8.039-5.256,8.039-5.256l5.87,5.519,4.17-.3Z" transform="translate(-229.819 -364.765)" fill="#fff"/>
        <path id="패스_105130" data-name="패스 105130" d="M376.6,588.032a7.186,7.186,0,0,1-4.322-1.568c-.016-.012-.032-.025-.047-.038l-6.823-6.045c-.954,1.805-3.3,5.654-6,5.655a2.824,2.824,0,0,1-.87-.138,6.946,6.946,0,0,1-4.312-3.782c-1.257-2.823-.815-6.69,1.316-11.494,1.819-4.1,3.826-6.339,5.967-6.649a3.769,3.769,0,0,1,3.223,1.184l5.622,5.286,3.863-.276a.689.689,0,0,1,.268.033l12.657,4.135a.712.712,0,0,1,.475.817c-.042.208-1.7,5.22-1.789,5.418-.783,1.678-3.681,6.253-7.637,7.257a6.432,6.432,0,0,1-1.593.2m-3.457-2.694a5.436,5.436,0,0,0,4.7,1.112c3.406-.865,6.046-5.076,6.7-6.483.1-.246,1.056-3.167,1.487-4.5L374.177,571.6l-4.033.288a.7.7,0,0,1-.533-.19l-5.87-5.519a.789.789,0,0,1-.055-.058,2.348,2.348,0,0,0-1.994-.734c-1.116.171-2.865,1.318-4.86,5.818-1.96,4.419-2.4,7.9-1.317,10.334a5.508,5.508,0,0,0,3.453,3.009c2.114.681,4.8-3.936,5.576-5.606a.705.705,0,0,1,1.109-.233Z" transform="translate(-228.522 -363.475)" fill="#00393e"/>
        <path id="패스_105131" data-name="패스 105131" d="M507.608,524.04c-.313.318-6.215-10.169-7.489-9.743,0,0-8.867,6.625-7.876,14.317l.5,1.875a20.935,20.935,0,0,1,8.109,5.968c.966,1.271,1.921,2.532,2.893,3.805a8.525,8.525,0,0,0,2.241,2.2c1.829,1.113,3.48.32,5.245-.486a12.409,12.409,0,0,0,3.38-2.246,15.647,15.647,0,0,0,3.614-5.579c.987-2.475,1.935-5.694,1.363-8.369-.416-1.949-1.776-4.116-3.729-4.794a6.815,6.815,0,0,0-5.482.722,15.07,15.07,0,0,0-2.771,2.329" transform="translate(-318.139 -331.473)" fill="#fff"/>
        <path id="패스_105132" data-name="패스 105132" d="M506.583,542.427a4.236,4.236,0,0,1-2.251-.657A9.261,9.261,0,0,1,501.9,539.4c-.7-.92-1.4-1.834-2.092-2.75l-.8-1.056a20.367,20.367,0,0,0-7.8-5.736.709.709,0,0,1-.43-.479l-.5-1.875a.7.7,0,0,1-.019-.094c-.43-3.341.855-7,3.717-10.579a27.086,27.086,0,0,1,4.439-4.4.706.706,0,0,1,.2-.1c1.077-.361,2.238.965,6.211,7.093.544.84,1.14,1.759,1.524,2.3a14.033,14.033,0,0,1,2.381-1.913,7.547,7.547,0,0,1,6.082-.787c2.278.791,3.746,3.24,4.189,5.316.487,2.281.016,5.236-1.4,8.783a16.213,16.213,0,0,1-3.785,5.831,13.183,13.183,0,0,1-3.573,2.376l-.105.048a8.768,8.768,0,0,1-3.548,1.056m-14.536-13.762a21.273,21.273,0,0,1,8.079,6.06l.8,1.057c.695.915,1.388,1.828,2.09,2.747a7.867,7.867,0,0,0,2.047,2.023c1.4.853,2.616.375,4.48-.477l.106-.048a11.749,11.749,0,0,0,3.186-2.115,14.806,14.806,0,0,0,3.444-5.326c1.308-3.28,1.755-5.956,1.328-7.955-.349-1.631-1.52-3.664-3.268-4.271a6.069,6.069,0,0,0-4.883.657,14.507,14.507,0,0,0-2.637,2.222.755.755,0,0,1-.6.214c-.484-.049-.629-.232-2.594-3.262-1.224-1.888-3.691-5.693-4.65-6.411-1.442,1.169-8.126,6.967-7.333,13.4Zm14.271-5.925h0Z" transform="translate(-316.85 -330.174)" fill="#00393e"/>
        <path id="패스_105133" data-name="패스 105133" d="M506.819,522.553s-8.13.63-8.853,10.071l-3.277-1.744-1.464-1.029-.459-4.46,1.845-4.518,3.434-4.274,3.04-2.249,3.979,5.508Z" transform="translate(-318.527 -331.516)" fill="#00393e"/>
        <path id="패스_105134" data-name="패스 105134" d="M395.031,583.042s-.159,6.478-4.371,9.434l6.768,5.837,3.635.941,2.279-.676,3.516-2.867,2.968-5.385.37-3.379-3.39.168-3.459-.168-3.177-1.964-2.337-2.532Z" transform="translate(-252.525 -375.408)" fill="#00393e"/>
        <path id="패스_105135" data-name="패스 105135" d="M438.017,506.534s3.961-1.173,6.942,1.4c0,0,2.567-.9,2.227.689s-11.092,7.16-7.684,16.7a2.336,2.336,0,0,1-2.491.27c-1.157-.759-9.158,3.945-9.158,3.945s-4.048,3.965-4.372,6.18c0,0,1.171,3.016-1.751,2.111a12.783,12.783,0,0,1-11.931-4.4s2.322-5.011,1.977-6.595a50.822,50.822,0,0,0-1.574-4.854,14.464,14.464,0,0,0,8.725-.252l3.141-1.191,5.435-3.714,1.539-2.461,2.1-2.415,4.29-3.711Z" transform="translate(-264.897 -326.305)" fill="#fff"/>
        <path id="패스_105136" data-name="패스 105136" d="M418.328,537.435A13.376,13.376,0,0,1,407.97,532.6a.714.714,0,0,1-.105-.764c.922-1.991,2.13-5.213,1.927-6.143-.329-1.514-1.533-4.722-1.544-4.754a.714.714,0,0,1,.147-.74.7.7,0,0,1,.726-.19,13.847,13.847,0,0,0,8.249-.233l3.077-1.167,5.243-3.583,1.46-2.336a.722.722,0,0,1,.066-.09l2.1-2.415a.777.777,0,0,1,.071-.071l4.29-3.711a.709.709,0,0,1,.074-.055l2.586-1.7a.709.709,0,0,1,.188-.088,8.709,8.709,0,0,1,7.295,1.293,2.729,2.729,0,0,1,2.384.205,1.4,1.4,0,0,1,.382,1.425c-.132.613-.779,1.191-1.955,2.24-2.857,2.549-8.176,7.295-5.755,14.068a.713.713,0,0,1-.235.8,2.947,2.947,0,0,1-3.259.333c-.861-.116-4.988,1.894-8.389,3.887-1.085,1.074-3.695,3.93-4.074,5.555a2.68,2.68,0,0,1-.238,2.538,2.146,2.146,0,0,1-2.275.361,11.834,11.834,0,0,1-2.078.171m-8.987-5.425a11.953,11.953,0,0,0,10.942,3.829.711.711,0,0,1,.362.014c.682.211.957.128,1,.082a1.857,1.857,0,0,0-.115-1.256.727.727,0,0,1-.04-.36c.349-2.385,4.147-6.164,4.578-6.587a.7.7,0,0,1,.136-.1c5.56-3.268,8.89-4.588,9.9-3.926a1.308,1.308,0,0,0,1.251,0c-2.271-7.366,3.305-12.342,6.336-15.046a10.128,10.128,0,0,0,1.519-1.506.4.4,0,0,0,.006-.04,3.233,3.233,0,0,0-1.317.2.7.7,0,0,1-.694-.132,7.253,7.253,0,0,0-6.19-1.282l-2.45,1.615-4.217,3.648-2.03,2.334-1.509,2.414a.708.708,0,0,1-.2.21l-5.435,3.714a.686.686,0,0,1-.148.077l-3.141,1.191a14.426,14.426,0,0,1-7.859.582,37.22,37.22,0,0,1,1.151,3.707c.333,1.534-1.2,5.2-1.834,6.621m16.869-16.48h0Z" transform="translate(-263.604 -325.009)" fill="#00393e"/>
        <path id="패스_105137" data-name="패스 105137" d="M408.447,490.276l4.246.918,5.867-1.481,4.705-1.844,3.11-1.925,3.483-1.967,4.6-3.374,4.436-4.351.829-1.224-3.305-2.34-7.127-11-1.047-1.472L417.44,458.4l-9.575-1-1.959.763.93,1.394,3.072-.584,9.343,1.949.234,1.4-.292,7.483-1.026,7.811,3.654,8.427-4.963,2.289-7.649.118-1.521-.118Z" transform="translate(-262.38 -294.811)" fill="#fff"/>
        <path id="패스_105138" data-name="패스 105138" d="M510.55,454.958s1.61,2.6,2.328,1.229c1.221-2.335-5.6-7.384-7.425-11.906-.559-1.382-1.272-.034-1.56,1.07-.377,1.446.125,2.1-.088,1.93-.832-.654-14.142,4.753-14.529,7.079" transform="translate(-316.272 -285.974)" fill="#fff"/>
        <path id="패스_105139" data-name="패스 105139" d="M509.98,453.625c.383.42,1.052,1.191,1.476,1.231a1.36,1.36,0,0,0-.078-1.209,18.953,18.953,0,0,0-2.753-3.78,28.363,28.363,0,0,1-4.53-6.326,2.853,2.853,0,0,0-.2-.413c-.019-.03-.03-.013.06.024a.33.33,0,0,0,.252-.013,1.669,1.669,0,0,0-.277.449,3.518,3.518,0,0,0-.261,2.421.76.76,0,0,1-.006.261.751.751,0,0,1-.232.389.69.69,0,0,1-.882-.009.5.5,0,0,0,.16.083c.057.011-.025,0-.088.011a31.335,31.335,0,0,0-5.811,2.008,48.776,48.776,0,0,0-6.416,3.182,3.961,3.961,0,0,0-1.531,1.4.46.46,0,0,1-.892-.212c.215-1,1.062-1.543,1.773-2.133a40.232,40.232,0,0,1,11.151-5.248,8.784,8.784,0,0,1,1.622-.345,1.252,1.252,0,0,1,.85.194.644.644,0,0,0-.783.036.705.705,0,0,0-.225.371.6.6,0,0,0-.008.2c.008.044-.012-.058-.012-.058-.313-1.159.242-3.959,1.591-4.239a1.2,1.2,0,0,1,1.2.834c1.643,4,5.42,6.577,7.367,10.428.972,1.967-.745,4.066-2.4,1.915a6.057,6.057,0,0,1-.676-1.112.326.326,0,0,1,.55-.344" transform="translate(-315.426 -284.813)" fill="#003a3f"/>
        <path id="패스_105140" data-name="패스 105140" d="M488.112,484.289s17.4-.915,22.683-4.425" transform="translate(-315.519 -309.288)" fill="#fff"/>
        <path id="패스_105141" data-name="패스 105141" d="M487.538,483.649c3.834-.432,7.68-.911,11.475-1.592,3.521-.573,7.109-1.065,10.389-2.526.214-.127,1.036-.346.94.176-.207.555-.733.707-1.182.972a20.694,20.694,0,0,1-4.184,1.538,55.389,55.389,0,0,1-11.566,1.834c-1.944.136-3.885.234-5.837.247a.326.326,0,0,1-.034-.65" transform="translate(-314.962 -308.973)" fill="#003a3f"/>
        <path id="패스_105142" data-name="패스 105142" d="M440.577,428.688s15.334,6.5,18.394,12.879a59.939,59.939,0,0,0,9.755,14.439s-8.818,4.067-11.341,2.7c-12.979-7.02-8.093-13.486-10.227-21.568a13.359,13.359,0,0,0-6.581-8.451" transform="translate(-284.792 -276.303)" fill="#003a3f"/>
        <path id="패스_105143" data-name="패스 105143" d="M182.777,194.119c-3.839-1.468-13.623-5.5-13.1-10.506a6.41,6.41,0,0,1,.184-.742c1.249-3.608,4.025-6.355,6.045-9.472a7.051,7.051,0,0,0,1.408-3.542,5.274,5.274,0,0,0-1.109-2.836c-1.082-1.1-2.9-.491-4.257-.141-1.664.482-3.29,1.237-4.989,1.626a31.872,31.872,0,0,1-5.261.836c-2.563.186-10.63.483-9.364-3.841a18.793,18.793,0,0,1,6.52-8.474,15.723,15.723,0,0,1,10.1-3.026.356.356,0,0,1-.021.711,16.631,16.631,0,0,0-4.992.814,15.233,15.233,0,0,0-4.43,2.391,18.076,18.076,0,0,0-5.93,8.009.905.905,0,0,0,0,.75c1.266,1.666,6.008,1.4,8.012,1.264a34.318,34.318,0,0,0,5.037-.8c1.7-.386,3.257-1.113,4.94-1.588,1.759-.508,4.178-1.044,5.619.531a6.2,6.2,0,0,1,1.292,2.619,4.274,4.274,0,0,1,.175,1.144c-.08,2.517-1.812,4.531-3.212,6.435-1.717,2.27-3.6,4.417-4.533,7.109a2.455,2.455,0,0,0,0,1.439c.988,2.863,4.888,4.984,7.442,6.4,1.529.8,3.1,1.541,4.7,2.185a.376.376,0,0,1-.268.7" transform="translate(-98.383 -99.247)" fill="#003a3f"/>
        <path id="패스_105144" data-name="패스 105144" d="M335.64,314.415,225.02,258.372l4.329-4.385,109.64,58.955Z" transform="translate(-145.454 -163.703)" fill="#fff"/>
        <path id="패스_105145" data-name="패스 105145" d="M334.67,313.981a.528.528,0,0,1-.239-.057l-110.62-56.043a.535.535,0,0,1-.138-.852L228,252.644a.528.528,0,0,1,.627-.095L338.268,311.5a.534.534,0,0,1-.037.959l-3.347,1.473a.528.528,0,0,1-.213.045M224.941,257.259l109.745,55.6,2.118-.932L228.477,253.677Z" transform="translate(-144.484 -162.736)" fill="#003a3f"/>
        <path id="패스_105146" data-name="패스 105146" d="M467.525,448.2a12.631,12.631,0,0,1,4.842,4.364,57.416,57.416,0,0,1,2.913,5.616c1.81,3.705,4.031,7.845,3.277,12.148a.347.347,0,0,1-.688-.076c.135-4.164-2.1-7.774-3.88-11.424-.945-1.8-1.611-3.811-2.735-5.514a11.943,11.943,0,0,0-4.2-4.068.575.575,0,0,1,.474-1.046" transform="translate(-301.699 -288.845)" fill="#003a3f"/>
        <path id="패스_105147" data-name="패스 105147" d="M417.822,459.692c-.563,6.063-3.638,17.028,3.242,24.39a33,33,0,0,1-19.5,1.8s1.737-15.119,4.5-30.919c.178-1.015-1.312-3.85,5.611-1.621,2.089.673,6.358,4.153,6.154,6.349" transform="translate(-259.571 -291.657)" fill="#00393e"/>
        <path id="패스_105148" data-name="패스 105148" d="M537.069,420.52l5.477-2.812s8.731,16.557,10.021,17.356,1.761-.11,2.037.832-5.953,4.7-6.041,3.454.326-2.62-.316-3.1-11.177-15.727-11.177-15.727" transform="translate(-347.165 -269.226)" fill="#fff"/>
        <path id="패스_105149" data-name="패스 105149" d="M547.929,439.16a1.012,1.012,0,0,1-.377-.063.771.771,0,0,1-.488-.675,10.1,10.1,0,0,1,.021-1.312c.033-.557.076-1.251-.125-1.4-.66-.5-8.812-12.257-11.294-15.85a.535.535,0,0,1,.194-.779l5.477-2.811a.53.53,0,0,1,.71.225c3.309,6.275,8.906,16.481,9.835,17.155a1.658,1.658,0,0,0,1.069.281,1.031,1.031,0,0,1,1.193.852c.16.545-.332,1.083-.778,1.491-1.057.966-4.031,2.89-5.436,2.89m-11.047-19.41c4.129,5.968,10.156,14.579,10.732,15.119.639.48.583,1.408.529,2.3-.019.306-.038.62-.032.923,1.088-.153,4.6-2.31,4.986-3.1v0l-.112,0a2.691,2.691,0,0,1-1.664-.443c-1.281-.794-8.061-13.494-9.966-17.1Z" transform="translate(-346.196 -268.26)" fill="#003a3f"/>
        <path id="패스_105150" data-name="패스 105150" d="M569.831,445.978s1.52-.064,1.468,1.892a4.108,4.108,0,0,1-3.5,3.529c-1.178-.052-2.117-1.222-.792-2.823a14.719,14.719,0,0,1,2.822-2.6" transform="translate(-366.101 -287.447)" fill="#fff"/>
        <path id="패스_105151" data-name="패스 105151" d="M568.714,445.063c1.668-.069,2.206,1.724,1.836,3.085-.536,1.846-2.9,4.011-4.876,2.995-1.373-.707-1.18-2.474-.256-3.449a11.037,11.037,0,0,1,3.3-2.631m.151.63a20.806,20.806,0,0,0-2.541,2.724c-.683.862-.555,1.785.536,1.776a3.9,3.9,0,0,0,2.6-1.945c.46-.8.532-2.347-.624-2.522-.014,0-.052-.006-.066-.008s-.017,0,0,0a.257.257,0,0,0,.093-.023" transform="translate(-365.016 -286.856)" fill="#003a3f"/>
        <path id="패스_105152" data-name="패스 105152" d="M561.358,438.338a4.673,4.673,0,0,1-2.529,2.328c-1.243.449.576,4.393,3.7,1.514s2.191-3.908,1.187-4.875-2.13.348-2.362,1.034" transform="translate(-360.976 -281.636)" fill="#fff"/>
        <path id="패스_105153" data-name="패스 105153" d="M560.771,437.579a4.977,4.977,0,0,1-2.684,2.656c-.032.029-.031.03-.056.114a1.449,1.449,0,0,0,1.242,1.43c1.1.108,2.126-1.066,2.869-1.851l.354-.416c.809-1.026.973-1.733.064-2.59a1.009,1.009,0,0,0-.44-.33c-.467-.123-1.2.566-1.348.986m-.6-.206c.294-1.193,1.726-2.327,2.861-1.434a4.8,4.8,0,0,1,.946.963c.928,1.311-.006,2.871-.914,3.857a7.3,7.3,0,0,1-2.507,1.963,2.521,2.521,0,0,1-2.761-.522,2.029,2.029,0,0,1-.459-2.534c.374-.4.952-.412,1.384-.762a4.528,4.528,0,0,0,1.449-1.532" transform="translate(-360.08 -280.77)" fill="#003a3f"/>
        <path id="패스_105154" data-name="패스 105154" d="M554.618,428.125a4.056,4.056,0,0,1-2.406,2.215c-1.217.389.793,4.449,3.769,1.709s1.991-3.822.942-4.846-2.107.243-2.3.921" transform="translate(-356.72 -275.098)" fill="#fff"/>
        <path id="패스_105155" data-name="패스 105155" d="M554.068,427.363a4.441,4.441,0,0,1-2.589,2.567c.009,0,0,.011-.012.118a1.752,1.752,0,0,0,1.346,1.5c1.088.19,2.078-.954,2.789-1.728.748-.872,1.356-1.808.376-2.778-.106-.122-.231-.263-.352-.376-.288-.289-.573-.3-.966-.029a1.656,1.656,0,0,0-.593.729m-.611-.179c.266-1.253,1.706-2.265,2.829-1.319a3.883,3.883,0,0,1,1.27,1.569c.492,1.42-.534,2.7-1.44,3.648-.89.936-2.136,1.9-3.538,1.564-1.258-.3-2.472-1.82-1.935-3.125.165-.385.645-.487.957-.607a3.929,3.929,0,0,0,1.856-1.728" transform="translate(-355.856 -274.244)" fill="#003a3f"/>
        <path id="패스_105156" data-name="패스 105156" d="M544.214,444.7s.611-2.619,1.5-.294,2.552,1.458,1.524,2.755c-.886,1.118-1.658,2.338-2.221,1.6-1.565-2.043-6.616-6.4-6.258-9.11.246-1.856,2.86-2.7,4.621-2.805,1.839-.111,3.614,1.25,2.267,2.489-2.182,2.008-4.043,1.127-4.043,1.127" transform="translate(-348.249 -281.558)" fill="#fff"/>
        <path id="패스_105157" data-name="패스 105157" d="M542.743,443.617a2.316,2.316,0,0,1,.758-1.471c.475-.306,1,.181,1.166.516a4.86,4.86,0,0,0,1.105,1.727,4.208,4.208,0,0,0,.634.406,1.225,1.225,0,0,1,.353.291.808.808,0,0,1,.125.716,3.2,3.2,0,0,1-.527.874c-.583.721-1.208,2.075-2.358,1.872-.422-.093-.644-.487-.891-.767-.23-.27-.474-.541-.722-.811a40.011,40.011,0,0,1-4.368-5.175,6.834,6.834,0,0,1-.98-2.24c-.456-1.91,1.28-3.392,2.9-3.855,1.553-.487,3.362-.743,4.766.323a1.828,1.828,0,0,1,.751,1.286c.048,1.316-1.632,2.158-2.7,2.532a3.551,3.551,0,0,1-2.425-.1.31.31,0,0,1,.222-.577,3.047,3.047,0,0,0,1.965-.065,4.806,4.806,0,0,0,1.687-1.113c.437-.448.359-.779-.12-1.135-1.429-1-4.247-.168-5.4.962-2.015,1.97,3.285,6.762,4.6,8.33.362.395.738.816,1.07,1.247l.011.015c.012.014,0-.005-.056-.019a.127.127,0,0,0-.082,0,2.382,2.382,0,0,0,.589-.531,16.22,16.22,0,0,0,1.1-1.344.613.613,0,0,0,0,.069.276.276,0,0,0,.049.12c.033.032-.012-.017-.077-.055a3.508,3.508,0,0,1-1.487-1.561,5.938,5.938,0,0,0-.6-1.263c.006.007.078,0,.067-.008a2.125,2.125,0,0,0-.485.956.328.328,0,0,1-.638-.15" transform="translate(-347.097 -280.551)" fill="#003a3f"/>
        <path id="패스_105158" data-name="패스 105158" d="M348.109,518.558c.909,1.878,1.592,4.314.378,6.245a3.337,3.337,0,0,1-3.752,1.03.317.317,0,0,1,.062-.619c2.782-.176,3.373-1.547,3.1-4.146a19.351,19.351,0,0,0-.4-2.282.33.33,0,0,1,.612-.227" transform="translate(-222.694 -334.115)" fill="#00393e"/>
        <path id="패스_105159" data-name="패스 105159" d="M308.423,505.224c-1.154,1.274-2.433,2.824-2.693,4.525-.249,1.806,1.281,2.952,2.685,3.874a.316.316,0,0,1-.249.57c-2.029-.468-4.076-2.3-3.647-4.614a6.21,6.21,0,0,1,1.325-2.824,10.03,10.03,0,0,1,2.166-2.041.327.327,0,0,1,.457.085.333.333,0,0,1-.044.426" transform="translate(-196.807 -325.266)" fill="#00393e"/>
        <path id="패스_105160" data-name="패스 105160" d="M315.007,522.4c-.733,2.595-.548,4.361,2.064,5.607a.322.322,0,0,1-.153.6,3.537,3.537,0,0,1-3.308-4.63c.106-.417.693-2.387,1.273-1.969a.336.336,0,0,1,.124.39" transform="translate(-202.63 -336.417)" fill="#00393e"/>
        <path id="패스_105161" data-name="패스 105161" d="M324.079,527.012a.719.719,0,0,1-.075.3,13.512,13.512,0,0,0-.577,1.961c-.25,1.25-.344,2.8.657,3.673a3.321,3.321,0,0,0,4.93-1.024,13.9,13.9,0,0,0,1.8-3.9.311.311,0,0,1,.61.1c-.257,3.056-2.115,7.166-5.761,6.714-4.075-.553-3.979-4.458-2.47-7.426.065-.128.176-.35.245-.475.019-.045-.03.068-.011.13a.328.328,0,0,1,.652-.061" transform="translate(-208.295 -339.486)" fill="#00393e"/>
        <path id="패스_105162" data-name="패스 105162" d="M321.275,466.832s5.99-12.162,11.643-12.842a29.72,29.72,0,0,1,11.494.791c2.784.638,11.848,3.582,13.575,5.195,3.367,3.143.878,13.429-2.066,13.374-2.407-.044-11.714-5.037-17.67-7.1-1.327-.459-3.062,7-2.923,7.925" transform="translate(-207.675 -292.458)" fill="#fff"/>
        <path id="패스_105163" data-name="패스 105163" d="M320.251,465.567c2.179-4.3,5.862-10.7,10.321-12.787a16.281,16.281,0,0,1,5.58-.73,36.171,36.171,0,0,1,10.842,1.856,79.183,79.183,0,0,1,7.735,2.774c1.874.8,3.7,1.655,4.359,3.8,1.219,3.235.281,10.378-2.895,12.222a2.5,2.5,0,0,1-1.764.117,18.676,18.676,0,0,1-2.676-.9c-.852-.342-1.689-.7-2.52-1.072-3.947-1.741-7.753-3.682-11.771-5.169-.022-.007-.063-.025-.068-.025a.1.1,0,0,0,.084,0c-.007.013-.006,0-.028.016s-.04.023-.067.053a7.1,7.1,0,0,0-1.126,2.2,23.009,23.009,0,0,0-1.269,5.1.361.361,0,0,1-.333.423.353.353,0,0,1-.366-.317,6.292,6.292,0,0,1,.116-1.475,21.568,21.568,0,0,1,1.785-6.016c.277-.541.9-1.264,1.617-.961,4.08,1.417,8.018,3.264,11.95,4.958a28.5,28.5,0,0,0,5.232,1.9l.26.032a.826.826,0,0,0,.342-.1c2.394-1.642,3.18-7.918,2.189-10.52-.524-1.761-2.069-2.318-3.6-3.013-.81-.361-1.647-.685-2.483-1.007a75.324,75.324,0,0,0-8.978-2.808,28.371,28.371,0,0,0-9.235-.768,9.827,9.827,0,0,0-1.9.263,7.913,7.913,0,0,0-2.732,1.565,28.292,28.292,0,0,0-5.173,6.083c-.991,1.5-1.93,3.051-2.766,4.635a.375.375,0,0,1-.671-.334" transform="translate(-206.986 -291.36)" fill="#00393e"/>
        <path id="패스_105164" data-name="패스 105164" d="M317.23,491.307c-1.88.385-.131,2.8-.776,2.748s-1.126,1.415-1.126,1.415c3.813,3.855,15.11,6.369,15.993,6.273s-.162-1.431-.367-1.568,1.352-.43.813-1.114a11.35,11.35,0,0,0-3.978-2.554" transform="translate(-203.83 -316.663)" fill="#fff"/>
        <path id="패스_105165" data-name="패스 105165" d="M316.409,491.039c-.86.18-.579,1.018-.379,1.707a1.136,1.136,0,0,1,.024.888.567.567,0,0,1-.519.262,2.394,2.394,0,0,0-.639,1.135l-.115-.491a11.78,11.78,0,0,0,2.524,1.766,47.886,47.886,0,0,0,12.743,4.218c.126.024.286.031.328.042a.283.283,0,0,0-.125.106.256.256,0,0,0-.05.145c0,.015,0-.007-.006-.036a2.159,2.159,0,0,0-.518-.8.6.6,0,0,1,0-.848,3.962,3.962,0,0,1,.7-.4c.177-.111.08-.1.1.038a11.171,11.171,0,0,0-3.681-2.567.313.313,0,0,1-.154-.422.309.309,0,0,1,.374-.16,13.372,13.372,0,0,1,3,1.424,5.7,5.7,0,0,1,1.343,1.193c.557.88-.406,1.467-.913,1.691a.535.535,0,0,0,0-.758c.3.233,1.3,1.413.762,2.173-.544.689-1.449.305-2.145.231a47.463,47.463,0,0,1-9.345-2.86,17.842,17.842,0,0,1-5.632-3.52.445.445,0,0,1-.1-.472,3.938,3.938,0,0,1,.745-1.3,1.1,1.1,0,0,1,.867-.39.313.313,0,0,0-.266.154.228.228,0,0,0-.035.1c-.111-.749-.569-1.912.225-2.572.311-.233.995-.573,1.135-.056a.33.33,0,0,1-.249.378" transform="translate(-202.944 -316.072)" fill="#00393e"/>
        <path id="패스_105166" data-name="패스 105166" d="M428.095,296.524l-4.639-4.7-6.262-3.814-3.34.053s-2.234,1.928-2.46,2.039-10.283,7.256-10.283,7.256-5.586,3.1-6.19,3.4-4.713,2.211-5.429,2.468-4.858,1.725-5.348,1.871-7.867,2.452-7.867,2.452l-2.864,1.215.479,7.849,3.092,5.55s8.687-1.924,9.138-1.959,13.436-.436,13.7-.472,3.749.211,3.749.211l7.236-2.979s3.428-3.928,3.743-4.024a18.3,18.3,0,0,0,1.928-3.486c.116-.336,4.46-6.547,4.46-6.547s2.5-2.525,2.995-2.858,4.165-3.522,4.165-3.522" transform="translate(-241.376 -185.632)" fill="#fff"/>
        <path id="패스_105167" data-name="패스 105167" d="M383.675,324.325l-11.721,6.9c-30.375-2.768-45.19,13.193-45.19,13.193l8.377.039c-1.957.957-7.668,3.115-8.134,3.321.751,1.194,9.173,2.63,9.173,2.63l-6.971,2.4a.106.106,0,0,0-.02.192c4.5,2.565,10.011,3.761,15.017,4.822,17.076,3.62,34.849-2.519,49.428-11.256,8.778-5.26,16.851-11.629,22.251-20.439,2.6-4.238,4.709-9.63,2.588-14.479-2.494-5.7-10.286-7.062-15.7-5.578-8.668,2.375-15.483,10.319-19.1,18.256" transform="translate(-211.223 -196.912)" fill="#fff"/>
        <path id="패스_105168" data-name="패스 105168" d="M269.266,258.865c-20.562,8.855-47.449-10.864-31.7-32.946,4.82-6.759,13.091-9.967,20.42-13.2,12.423-5.472,21.282-9.293,36.918-28.852s31.035-17.122,31.035-17.122,17.747,1.079,23.764,16.447-7.866,31.81-7.866,31.81-16.488,19.7-72.571,43.858" transform="translate(-150.504 -107.413)" fill="#fff"/>
        <path id="패스_105169" data-name="패스 105169" d="M371.943,447.455c-3.485-.454-6.049-3.242-12.059-2.776-5.332.413-8.3,2.209-10.73,2.6-1.611.258-4.29,1.116-6.114,1.06-.48-.015-.63.878-.24,1.156,2.442,1.737,3.436,3.386,6.192,4.546,4.353,1.833,10.562-1.147,14.992-3.085,3.75-1.64,4.216-1.1,7.959-3.5" transform="translate(-221.445 -286.576)" fill="#003a3f"/>
        <path id="패스_105170" data-name="패스 105170" d="M399.707,453.484c-1.8,1.514-4.547,1.334-7.361,4.658-2.3,2.722-1.944,6.219-4.155,9.008-.463.583-.894,1.149-1.387,1.66-.223.231-.028.535.29.528a12.438,12.438,0,0,0,5.384-1.131,13.638,13.638,0,0,0,6.747-7.156c.9-2.548,1.6-5.159.481-7.567" transform="translate(-249.971 -292.285)" fill="#003a3f"/>
        <path id="패스_105171" data-name="패스 105171" d="M232.4,362.621c.016.6.957,1.641,1.27,2.1,2.832,4.185,7.1,8.023,12.18,9.115a22.252,22.252,0,0,0,7.417.288c2.338-.292,5.146-.765,6.755-2.66,1.747-2.057.968-4.717,1.043-7.143a40.621,40.621,0,0,1,1.14-9.283,9.775,9.775,0,0,1,.494-1.455c.089-.2.578-.783.575-.959,0,0,.255,12.589,5.323,18.151l.871,1.41-3.091,2.579,6.93.251-6.686,3.117.939,1.037-3.492,1.16-5.023.716-4.573-.39-3.15-.445-5.887-1.757-7.393-5.226-3.805-4.678-1.81-4.879-.028-1.054" transform="translate(-150.224 -227.279)" fill="#efe5d9"/>
        <path id="패스_105172" data-name="패스 105172" d="M514.287,191.7c3.692,4.583,4.985,10.94,4.233,16.7-.529,4.061-2.21,9.5-5.966,11.746-2.16,1.293-4.027.8-6.238.064a22.647,22.647,0,0,0-9.3-1.478s9.541,4.2,15.056,13.393c0,0,11.078-14.079,9.159-27.066-1.355-9.172-6.944-13.358-6.946-13.361" transform="translate(-321.277 -123.558)" fill="#efe5d9"/>
        <path id="패스_105173" data-name="패스 105173" d="M319.66,316.92c.154-.156.443-.438.865-.812a33.2,33.2,0,0,1-2.563-3.62,24.554,24.554,0,0,1-1.755-3.845,38.59,38.59,0,0,1-1.675-5.887c-.345-1.86-.775-2.544.217-4.231,4.964-8.442,9.756-14.109,17.363-19.1,7.561-4.958,17-11.12,25.835-13.169a56.948,56.948,0,0,1,13.744-1.473c2.116.033,4.883-.12,6.889.6a28.167,28.167,0,0,1,6.943,3.9,29.129,29.129,0,0,1,8.515,10.568c.168-.051.337-.1.507-.15l.094.345a22.6,22.6,0,0,0-6.064,2.713l-.195-.286s-5.307-7.691-12.355-8.342c0,0-12.793,13.821-39.511,20.244a20.139,20.139,0,0,0,4.042,12.615,20.466,20.466,0,0,1,2.754-.893c-.512.08,1.141-.178.645-.087l-.242.046c-15.113,2.816-22.724,10.029-23.8,11.118a.078.078,0,0,0,.017-.081.073.073,0,0,0-.063-.046l-.022.357a.285.285,0,0,1-.251-.181.278.278,0,0,1,.063-.3" transform="translate(-203.06 -170.657)" fill="#003a3f"/>
        <path id="패스_105174" data-name="패스 105174" d="M386.65,263.88c-5.037-1.272-10.109-1.058-15.193-1.119a70.324,70.324,0,0,0-15.069,1.617c-13.8,3.283-26.332,11.245-36.319,21.245a49.75,49.75,0,0,0-7.4,9.555,27.379,27.379,0,0,0-4.723,11.134,22.445,22.445,0,0,1,.1-3.131,28.291,28.291,0,0,1,2.774-9.082,52.9,52.9,0,0,1,7.72-9.964,83.3,83.3,0,0,1,31.336-20.118A65.042,65.042,0,0,1,368.33,260.7c1.042-.044,2.084-.07,3.128-.067a21.482,21.482,0,0,1,3.13.108,40.147,40.147,0,0,1,12.062,3.143" transform="translate(-199.054 -167.98)" fill="#003a3f"/>
        <path id="패스_105175" data-name="패스 105175" d="M383.957,322.842c3.65-7.918,9.781-15.311,18.176-18.25,5.7-2.018,13.625-1.057,17.043,4.468,6.265,11.1-9.541,26.729-17.972,32.513-16.966,11.857-38.468,20.435-59.243,15.132a45.809,45.809,0,0,1-12.61-4.352.8.8,0,0,1,.025-1.416,1.1,1.1,0,0,1,.161-.063l.154-.053.616-.211,1.232-.422,4.927-1.686.106,1.317c-1.6-.284-3.182-.6-4.766-.981a15.428,15.428,0,0,1-4.508-1.583l-.177-.152a2.309,2.309,0,0,1-.193-.236.639.639,0,0,1,.294-.968l4.123-1.618c1.218-.5,2.867-1.136,4.014-1.69l.282,1.246-8.4-.068a.625.625,0,0,1-.453-1.055A33.46,33.46,0,0,1,331.6,338.8a54.234,54.234,0,0,1,16.718-7.526,69.562,69.562,0,0,1,24.256-1.708.355.355,0,0,1-.064.708,74.543,74.543,0,0,0-12.065-.042c-11.848.995-24,5.015-32.75,13.341l-.453-1.055,8.4.011a.655.655,0,0,1,.283,1.245c-.689.332-1.367.619-2.05.906-1.4.58-4.7,1.886-6.121,2.445,0,0,.3-.983.294-.972a14.791,14.791,0,0,0,4.065,1.376c1.545.364,3.118.677,4.682.95a.685.685,0,0,1,.106,1.317c-.656.221-5.525,1.911-6.153,2.124l-.615.213-.154.053-.039.014c-.011,0-.051.022.046-.021a.589.589,0,0,0,.29-.331.607.607,0,0,0-.25-.7c4.513,2.536,9.721,3.633,14.774,4.719l2.526.45c.7.144,1.818.246,2.544.326.771.106,1.8.18,2.557.2,17.237.822,34.053-6.689,48.011-16.352,8.068-5.389,24.708-21.68,17.074-31.859a10.72,10.72,0,0,0-5.143-3.282,16.861,16.861,0,0,0-12.291,1.121,29.474,29.474,0,0,0-9.947,7.954,40.471,40.471,0,0,0-5.5,8.728.375.375,0,0,1-.681-.313" transform="translate(-211.125 -195.694)" fill="#003a3f"/>
        <path id="패스_105176" data-name="패스 105176" d="M456.293,365.956c1.3,2.651,5.716,3.154,9.867,1.125s6.464-5.823,5.165-8.474-5.716-3.155-9.867-1.125-6.464,5.823-5.165,8.474" transform="translate(-294.717 -229.606)" fill="#003a3f"/>
        <path id="패스_105177" data-name="패스 105177" d="M338.967,215.113c5.724-7.555,10.577-17.54,9.486-27.249-1.566-12.484-12.855-20.137-24.67-21.268a24.644,24.644,0,0,0-10.3,1.513c-8.376,2.935-15.247,9.106-20.7,16-7.871,9.831-16.89,19.22-28.364,24.728-3.231,1.617-6.528,3.03-9.81,4.471-6.424,2.809-13.213,5.633-17.84,11.068-10.369,12.714-5.925,27.26,8.829,33.544a27.9,27.9,0,0,0,21.253.114.355.355,0,0,1,.275.655,28.827,28.827,0,0,1-29.526-4.353,21.662,21.662,0,0,1-6.924-10.138,19.4,19.4,0,0,1-.811-6.885,23.038,23.038,0,0,1,.406-2.753,25.187,25.187,0,0,1,.959-3.334c.138-.334.671-1.537.826-1.9a30.463,30.463,0,0,1,3.7-5.806c4.782-5.659,11.737-8.6,18.3-11.487,3.273-1.444,6.554-2.874,9.732-4.46a70.206,70.206,0,0,0,20.952-16.192c3-3.193,5.931-6.835,8.718-10.211,7.444-8.825,18.618-16.7,30.4-15.813C338.346,166.805,351.028,177.43,349.5,193c-.9,8.335-4.891,16.048-9.956,22.6a.375.375,0,1,1-.576-.481" transform="translate(-148.572 -106.531)" fill="#003a3f"/>
        <path id="패스_105178" data-name="패스 105178" d="M365.942,211.067s-14.639-7.622-18.458-4.816-1.366,11.433,2.15,21.284l3.036-2.482,7.316-7.129Z" transform="translate(-223.37 -132.536)" fill="#003a3f"/>
        <path id="패스_105179" data-name="패스 105179" d="M306.14,255.221s-14.155-13.123-18.677-10.913-2.669,12.488-.879,20.472l7.562-3.117,9.473-4.781Z" transform="translate(-183.995 -157.303)" fill="#003a3f"/>
        <path id="패스_105180" data-name="패스 105180" d="M461.63,326.1c1.979,2.975,5.287,4.258,7.389,2.867s2.2-4.931.221-7.905-5.288-4.258-7.389-2.867-2.2,4.931-.221,7.906" transform="translate(-297.482 -204.723)" fill="#003a3f"/>
        <path id="패스_105181" data-name="패스 105181" d="M458.761,400.327s3.247-2.951,7.145-2.13l2.235,2.153a11.793,11.793,0,0,0-1.521-2.5s3.242-3.084,6.723-3.518" transform="translate(-296.546 -254.159)" fill="#fff"/>
        <path id="패스_105182" data-name="패스 105182" d="M466.85,399.774a.7.7,0,0,1-.489-.2l-2.085-2.008c-3.4-.6-6.3,1.973-6.334,2a.706.706,0,0,1-1-.053.713.713,0,0,1,.051-1c.143-.13,3.539-3.161,7.722-2.307a.705.705,0,0,1,.126-.16c.139-.133,3.453-3.25,7.122-3.707a.711.711,0,0,1,.174,1.411,12.687,12.687,0,0,0-5.835,2.9,14.8,14.8,0,0,1,1.19,2.119.713.713,0,0,1-.235.874.7.7,0,0,1-.409.131" transform="translate(-295.254 -252.871)" fill="#003a3f"/>
        <path id="패스_105183" data-name="패스 105183" d="M445.008,389.033l4.636,3.637,3.262-1.847,3.884-.283,2.092-1.833,2.08-1.335,3.664-.787V382.69l-3.482,1.991-2.466,1.206-2.713,1.326-4.018,1.032-4.165.624Z" transform="translate(-287.656 -246.656)" fill="#003a3f"/>
        <path id="패스_105184" data-name="패스 105184" d="M420.666,390.015a14.767,14.767,0,0,0-2.687,5.609.2.2,0,0,1-.375.03,4.933,4.933,0,0,1,1.173-5.146c.288-.292,1.665-1.516,1.953-.837a.35.35,0,0,1-.063.343" transform="translate(-269.746 -251.026)" fill="#003a3f"/>
        <path id="패스_105185" data-name="패스 105185" d="M458.791,397.348c-2.308,0-5.322-1.269-9-3.795a58.909,58.909,0,0,1-6.561-5.293.714.714,0,0,1-.026-1.005.7.7,0,0,1,1-.026c3.135,2.99,12.141,10.324,16.121,8.379,3.935-1.924,3.007-10.8,2.318-14.059a.707.707,0,1,1,1.383-.3c.111.523,2.644,12.834-3.083,15.633a4.84,4.84,0,0,1-2.151.462" transform="translate(-286.364 -245.367)" fill="#003a3f"/>
        <path id="패스_105186" data-name="패스 105186" d="M456.077,416.085s1.4,10.7,5.271,16.163c0,0-23.72,7.567-40.487-1.624a7.228,7.228,0,0,1-2.266-2.248s13.725-.941,24.161-5.357Z" transform="translate(-270.582 -268.18)" fill="#003a3f"/>
        <path id="패스_105187" data-name="패스 105187" d="M469.087,424.38s8.315,3.387,11.383,1.292,5.3-7.456,4.923-8.949" transform="translate(-303.221 -268.591)" fill="#fff"/>
        <path id="패스_105188" data-name="패스 105188" d="M468.576,423.408a41.254,41.254,0,0,0,5.308,1.351,10.17,10.17,0,0,0,5.1-.06,5.528,5.528,0,0,0,1.45-1.088A14.678,14.678,0,0,0,482.46,421a17.946,17.946,0,0,0,1.509-3,4.912,4.912,0,0,0,.425-1.868.353.353,0,0,1,.322-.382c.815.006.348,2.1.238,2.557-.753,2.844-2.711,6.354-5.43,7.682-3.373,1.219-8.09-.519-11.23-1.89a.377.377,0,0,1,.281-.7" transform="translate(-302.57 -267.968)" fill="#003a3f"/>
        <path id="패스_105189" data-name="패스 105189" d="M452.274,360.583a24.776,24.776,0,0,1-5.339,8.316,19.722,19.722,0,0,1-4.116,2.822c-3.352,1.85-7,3.585-10.905,3.685-1.1.013-2.212.056-3.326.044a23.879,23.879,0,0,1-9.686-1.759.191.191,0,0,1,.109-.362,56.873,56.873,0,0,0,9.57.451c1.151-.023,2.471-.039,3.641-.014a16.579,16.579,0,0,0,5.67-1.146,37.805,37.805,0,0,0,4.373-1.938,17.965,17.965,0,0,0,3.991-2.524,19.759,19.759,0,0,0,3.066-3.629,28.9,28.9,0,0,0,2.353-4.193.324.324,0,0,1,.6.247" transform="translate(-270.71 -232.121)" fill="#003a3f"/>
        <path id="패스_105190" data-name="패스 105190" d="M421.194,347a4.919,4.919,0,0,0-5.462-.347,4.986,4.986,0,0,0-1.871,4.937,21.9,21.9,0,0,0,2.519,5.1c1.054-.878,1.856-2.515,3.923-3.831a12.993,12.993,0,0,1,5.417-1.791c-.236-.684-3.737-3.5-4.526-4.069" transform="translate(-267.469 -222.996)" fill="#003a3f"/>
        <path id="패스_105191" data-name="패스 105191" d="M353.09,476.628a4.96,4.96,0,0,1,2.978,2,7.729,7.729,0,0,1,1.562,3.1.273.273,0,0,1-.471.239,38.085,38.085,0,0,0-2.953-3.886,4.769,4.769,0,0,0-1.26-.927.28.28,0,0,1,.144-.529" transform="translate(-228.047 -307.201)" fill="#003a3f"/>
        <path id="패스_105192" data-name="패스 105192" d="M367.664,479.056a3.165,3.165,0,0,1,1.122,3.534.281.281,0,0,1-.382.116.312.312,0,0,1-.145-.183c-.391-.952-.54-2.07-.922-3.007l-.048-.124a.27.27,0,0,1,.374-.336" transform="translate(-237.406 -308.746)" fill="#003a3f"/>
        <path id="패스_105193" data-name="패스 105193" d="M43.606,142.291c-3.9-.434-8.763-2.344-10.928-5.32a5.7,5.7,0,0,1-1.046-4.811c1.031-4.457,7.336-6.718,12.422-7.3a70.729,70.729,0,0,1,13.468.2c3.156.247,6.419.5,9.584.436a77.476,77.476,0,0,0,21.534-3.466c1.744-.546,3.533-1.136,5.263-1.707,9.613-3.171,19.552-6.45,30.24-5.26l.181.02c2.7.313,6.6,1.013,9.338,3.475q.18.162.354.333c1.781,1.763,2.43,3.576,1.929,5.39-.869,3.147-5.255,5.523-9.217,6.481a55.619,55.619,0,0,1-20.977.787c-1.174-.161-2.379-.344-3.543-.521-5.293-.8-10.766-1.633-15.851-.875-4.138.616-7.868,2.464-11.475,4.25-1.228.609-2.5,1.238-3.772,1.813-7.109,3.21-17.564,6.879-27,6.125q-.249-.02-.5-.048m80.384-25.817c-10.385-1.156-20.174,2.074-29.644,5.2-1.735.573-3.53,1.165-5.284,1.714a78.884,78.884,0,0,1-21.926,3.529c-3.235.068-6.533-.19-9.724-.44a69.675,69.675,0,0,0-13.2-.2c-6.893.788-10.64,3.77-11.2,6.207a4.33,4.33,0,0,0,.809,3.647c2.008,2.76,6.753,4.5,10.4,4.79,9.139.729,19.352-2.863,26.31-6,1.25-.564,2.509-1.188,3.727-1.791,3.7-1.835,7.536-3.732,11.894-4.382,5.294-.789,10.873.058,16.269.876,1.16.176,2.36.358,3.524.518a54.337,54.337,0,0,0,20.453-.761c3.443-.833,7.473-2.9,8.184-5.478.353-1.278-.171-2.622-1.558-3.995-.1-.1-.2-.194-.3-.287-2.442-2.193-6.054-2.832-8.557-3.122l-.174-.02" transform="translate(-20.347 -73.999)" fill="#003a3f"/>
        <path id="패스_105194" data-name="패스 105194" d="M429.06,481.333l.041,3.626-2.947,2.089,3.442,1.082,1.065,3.464,2.087-2.957,3.606.052-2.153-2.91,1.163-3.432-3.417,1.159Z" transform="translate(-275.469 -310.234)" fill="#ed7e00"/>
        <path id="패스_105195" data-name="패스 105195" d="M429.369,491.015a.7.7,0,0,1-.112-.009.708.708,0,0,1-.564-.492l-.956-3.107-3.088-.97a.712.712,0,0,1-.2-1.259L427.1,483.3l-.036-3.252a.71.71,0,0,1,.387-.642.7.7,0,0,1,.744.065l2.59,1.949,3.065-1.039a.7.7,0,0,1,.726.172.713.713,0,0,1,.169.731l-1.043,3.078,1.931,2.609a.714.714,0,0,1,.062.748.7.7,0,0,1-.64.387l-3.234-.047-1.871,2.652a.707.707,0,0,1-.576.3m-2.93-5.505,2.075.652a.71.71,0,0,1,.464.468l.643,2.088,1.257-1.782a.7.7,0,0,1,.587-.3l2.173.031-1.3-1.753a.712.712,0,0,1-.1-.654l.7-2.069-2.059.7a.7.7,0,0,1-.65-.1l-1.74-1.31.025,2.185a.713.713,0,0,1-.3.589Z" transform="translate(-274.176 -308.945)" fill="#00393e"/>
        <path id="패스_105196" data-name="패스 105196" d="M408.536,541.951s1.906,6.03,2.059,6.543" transform="translate(-264.081 -349.305)" fill="#fff"/>
        <path id="패스_105197" data-name="패스 105197" d="M409.3,547.916a.708.708,0,0,1-.677-.508c-.149-.5-2.036-6.471-2.055-6.531a.708.708,0,1,1,1.348-.431c.078.246,1.91,6.042,2.062,6.555a.709.709,0,0,1-.678.915" transform="translate(-262.787 -348.016)" fill="#00393e"/>
        <path id="패스_105198" data-name="패스 105198" d="M443.665,503.522c-3.276,5.677-8.731,9.863-14.516,12.689-4.257,2.208-8.878,4.3-13.765,4.573a11.911,11.911,0,0,1-4.833-.7.19.19,0,0,1,.119-.359,12.523,12.523,0,0,0,4.652.268c4.723-.6,9.035-2.773,13.2-5a46.587,46.587,0,0,0,7.962-5.089,39.61,39.61,0,0,0,5.147-4.875,23.607,23.607,0,0,0,1.489-1.85.325.325,0,0,1,.547.346" transform="translate(-265.305 -324.227)" fill="#003a3f"/>
        <path id="패스_105199" data-name="패스 105199" d="M173.885,530.29a76.634,76.634,0,0,1-24.966-4.049c-6.586-2.435-13.765-5.726-17.507-12.039a10.481,10.481,0,0,1-1.218-3.936l.618.342a52.842,52.842,0,0,1-11.787,4.134c-12.407,2.878-25.589,1.02-35.475-7.467-6.836-5.851-10.519-14.708-11.523-23.534-2.141-18.756,7.3-38.5,26.983-42.158a43.237,43.237,0,0,1,23.178,1.31A34.548,34.548,0,0,1,143.8,466.175a36.066,36.066,0,0,1,1.237,12.442.265.265,0,1,1-.529-.039,35.463,35.463,0,0,0-1.34-12.22,33.993,33.993,0,0,0-21.287-22.606c-7.49-2.688-15.715-2.662-23.437-1.043-1.136.325-2.575.6-3.668,1.042a30.044,30.044,0,0,0-13.587,9.486c-7.07,8.828-9.595,20.813-7.961,31.916,1.176,8.037,4.712,16.055,10.939,21.4a36.267,36.267,0,0,0,22.47,8.537,51.562,51.562,0,0,0,23.777-5.225.426.426,0,0,1,.618.342,9.269,9.269,0,0,0,.778,2.912l.333.688c6.109,10.248,24.266,14.72,35.447,15.644q3.14.256,6.293.279a.282.282,0,0,1,0,.565" transform="translate(-46.366 -283.986)" fill="#00393d"/>
      </g>
    </g>
    <g id="그룹_1162" data-name="그룹 1162" transform="translate(272 124)">
      <path id="패스_94456" data-name="패스 94456" d="M341.546,225.807a25.362,25.362,0,0,1,17.537,4.112,23.957,23.957,0,0,1,9.048,11.312,24.77,24.77,0,0,1,.63,16.567c-1.685,5.618-5.176,9.922-9.881,13.492.066.892.1,1.786.2,2.67a20.678,20.678,0,0,1-2.534,12.885,21,21,0,0,1-34.5,3.347c-.7-.825-1.369-1.676-1.968-2.41-1.04-.2-1.5.475-2.035.9a25.3,25.3,0,0,1-11.781,5.266,26.876,26.876,0,0,1-20.448-4.337,22.132,22.132,0,0,1-6.725-7.388c-.4-.7-.825-1.383-1.284-2.151-6.155,1.512-11.372.24-14.56-5.5-3.124-5.621-1.515-10.692,2.831-15.208-.344-.946-.71-1.866-1.015-2.807a17.612,17.612,0,0,1,8.259-21.029c3.927-2.145,8.094-2.4,12.4-1.7.435.071.862.188,1.427.313a13.153,13.153,0,0,0,.576-1.545,30.455,30.455,0,0,1,3.355-8.887c5.577-9.321,13.83-14.357,24.622-14.369,10.115-.012,18.066,4.611,23.742,13.061C340.145,223.452,340.772,224.551,341.546,225.807Z" transform="translate(-253.89 -209.344)" fill="#fff" stroke="#00474c" stroke-width="1.5"/>
      <path id="패스_94457" data-name="패스 94457" d="M267.42,302.56a8.545,8.545,0,0,1-5.689-1.723,5.482,5.482,0,0,1-.241-8.9,9.172,9.172,0,0,1,11.121-.331,5.608,5.608,0,0,1-.147,9.428A8.224,8.224,0,0,1,267.42,302.56Z" transform="translate(-253.89 -208.638)" fill="#fff" stroke="#00474c" stroke-width="1.5"/>
      <path id="패스_94458" data-name="패스 94458" d="M256.857,314.638a14.794,14.794,0,0,1-2.221-.937,1.631,1.631,0,0,1-.233-2.564,3.634,3.634,0,0,1,4.682-.342,1.786,1.786,0,0,1-.169,3.113A12.089,12.089,0,0,1,256.857,314.638Z" transform="translate(-253.89 -208.638)" fill="#fff" stroke="#00474c" stroke-width="1.5"/>
    </g>
    <text id="새로운_메뉴가_좋아_" data-name="새로운
메뉴가 좋아!" transform="translate(335 163)" fill="#00474c" font-size="14" font-family="AppleSDGothicNeo-Bold, Apple SD Gothic Neo" font-weight="700"><tspan x="-18" y="0">새로운</tspan><tspan y="0" font-family="Helvetica-Bold, Helvetica"></tspan><tspan x="-34" y="21">메뉴가</tspan><tspan y="21" font-family="Helvetica-Bold, Helvetica"> </tspan><tspan y="21">좋아</tspan><tspan y="21" font-family="Helvetica-Bold, Helvetica">!</tspan></text>
  </g>
</svg>
