<svg xmlns="http://www.w3.org/2000/svg" width="330.754" height="300.75" viewBox="0 0 330.754 300.75">
  <g id="그룹_1373" data-name="그룹 1373" transform="translate(-46 -117.25)">
    <g id="그룹_445" data-name="그룹 445" transform="translate(46 150)">
      <g id="그룹_421" data-name="그룹 421">
        <path id="패스_37850" data-name="패스 37850" d="M2603.414,440.566s24.1-14.053,9.239-38.327c0,0,27.473-26.82,13.659-46.845-19.684-28.532-50.214-13.2-50.214-13.2s32.739-24.061,20.688-48.76-44.59-17.461-48.205-13.2c0,0,7.231-28.957-19.684-33.642s-45.794,15.331-45.794,15.331-6.025-34.068-44.991-21.293-34.548,42.16-34.548,42.16-46.6-6.814-44.59,43.012c0,0-38.162,14.053-32.135,54.509s55.034,33.217,55.034,33.217-26.512,23.422-21.291,43.011,16.471,20.442,24.5,22.145l18.4-4.7s14.1,18.692,31.594,13.826,19.7-4.228,19.7-4.228,8.462-1.184,19.6-7.087a100.369,100.369,0,0,0,20.278-14.845s16.81,16.4,28.136,8.841,17.753-19.459,17.753-19.459,24.5,19.636,35.351,9.8S2603.414,440.566,2603.414,440.566Z" transform="translate(-2326.193 -237.76)" fill="#edeadf"/>
        <path id="패스_37851" data-name="패스 37851" d="M2366.939,460.831l-2.327-4.353.884-2.973,1.227-1.585.789-1.586.774-3.09,2.048-1.667,3.158-.725,1.457-.544.461-2.778,3.39-.71,1.776-1.61,4.552-2.343,3.75-.408s3.979-.927,4.61.329,2.682,0,2.682,0l1.578,1.668a8.849,8.849,0,0,1,3.83,4.087c1.008,2.637.281,11.307.442,11.531s12.116-.007,13.4.7a26.487,26.487,0,0,1,3.9,3.549l.738,1.547,2.116,1.153,1.239,1.852s3.365.934,4.172,2.916a5.912,5.912,0,0,1,4.958.991l.475-.152,2.7,1.921,2.747-2.43,3.088-.9,3.31.355,1.845-3.035,2.179-.512s3.069-3.794,4.187-4.375a18.867,18.867,0,0,1,3.783-1.055l3.733,1.055h2.366s11.138-3.452,10.459-9.151,1.425-5.5,1.425-5.5-1.3-5.145-.693-7.23a32.677,32.677,0,0,1,2.1-4.911l4.757-2.118,2.689.135,1.978,1.042h2.132l3.679,1.882s-1.008,9.8,0,10.8,6.27-.206,6.27-.206l7.236,1.206s6.7-1.882,9.395.843,6.661-16.3,13.146-14.52,7.292,2.577,7.292,2.577,1.273-7.532,2.451-6.937l2.156-1.784,2.747.262,3.331-.064s5.02.146,5.835,3.938l1.7,5.906s8.305-4.122,12.985-3.316,3.856-1.365,3.26-1.866-2.119-4.74-1.156-5.791,1.769-3.826,3.583-4.818a12.3,12.3,0,0,0,3.225-2.774l2.405.28,2.432-.962,4.4,1.242,1.466.271,1.8-.831,4.111,2.874,2.8,4.3,4.713.8,4.039,4.094.652,4.481.972,4.487-1.569,2.482-.605,2.793,1.6,3.412-1.6,1.758s3.6,7.349,1.6,12.413a43.01,43.01,0,0,0-2.605,16.239c.2,4.682-8.884,13.437-13.614,13.024s-50.686-3.189-59.958-1.207-101.59.211-106.63-2.075-26.4-3.078-31.445-1.1-19.394-2.8-19.271-8.339S2366.939,460.831,2366.939,460.831Z" transform="translate(-2326.193 -220.422)" fill="#fff"/>
        <path id="패스_37852" data-name="패스 37852" d="M2599.172,439.363a.594.594,0,0,1-.446-.988c1.641-1.861.434-7.009-.118-8.665a2.98,2.98,0,0,1-.069-1.245c.086-1,.184-2.139-2.483-4.006a6.3,6.3,0,0,0-3.813-1.324c-1.1-.051-2.133-.1-3.117-2.069a11.822,11.822,0,0,0-5.6-5.251c-.284-.1-.448.008-.857.411a1.459,1.459,0,0,1-1.421.589,6.579,6.579,0,0,1-1.207-.581,7.73,7.73,0,0,0-3.066-1.182,2.948,2.948,0,0,0-1.436.44,5.763,5.763,0,0,1-2.924.75c-2.076,0-3.886,2.142-3.9,2.164a.595.595,0,0,1-.914-.761c.089-.106,2.191-2.593,4.818-2.593a4.621,4.621,0,0,0,2.385-.619,4.029,4.029,0,0,1,1.975-.57,8.484,8.484,0,0,1,3.639,1.329,8.691,8.691,0,0,0,.909.464,2.493,2.493,0,0,0,.311-.277,1.932,1.932,0,0,1,2.069-.693,12.976,12.976,0,0,1,6.29,5.848c.672,1.346,1.093,1.366,2.108,1.413a7.424,7.424,0,0,1,4.44,1.538c3.229,2.26,3.082,3.958,2.985,5.082a2.145,2.145,0,0,0,.013.767c.024.07,2.317,7.066-.118,9.828A.592.592,0,0,1,2599.172,439.363Z" transform="translate(-2322.194 -224.2)" fill="#0c454b"/>
        <path id="패스_37853" data-name="패스 37853" d="M2599.172,446.766a.616.616,0,0,1-.188-.03.6.6,0,0,1-.376-.753c.649-1.946.3-2.312-.021-2.419-1.518-.506-1.595-3.53-1.595-4.132a.594.594,0,0,1,.594-.594h0a.594.594,0,0,1,.595.594c0,1.295.336,2.855.783,3,1.872.624,1.073,3.021.772,3.924A.594.594,0,0,1,2599.172,446.766Z" transform="translate(-2322.194 -220.422)" fill="#0c454b"/>
        <path id="패스_37854" data-name="패스 37854" d="M2586.883,441.613a.6.6,0,0,1-.242-1.139,3.86,3.86,0,0,0,2.452-3.642c.081-.682.152-1.271.636-1.586.44-.338.027-3.217-.219-4.937l-.045-.307a3.257,3.257,0,0,0-2.3-2.808.595.595,0,0,1,.26-1.161,4.418,4.418,0,0,1,3.217,3.8l.044.306c.489,3.413.718,5.39-.278,6.081a3.614,3.614,0,0,0-.136.753,5.033,5.033,0,0,1-3.149,4.588A.6.6,0,0,1,2586.883,441.613Z" transform="translate(-2322.194 -223.875)" fill="#0c454b"/>
        <path id="패스_37855" data-name="패스 37855" d="M2572.611,426.152a.589.589,0,0,1-.234-.049.6.6,0,0,1-.312-.78c.055-.128,1.371-3.135,3.718-3.135a3.8,3.8,0,0,1,1.919.392,2.714,2.714,0,0,1,2.045-1.185h.083a9.964,9.964,0,0,1,7.476,2.917.595.595,0,1,1-.846.836,8.714,8.714,0,0,0-6.628-2.564h-.085c-.671,0-1.287.931-1.45,1.257a.595.595,0,0,1-1.118-.167c-.05-.054-.333-.3-1.4-.3-1.3,0-2.335,1.744-2.625,2.415A.6.6,0,0,1,2572.611,426.152Zm4.56-2.574Zm0,0h0Zm0,0h0Zm0,0h0Z" transform="translate(-2322.194 -224.812)" fill="#0c454b"/>
        <path id="패스_37856" data-name="패스 37856" d="M2566.03,432.395a1.361,1.361,0,0,1-.263-.025,1.218,1.218,0,0,1-.786-.536c-.44-.66-2.2-.646-2.989-.534a.595.595,0,0,1-.168-1.178c.322-.046,3.174-.407,4.147,1.052.271.123,1.226-.521,1.686-.83a4.564,4.564,0,0,1,2.18-1.02,2.324,2.324,0,0,1,2.117,1.121.594.594,0,1,1-1.063.532,1.161,1.161,0,0,0-1.054-.464,4.792,4.792,0,0,0-1.516.817A4.749,4.749,0,0,1,2566.03,432.395Z" transform="translate(-2322.943 -224.345)" fill="#0c454b"/>
        <path id="패스_37857" data-name="패스 37857" d="M2533.935,427.208a.6.6,0,0,1-.172-.025.6.6,0,0,1-.4-.741c.043-.143,1.09-3.506,3.574-3.26.442.043.882.1,1.315.147a12.154,12.154,0,0,0,4.085.066.595.595,0,0,1,.289,1.154,12.922,12.922,0,0,1-4.514-.039c-.425-.051-.857-.1-1.29-.144-1.5-.147-2.312,2.393-2.32,2.418A.594.594,0,0,1,2533.935,427.208Z" transform="translate(-2323.339 -224.725)" fill="#0c454b"/>
        <path id="패스_37858" data-name="패스 37858" d="M2548.3,436.881a.595.595,0,0,1-.4-1.033c1.669-1.527,1.448-1.771,1.141-2.109a1.977,1.977,0,0,1-.549-2.111c.444-1.471-.962-3.867-1.541-4.665a.595.595,0,1,1,.962-.7c.1.136,2.424,3.37,1.717,5.708-.146.485,0,.646.292.968,1,1.105.706,2.024-1.219,3.785A.589.589,0,0,1,2548.3,436.881Z" transform="translate(-2323.216 -224.149)" fill="#0c454b"/>
        <path id="패스_37859" data-name="패스 37859" d="M2542.483,442.543a.594.594,0,0,1-.055-1.186c2.2-.2,2.236-3.376,2.236-3.512a.6.6,0,0,1,.595-.593h0a.6.6,0,0,1,.593.595c0,1.516-.692,4.449-3.314,4.694A.532.532,0,0,1,2542.483,442.543Z" transform="translate(-2323.279 -223.664)" fill="#0c454b"/>
        <path id="패스_37860" data-name="패스 37860" d="M2561.908,442.543a.594.594,0,0,1-.594-.594,2.985,2.985,0,0,0-1.972-2.745c-1.82-.606-4.1,1.083-5.2,1.9-.156.115-.291.215-.4.294a3.345,3.345,0,0,1-3.512.136,9.953,9.953,0,0,0-3.236.46.595.595,0,0,1-.3-1.151c1.216-.319,3.37-.788,4.142-.333a2.16,2.16,0,0,0,2.226-.086c.1-.074.232-.168.378-.276,1.257-.932,3.873-2.87,6.279-2.069a4.161,4.161,0,0,1,2.785,3.874A.594.594,0,0,1,2561.908,442.543Z" transform="translate(-2323.092 -223.656)" fill="#0c454b"/>
        <path id="패스_37861" data-name="패스 37861" d="M2566.666,453.479a.594.594,0,0,1-.368-1.062c.685-.539,2.387-1.739,3.408-1.228a.595.595,0,0,1-.532,1.064,4.6,4.6,0,0,0-2.141,1.1A.591.591,0,0,1,2566.666,453.479Z" transform="translate(-2322.953 -220.422)" fill="#0c454b"/>
        <path id="패스_37862" data-name="패스 37862" d="M2575.751,450.3a14.434,14.434,0,0,1-2.866-.37.595.595,0,1,1,.246-1.164,9.659,9.659,0,0,0,3.416.271,2,2,0,0,1,1.259-.9,4.37,4.37,0,0,1,3.46.323.594.594,0,0,1-.659.989,3.2,3.2,0,0,0-2.27-.226,1.3,1.3,0,0,0-.726.349C2577.42,450.051,2576.8,450.3,2575.751,450.3Z" transform="translate(-2322.194 -220.422)" fill="#0c454b"/>
        <path id="패스_37863" data-name="패스 37863" d="M2582.731,461.231a3.452,3.452,0,0,1-1.26-.415,3.92,3.92,0,0,0-1.393-.459c-.9.657-3.275.379-3.982.278a.595.595,0,0,1,.168-1.178,6.971,6.971,0,0,0,3.133-.072c.694-.506,1.689-.052,2.567.348.138.063.312.143.464.2a2.582,2.582,0,0,1,.807-.875,11.555,11.555,0,0,0,2.371-2.534,2.735,2.735,0,0,0,.6-2.052,2.979,2.979,0,0,0-1.11-1.719.595.595,0,0,1,.68-.976,4.167,4.167,0,0,1,1.6,2.481,3.867,3.867,0,0,1-.8,2.958,12.826,12.826,0,0,1-2.59,2.766c-.253.2-.471.381-.471.456a.768.768,0,0,1-.343.663A.787.787,0,0,1,2582.731,461.231Z" transform="translate(-2322.194 -220.422)" fill="#0c454b"/>
        <path id="패스_37864" data-name="패스 37864" d="M2563.494,468.569a.595.595,0,0,1-.42-1.015A8.545,8.545,0,0,1,2568.6,465a3.052,3.052,0,0,0,.4-.534,2.308,2.308,0,0,1,1.323-1.19,1.344,1.344,0,0,1,1.035.238c.565.378,2.522-.454,3.716-1.2a.595.595,0,0,1,.63,1.009c-.584.365-3.571,2.136-5.006,1.179a.264.264,0,0,0-.138-.061c-.141.028-.417.45-.566.676-.329.5-.7,1.071-1.345,1.071a7.353,7.353,0,0,0-4.733,2.2A.592.592,0,0,1,2563.494,468.569Z" transform="translate(-2322.894 -220.422)" fill="#0c454b"/>
        <path id="패스_37865" data-name="패스 37865" d="M2564.684,461.434l-.055,0a.594.594,0,0,1-.538-.646c.223-2.457-.379-2.564-1.473-2.757a4.089,4.089,0,0,1-1.859-.677.735.735,0,0,0-.628-.161c-.718.148-1.465,1.207-1.67,1.566a.595.595,0,0,1-1.033-.59,4.6,4.6,0,0,1,2.462-2.141,1.926,1.926,0,0,1,1.582.374,3.067,3.067,0,0,0,1.353.458c1.517.268,2.749.757,2.451,4.036A.6.6,0,0,1,2564.684,461.434Z" transform="translate(-2323.028 -220.422)" fill="#0c454b"/>
        <path id="패스_37866" data-name="패스 37866" d="M2554.954,461.434a.566.566,0,0,1-.162-.023.594.594,0,0,1-.411-.733c.037-.134.822-3.121-1.856-4.46a9.594,9.594,0,0,1-3.432-3.1c-.7-.913-1.08-1.384-1.613-1.344-1.337.11-5.405.446-6.88,2.659a.595.595,0,1,1-.99-.66c1.608-2.413,5.206-2.973,7.772-3.184,1.2-.105,1.909.827,2.656,1.808a8.471,8.471,0,0,0,3.019,2.76,4.979,4.979,0,0,1,2.469,5.847A.6.6,0,0,1,2554.954,461.434Z" transform="translate(-2323.187 -220.422)" fill="#0c454b"/>
        <path id="패스_37867" data-name="패스 37867" d="M2539.752,456.6a.6.6,0,0,1-.556-.383c-1.325-3.471-4.215-2.789-4.338-2.757a.6.6,0,0,1-.3-1.152c.04-.01,4.035-1,5.748,3.485a.6.6,0,0,1-.343.768A.611.611,0,0,1,2539.752,456.6Z" transform="translate(-2323.363 -220.422)" fill="#0c454b"/>
        <path id="패스_37868" data-name="패스 37868" d="M2533.934,463.41a.6.6,0,0,1-.112-.011.59.59,0,0,1-.473-.681,2.406,2.406,0,0,1,1.071-1.5,4.742,4.742,0,0,1,3.6-.377,6.614,6.614,0,0,1,5.322-1.388.595.595,0,1,1-.131,1.182c-3.165-.351-4.489,1.171-4.544,1.236a.607.607,0,0,1-.6.2,4.019,4.019,0,0,0-2.972.124,1.273,1.273,0,0,0-.581.738A.6.6,0,0,1,2533.934,463.41Z" transform="translate(-2323.331 -220.422)" fill="#0c454b"/>
        <path id="패스_37869" data-name="패스 37869" d="M2547.6,469.922a.594.594,0,0,1-.506-.907,3.589,3.589,0,0,0,.691-2.906,2.256,2.256,0,0,0-1.17-1.272.6.6,0,0,1-.36-.661c.311-1.647-.522-2.251-.557-2.276a.6.6,0,0,1-.158-.822.591.591,0,0,1,.811-.172,3.138,3.138,0,0,1,1.137,3.055,3.356,3.356,0,0,1,1.423,1.763,4.666,4.666,0,0,1-.8,3.916A.594.594,0,0,1,2547.6,469.922Z" transform="translate(-2323.234 -220.422)" fill="#0c454b"/>
        <path id="패스_37870" data-name="패스 37870" d="M2539.751,472.87a.6.6,0,0,1-.133-1.175,6.759,6.759,0,0,0,1.2-1.3.594.594,0,0,1,.95.715c-.83,1.1-1.482,1.694-1.936,1.757A.576.576,0,0,1,2539.751,472.87Zm-.148-1.167Zm.068-.017h0Z" transform="translate(-2323.328 -220.422)" fill="#0c454b"/>
        <path id="패스_37871" data-name="패스 37871" d="M2554.812,474.733a10.267,10.267,0,0,1-4.721-1.239c-.17-.084-.315-.156-.433-.206a6.754,6.754,0,0,0-2.707.037.595.595,0,0,1-.214-1.17,7.8,7.8,0,0,1,3.383.038c.136.057.3.138.5.235a8.567,8.567,0,0,0,6.008.913c1.262-.281,2.307-.6,3.229-.879,1.76-.535,2.923-.888,3.893-.432,1.088.513,6.759,1.77,8.87-.062a.595.595,0,1,1,.78.9c-2.732,2.37-9.071.752-10.158.24-.552-.261-1.6.056-3.04.5-.9.272-2.01.61-3.316.9A9.467,9.467,0,0,1,2554.812,474.733Z" transform="translate(-2322.965 -220.422)" fill="#0c454b"/>
        <path id="패스_37872" data-name="패스 37872" d="M2588.468,478.083a.594.594,0,0,1-.225-.044,41.189,41.189,0,0,0-13.649-2.73,50.661,50.661,0,0,0-13.3,1.955.6.6,0,0,1-.355-1.136,50.927,50.927,0,0,1,13.656-2.009,41.617,41.617,0,0,1,14.1,2.82.594.594,0,0,1-.227,1.144Z" transform="translate(-2322.194 -220.422)" fill="#0c454b"/>
        <path id="패스_37873" data-name="패스 37873" d="M2559.925,479.462a.595.595,0,0,1-.108-1.179c.394-.073,9.7-1.788,13.758-.571a.594.594,0,1,1-.341,1.139c-3.781-1.133-13.1.584-13.2.6A.574.574,0,0,1,2559.925,479.462Z" transform="translate(-2322.926 -220.422)" fill="#0c454b"/>
        <path id="패스_37874" data-name="패스 37874" d="M2561.335,481.255a.588.588,0,0,1-.3-.081,2,2,0,0,0-1.983-.011.595.595,0,0,1-.639-1,3.189,3.189,0,0,1,3.219-.014.595.595,0,0,1-.3,1.109Z" transform="translate(-2323.062 -220.422)" fill="#0c454b"/>
        <path id="패스_37875" data-name="패스 37875" d="M2553.786,483.067a5.589,5.589,0,0,1-1.574-.255.595.595,0,1,1,.364-1.132c.584.185,1.8.357,1.978-.085a.594.594,0,0,1,1.1.44A1.828,1.828,0,0,1,2553.786,483.067Z" transform="translate(-2323.146 -220.422)" fill="#0c454b"/>
        <path id="패스_37876" data-name="패스 37876" d="M2530.289,482.737a.595.595,0,0,1-.143-1.172c8.451-2.092,18.9-.092,19.337-.006a.595.595,0,1,1-.228,1.167c-.1-.02-10.632-2.034-18.823-.006A.587.587,0,0,1,2530.289,482.737Z" transform="translate(-2323.284 -220.422)" fill="#0c454b"/>
        <path id="패스_37877" data-name="패스 37877" d="M2532.133,473.878c-2.271,0-2.6-1.216-2.836-2.114-.188-.705-.292-1.093-1.169-1.218a3.612,3.612,0,0,1-3.077-2.293,2.465,2.465,0,0,1-1.847.365c-1.79-.382-2.751-2.768-2.855-3.039a.595.595,0,1,1,1.111-.425c.22.569,1.007,2.092,1.993,2.3a1.78,1.78,0,0,0,1.564-.694.6.6,0,0,1,1.015.421,2.319,2.319,0,0,0,2.264,2.186,2.359,2.359,0,0,1,2.15,2.089c.222.832.344,1.291,1.914,1.227a30.341,30.341,0,0,0,5.223-.529.595.595,0,0,1,.288,1.154,30.349,30.349,0,0,1-5.464.564C2532.313,473.877,2532.222,473.878,2532.133,473.878Z" transform="translate(-2323.44 -220.422)" fill="#0c454b"/>
        <path id="패스_37878" data-name="패스 37878" d="M2503.634,477.687a.595.595,0,0,1-.42-1.015c.89-.89,2.919-1.171,5.269-1.495a36.643,36.643,0,0,0,3.728-.644,8.14,8.14,0,0,1,5.284.894c.848.364,1.648.706,2.033.559,1.624-.62,4.031-1.541,5.61-.361.789.588,2.873.256,4-.092a.595.595,0,0,1,.351,1.136c-.358.111-3.539,1.048-5.064-.091-1.055-.789-3.176.023-4.443.507-.867.331-1.835-.083-2.958-.565a7.1,7.1,0,0,0-4.526-.833,37.36,37.36,0,0,1-3.854.668c-1.959.27-3.984.55-4.591,1.158A.6.6,0,0,1,2503.634,477.687Z" transform="translate(-2323.604 -220.422)" fill="#0c454b"/>
        <path id="패스_37879" data-name="패스 37879" d="M2502.678,465.2a.581.581,0,0,1-.169-.025c-.1-.029-10.04-2.92-17.58-1.766a.594.594,0,0,1-.181-1.175c7.807-1.2,17.681,1.678,18.1,1.8a.595.595,0,0,1-.168,1.165Z" transform="translate(-2323.944 -220.422)" fill="#0c454b"/>
        <path id="패스_37880" data-name="패스 37880" d="M2498.877,466.587a.6.6,0,0,1-.125-.013c-.146-.031-14.706-3.107-22.338-.611a.595.595,0,0,1-.37-1.13c7.939-2.6,22.349.448,22.958.578a.595.595,0,0,1-.125,1.176Z" transform="translate(-2324.029 -220.422)" fill="#0c454b"/>
        <path id="패스_37881" data-name="패스 37881" d="M2485.67,468.042a20.56,20.56,0,0,1-3.144-.274.595.595,0,0,1,.2-1.173c1.852.308,4.759.44,5.429-.23a.595.595,0,1,1,.841.841A5.019,5.019,0,0,1,2485.67,468.042Z" transform="translate(-2324.065 -220.422)" fill="#0c454b"/>
        <path id="패스_37882" data-name="패스 37882" d="M2480.418,478.083c-.022,0-.045,0-.067,0a.6.6,0,0,1-.524-.658c.011-.1.323-2.459,4.317-2.9,3.137-.348,3.906-1.529,3.913-1.541a.6.6,0,0,1,.81-.206.59.59,0,0,1,.224.794c-.1.174-1.051,1.717-4.816,2.135-3.012.335-3.265,1.84-3.267,1.855A.594.594,0,0,1,2480.418,478.083Z" transform="translate(-2324.079 -220.422)" fill="#0c454b"/>
        <path id="패스_37883" data-name="패스 37883" d="M2494.3,480.9a.6.6,0,0,1-.59-.529,5.4,5.4,0,0,0-.365-1.58,3.566,3.566,0,0,1-.782-1.548.595.595,0,0,1,1.149-.308,2.856,2.856,0,0,0,.432.979,4.193,4.193,0,0,1,.748,2.326.594.594,0,0,1-.525.656C2494.344,480.9,2494.322,480.9,2494.3,480.9Z" transform="translate(-2323.958 -220.422)" fill="#0c454b"/>
        <path id="패스_37884" data-name="패스 37884" d="M2477.083,471.343a.579.579,0,0,1-.13-.014.593.593,0,0,1-.451-.707,3.414,3.414,0,0,1,1.8-2.336,3.267,3.267,0,0,1,3.094.8.595.595,0,1,1-.714.951,2.365,2.365,0,0,0-1.963-.636,2.2,2.2,0,0,0-1.055,1.479A.6.6,0,0,1,2477.083,471.343Z" transform="translate(-2324.155 -220.422)" fill="#0c454b"/>
        <path id="패스_37885" data-name="패스 37885" d="M2486.191,458.659a.6.6,0,0,1-.577-.452c-.069-.283-1.67-6.964,1.471-10.964a12.381,12.381,0,0,1,4.723-3.932,2.3,2.3,0,0,0,.83-.522c.353-.545,1.623-.913,3.775-1.094.894-.075,5.422-.38,6.7,1.015a.594.594,0,1,1-.875.8c-1.048-1.14-7.76-.737-8.624-.049a3,3,0,0,1-1.284.914,11.148,11.148,0,0,0-4.311,3.6c-2.782,3.541-1.268,9.881-1.252,9.944a.6.6,0,0,1-.578.737Zm7.412-15.183Z" transform="translate(-2323.938 -220.422)" fill="#0c454b"/>
        <path id="패스_37886" data-name="패스 37886" d="M2506.789,463.135a.593.593,0,0,1-.5-.267c-3.717-5.635-.65-13.089-.517-13.4a.595.595,0,0,1,1.1.461c-.03.072-2.95,7.189.413,12.288a.594.594,0,0,1-.495.922Z" transform="translate(-2323.793 -220.422)" fill="#0c454b"/>
        <path id="패스_37887" data-name="패스 37887" d="M2508.262,463.416a.595.595,0,0,1-.185-1.16,14.3,14.3,0,0,0,3.982-1.784.6.6,0,0,1,.937.734c-.679.868-3.654,1.889-4.55,2.18A.563.563,0,0,1,2508.262,463.416Z" transform="translate(-2323.729 -220.422)" fill="#0c454b"/>
        <path id="패스_37888" data-name="패스 37888" d="M2475.222,453.39a.595.595,0,0,1-.275-1.122c1.177-.614,2-.782,2.451-.5a.594.594,0,0,1-.55,1.05,4.84,4.84,0,0,0-1.352.506A.6.6,0,0,1,2475.222,453.39Zm1.544-.615h0Z" transform="translate(-2324.194 -220.422)" fill="#0c454b"/>
        <path id="패스_37889" data-name="패스 37889" d="M2470.468,481.239a8.418,8.418,0,0,1-4.454-1.689c-.908-.681-4.648.356-7.014,1.31a.595.595,0,0,1-.445-1.1c1.055-.426,6.407-2.481,8.172-1.158,1.557,1.168,3.858,1.794,4.558,1.242.141-.111.291-.236.45-.367,1.111-.922,2.632-2.186,4.294-1.769a.595.595,0,0,1-.289,1.154c-1.074-.271-2.331.77-3.246,1.53-.166.138-.324.269-.472.385A2.455,2.455,0,0,1,2470.468,481.239Z" transform="translate(-2324.319 -220.422)" fill="#0c454b"/>
        <path id="패스_37890" data-name="패스 37890" d="M2459.244,475.978a.592.592,0,0,1-.5-.28c-.626-1.005-2.629-3.677-4.359-3.965a3.253,3.253,0,0,1-2.73-1.821,2.264,2.264,0,0,0-.531-.7c-.559-.441-2.777-.64-4.173-.641a.594.594,0,1,1,0-1.189c.63,0,3.828.043,4.909.9a3.293,3.293,0,0,1,.826,1.045,2.134,2.134,0,0,0,1.9,1.239c2.613.435,5.069,4.344,5.173,4.51a.594.594,0,0,1-.192.818A.587.587,0,0,1,2459.244,475.978Z" transform="translate(-2324.516 -220.422)" fill="#0c454b"/>
        <path id="패스_37891" data-name="패스 37891" d="M2456.528,464.983a.594.594,0,0,1-.582-.477c-.313-1.548-.143-2.642.5-3.252a1.967,1.967,0,0,1,1.781-.423.594.594,0,0,1-.3,1.151.808.808,0,0,0-.672.142c-.147.142-.456.635-.15,2.147a.6.6,0,0,1-.466.7A.672.672,0,0,1,2456.528,464.983Z" transform="translate(-2324.449 -220.422)" fill="#0c454b"/>
        <path id="패스_37892" data-name="패스 37892" d="M2450.479,459.3a.593.593,0,0,1-.464-.965c.109-.138,2.729-3.361,5.886-2.01,2.58,1.106,5.117,1.1,5.812.783a.595.595,0,1,1,.49,1.084c-.975.44-3.8.5-6.77-.773-2.319-.993-4.469,1.632-4.49,1.658A.592.592,0,0,1,2450.479,459.3Z" transform="translate(-2324.471 -220.422)" fill="#0c454b"/>
        <path id="패스_37893" data-name="패스 37893" d="M2450.48,468.569a.5.5,0,0,1-.055,0,.594.594,0,0,1-.538-.646c.272-2.98-4.5-7.319-6.361-8.74a.594.594,0,0,1,.721-.945c.294.225,7.212,5.55,6.824,9.793A.594.594,0,0,1,2450.48,468.569Z" transform="translate(-2324.591 -220.422)" fill="#0c454b"/>
        <path id="패스_37894" data-name="패스 37894" d="M2443.266,465.2a.588.588,0,0,1-.349-.113.6.6,0,0,1-.133-.83c.078-.107,1.935-2.625,4.245-2.3a.594.594,0,1,1-.167,1.177c-1.6-.23-3.1,1.8-3.115,1.826A.594.594,0,0,1,2443.266,465.2Z" transform="translate(-2324.615 -220.422)" fill="#0c454b"/>
        <path id="패스_37895" data-name="패스 37895" d="M2425.97,480.393a.594.594,0,0,1-.469-.229c-.592-.76-.495-5.742-.1-7.052a2.511,2.511,0,0,1,1.234-1.525,1.694,1.694,0,0,0,.867-1.03l.134-.4a5.3,5.3,0,0,1,2.835-3.553c1.773-1.079,2.579-.547,3.448.262a4.913,4.913,0,0,0,.743.6c.135.084.171.106.75-.52a6.2,6.2,0,0,1,3.634-2.168,8.541,8.541,0,0,1,5.773.7.6.6,0,0,1-.62,1.016,7.514,7.514,0,0,0-4.933-.55,5.016,5.016,0,0,0-2.981,1.807c-.555.6-1.246,1.346-2.251.722a5.893,5.893,0,0,1-.924-.742c-.637-.592-.874-.815-2.021-.117a4.18,4.18,0,0,0-2.324,2.913l-.138.408a2.846,2.846,0,0,1-1.352,1.648,1.35,1.35,0,0,0-.735.865,19.393,19.393,0,0,0-.071,6.019.594.594,0,0,1-.5.919Zm.5-.9Zm-.035-.055h0Z" transform="translate(-2324.781 -220.422)" fill="#0c454b"/>
        <path id="패스_37896" data-name="패스 37896" d="M2435.587,476.624a.589.589,0,0,1-.422-.176c-.866-.876-.349-2.312,1.538-4.269l.029-.029a.573.573,0,0,1,.131-.133.607.607,0,0,1,.811.079c.136.154.3.478-.114.909-1.672,1.733-1.686,2.469-1.55,2.607a.594.594,0,0,1-.423,1.012Z" transform="translate(-2324.731 -220.422)" fill="#0c454b"/>
        <path id="패스_37897" data-name="패스 37897" d="M2438.8,476.288a5.216,5.216,0,0,1-1.8-.353.595.595,0,0,1,.446-1.1h0a3.111,3.111,0,0,0,2.15.106,1.2,1.2,0,0,0,.609-.831.595.595,0,1,1,1.15.3A2.386,2.386,0,0,1,2440.13,476,2.955,2.955,0,0,1,2438.8,476.288Z" transform="translate(-2324.697 -220.422)" fill="#0c454b"/>
        <path id="패스_37898" data-name="패스 37898" d="M2449.316,474.854a.6.6,0,0,1-.592-.538,4,4,0,0,0-1.81-.438.6.6,0,0,1-.562-.626.6.6,0,0,1,.625-.562c.877.046,2.92.29,2.933,1.563a.6.6,0,0,1-.588.6Zm-.576-.518h0Z" transform="translate(-2324.572 -220.422)" fill="#0c454b"/>
        <path id="패스_37899" data-name="패스 37899" d="M2428.485,485.7a13.785,13.785,0,0,1-5.258-1.377l-.254-.166c-1.511-.982-5.524-3.592-5.741-8.1a.595.595,0,0,1,1.188-.057c.187,3.9,3.83,6.27,5.2,7.162l.265.174a12.234,12.234,0,0,0,4.886,1.186,11.539,11.539,0,0,1,5.487-1.286c1.622,0,3.277-2.995,3.728-4.044a.595.595,0,0,1,1.093.47c-.21.488-2.129,4.763-4.821,4.763a10.79,10.79,0,0,0-4.737,1.02A1.535,1.535,0,0,1,2428.485,485.7Zm.2-1.1h0Zm.13-.087Z" transform="translate(-2324.884 -220.422)" fill="#0c454b"/>
        <path id="패스_37900" data-name="패스 37900" d="M2416.274,472.274a.574.574,0,0,1-.217-.042c-5.48-2.156-16.481-.515-16.593-.5a.595.595,0,0,1-.179-1.176c.465-.071,11.428-1.707,17.207.568a.595.595,0,0,1-.218,1.148Z" transform="translate(-2325.163 -220.422)" fill="#0c454b"/>
        <path id="패스_37901" data-name="패스 37901" d="M2396.5,470.341a.594.594,0,0,1-.207-1.152c.6-.224,14.851-5.4,23.86.049a.594.594,0,1,1-.615,1.017c-8.517-5.151-22.69,0-22.832.049A.6.6,0,0,1,2396.5,470.341Z" transform="translate(-2325.181 -220.422)" fill="#0c454b"/>
        <path id="패스_37902" data-name="패스 37902" d="M2394.326,473.878a.595.595,0,0,1-.216-1.149c.348-.135,2.122-.759,2.856.184a.594.594,0,1,1-.938.73,2.44,2.44,0,0,0-1.489.2A.59.59,0,0,1,2394.326,473.878Z" transform="translate(-2325.282 -220.422)" fill="#0c454b"/>
        <path id="패스_37903" data-name="패스 37903" d="M2422.946,466.587a.5.5,0,0,1-.067,0,.593.593,0,0,1-.525-.657c.51-4.55-3.111-5.267-3.265-5.295a.594.594,0,0,1-.45-.376,6.714,6.714,0,0,0-5.156-4.79c-2.344-.671-4.816,2.516-4.84,2.549a.6.6,0,0,1-.947-.721c.12-.158,2.983-3.866,6.114-2.972a7.834,7.834,0,0,1,5.832,5.229c1.093.336,4.426,1.759,3.894,6.509A.6.6,0,0,1,2422.946,466.587Z" transform="translate(-2325.047 -220.422)" fill="#0c454b"/>
        <path id="패스_37904" data-name="패스 37904" d="M2425.673,461.962l-.055,0a.6.6,0,0,1-.538-.647c.014-.563-2.348-2.236-4.955-3.507a.595.595,0,0,1,.521-1.069c1.741.849,5.772,3,5.618,4.685A.594.594,0,0,1,2425.673,461.962Z" transform="translate(-2324.918 -220.422)" fill="#0c454b"/>
        <path id="패스_37905" data-name="패스 37905" d="M2418.4,443.6a.6.6,0,0,1-.488-.254c-1.164-1.663-1.828-1.762-2.061-1.735-.385.053-.658.6-.724.793a.595.595,0,0,1-1.127-.38,2.322,2.322,0,0,1,1.677-1.59c1.012-.145,2.057.584,3.209,2.23a.594.594,0,0,1-.146.828A.588.588,0,0,1,2418.4,443.6Z" transform="translate(-2325.003 -220.422)" fill="#0c454b"/>
        <path id="패스_37906" data-name="패스 37906" d="M2401.383,457.866a.6.6,0,0,1-.472-.956,1.546,1.546,0,0,0,.322-.574.86.86,0,0,0-.277-.056.595.595,0,0,1,0-1.189,1.555,1.555,0,0,1,1.352.711c.246.5.092,1.114-.458,1.831A.593.593,0,0,1,2401.383,457.866Zm-.118-1.51h0Z" transform="translate(-2325.198 -220.422)" fill="#0c454b"/>
        <path id="패스_37907" data-name="패스 37907" d="M2393.033,456.677a.559.559,0,0,1-.107-.01.594.594,0,0,1-.479-.691c.529-2.907.182-3.141-.656-3.7a7.3,7.3,0,0,1-1.161-.923c-1.543-1.543-3.5-3.112-3.519-3.128a.594.594,0,1,1,.743-.928c.082.065,2.026,1.624,3.617,3.215a6.088,6.088,0,0,0,.984.777c1.3.875,1.77,1.563,1.162,4.9A.6.6,0,0,1,2393.033,456.677Z" transform="translate(-2325.365 -220.422)" fill="#0c454b"/>
        <path id="패스_37908" data-name="패스 37908" d="M2391.455,463.112h0a.6.6,0,0,1-.592-.6c.007-1.131-.508-1.554-1.665-2.074a1.6,1.6,0,0,0-1.135.09,1.748,1.748,0,0,1-2.262-.549c-.141-.213-.227-.241-.227-.241-.082.008-.306.142-.826.964-.489.771-1.652.554-2.777.344a8.8,8.8,0,0,0-.938-.136.595.595,0,0,1-.669-.974c.377-.33.954-.223,1.826-.059a5.134,5.134,0,0,0,1.578.149c.359-.567.948-1.467,1.8-1.477h.013a1.458,1.458,0,0,1,1.213.77c.168.252.245.278.927.072a2.686,2.686,0,0,1,1.967-.038c1.151.518,2.379,1.231,2.368,3.166A.6.6,0,0,1,2391.455,463.112Zm-10.312-2.279h0Z" transform="translate(-2325.444 -220.422)" fill="#0c454b"/>
        <path id="패스_37909" data-name="패스 37909" d="M2367.411,461.962a.6.6,0,0,1-.406-.16c-.13-.122-3.2-3.029-3.06-6.443a5.907,5.907,0,0,1,2.382-4.362c.268-1.3,1.548-6.609,4.506-6.609a17.556,17.556,0,0,0,3.34-.264c-.031-1.129.121-3.691,2.093-4.085,1.682-.337,7.939-.58,8.963.572a.595.595,0,1,1-.889.79c-.606-.5-5.67-.631-7.841-.2-1.176.235-1.2,2.53-1.111,3.316a.6.6,0,0,1-.4.629,14.566,14.566,0,0,1-4.152.427c-1.859,0-3.094,4.338-3.38,5.858a.6.6,0,0,1-.217.358,4.853,4.853,0,0,0-2.1,3.616c-.122,2.873,2.655,5.5,2.683,5.524a.594.594,0,0,1-.406,1.029Z" transform="translate(-2326.193 -220.422)" fill="#0c454b"/>
        <path id="패스_37910" data-name="패스 37910" d="M2379.9,440.948a.6.6,0,0,1-.594-.578c-.052-1.862,1.976-2.689,3.6-3.355.417-.17.811-.331,1.136-.493,1.693-.847,5.1-.5,5.485-.456a.595.595,0,0,1-.131,1.182c-.945-.1-3.653-.247-4.822.338-.366.182-.78.352-1.218.53-1.357.554-2.895,1.182-2.866,2.221a.6.6,0,0,1-.578.611Z" transform="translate(-2325.459 -223.772)" fill="#0c454b"/>
        <path id="패스_37911" data-name="패스 37911" d="M2397.2,439.051a.6.6,0,0,1-.472-.233,3.177,3.177,0,0,0-2.221-1.429,3.317,3.317,0,0,0-2.242.882.595.595,0,0,1-.835-.847,4.472,4.472,0,0,1,3.149-1.222,4.289,4.289,0,0,1,3.092,1.892.6.6,0,0,1-.471.957Z" transform="translate(-2325.307 -223.876)" fill="#0c454b"/>
        <path id="패스_37912" data-name="패스 37912" d="M2390.383,434.709a.592.592,0,0,1-.551-.372,10.119,10.119,0,0,1-.015-6.4.594.594,0,1,1,1.133.359,9.1,9.1,0,0,0-.014,5.6.6.6,0,0,1-.333.772A.609.609,0,0,1,2390.383,434.709Z" transform="translate(-2325.347 -224.247)" fill="#0c454b"/>
        <path id="패스_37913" data-name="패스 37913" d="M2393.825,424.962a.6.6,0,0,1-.559-.8,4.772,4.772,0,0,1,2.623-2.667,5.369,5.369,0,0,1,4.579.771.595.595,0,1,1-.6,1.027,4.278,4.278,0,0,0-3.566-.683,3.615,3.615,0,0,0-1.919,1.96A.6.6,0,0,1,2393.825,424.962Z" transform="translate(-2325.276 -224.877)" fill="#0c454b"/>
        <path id="패스_37914" data-name="패스 37914" d="M2408.169,424.963a.593.593,0,0,1-.584-.489c-.6-3.286-3.1-3.111-3.386-3.083a.594.594,0,0,1-.137-1.181c.04-.005,3.882-.411,4.692,4.052a.593.593,0,0,1-.478.691A.559.559,0,0,1,2408.169,424.963Z" transform="translate(-2325.144 -224.896)" fill="#0c454b"/>
        <path id="패스_37915" data-name="패스 37915" d="M2471.652,449.7a.594.594,0,0,1-.59-.526c-.1-.853-.521-5.169.808-6.406a1.374,1.374,0,0,1,1.238-.351,3.323,3.323,0,0,0,2.342-.147.446.446,0,0,0,.185-.353c.03-.542.407-1.442,2.553-1.491l.058-.054c.651-.608,2.63-2.455,5.785.179a.595.595,0,0,1-.763.913c-2.348-1.962-3.559-.831-4.21-.223a.99.99,0,0,1-.683.373c-1.091,0-1.546.26-1.552.369a1.628,1.628,0,0,1-.64,1.223,4.164,4.164,0,0,1-3.3.379.2.2,0,0,0-.207.054c-.651.606-.645,3.58-.436,5.4a.6.6,0,0,1-.523.659Z" transform="translate(-2324.174 -220.422)" fill="#0c454b"/>
        <path id="패스_37916" data-name="패스 37916" d="M2481.831,447.161a.595.595,0,0,1-.559-.8,4.513,4.513,0,0,1,5.623-2.5.594.594,0,1,1-.286,1.154c-3.213-.794-4.181,1.655-4.221,1.76A.6.6,0,0,1,2481.831,447.161Z" transform="translate(-2324.083 -220.422)" fill="#0c454b"/>
        <path id="패스_37917" data-name="패스 37917" d="M2474.3,433.683a.592.592,0,0,1-.53-.328,3.108,3.108,0,0,1-.108-2.424,2.981,2.981,0,0,1,2.062-1.585,14.963,14.963,0,0,0,2.049-.753,4.851,4.851,0,0,1,3.364-.442,3.283,3.283,0,0,1,2.314,1.07c.029.034.07.082.086.1a.874.874,0,0,0,.115.007c.116,0,.274-.014.463-.03,1.382-.112,4.62-.374,5.808,2.794a.595.595,0,0,1-1.114.417c-.873-2.327-3.3-2.13-4.6-2.025-.228.018-.419.033-.559.033a1.274,1.274,0,0,1-1.107-.521c-.169-.2-.4-.473-1.6-.668a3.74,3.74,0,0,0-2.7.358,15.829,15.829,0,0,1-2.2.808,1.871,1.871,0,0,0-1.3.914,1.921,1.921,0,0,0,.081,1.423.6.6,0,0,1-.535.856Z" transform="translate(-2324.116 -224.295)" fill="#0c454b"/>
      </g>
      <g id="그룹_444" data-name="그룹 444" transform="translate(72.023 57.714)">
        <path id="패스_37918" data-name="패스 37918" d="M2476.272,435.388s8.423-9.668,17.414-7.851,16.407-1.161,16.662-5.5-3.156.332-6.009,1.672c-2.892,1.359-7.78,1.285-10.579,1.014s-12.187,2.948-14.678,6.145a25.243,25.243,0,0,0-3.181,4.828" transform="translate(-2396.218 -278.136)" fill="#0e484e"/>
        <g id="그룹_422" data-name="그룹 422" transform="translate(40.716 105.762)">
          <path id="패스_37919" data-name="패스 37919" d="M2437.726,397.2l11.76-12.509-3.272,12.509Z" transform="translate(-2436.933 -383.898)" fill="#fff"/>
          <path id="패스_37920" data-name="패스 37920" d="M2446.213,397.993h-8.487a.792.792,0,0,1-.577-1.336l11.759-12.509a.793.793,0,0,1,1.345.743l-3.273,12.51A.793.793,0,0,1,2446.213,397.993Zm-6.653-1.586h6.041l2.33-8.9Z" transform="translate(-2436.933 -383.898)" fill="#0c474d"/>
        </g>
        <g id="그룹_423" data-name="그룹 423" transform="translate(103.365 105.965)">
          <path id="패스_37921" data-name="패스 37921" d="M2511.911,397.4l-9.67-12.509-1.865,13.186Z" transform="translate(-2499.583 -384.101)" fill="#fff"/>
          <path id="패스_37922" data-name="패스 37922" d="M2500.376,398.873a.793.793,0,0,1-.785-.9l1.865-13.186a.792.792,0,0,1,1.412-.374l9.671,12.509a.793.793,0,0,1-.581,1.277l-11.535.676A.374.374,0,0,1,2500.376,398.873Zm2.387-12.008-1.466,10.367,9.069-.532Z" transform="translate(-2499.583 -384.101)" fill="#0c474d"/>
        </g>
        <path id="패스_37923" data-name="패스 37923" d="M2439.063,343.192l2.574-6.758,4.595-6.6,3.375-1.434s3.1.93,3.373.94,13.534,2.664,13.534,2.664,6.981.609,7.717.635,5.71.109,6.542.046,5.64-.442,6.2-.514,8.982-1.055,8.982-1.055l3.413-.064,3,8.049-.645,6.917s-9.571,1.949-10.038,2.115-13.678,5.548-13.958,5.63-3.67,1.88-3.67,1.88l-8.581.248s-5.181-2.394-5.54-2.35-3.213-2.339-3.479-2.622-7.376-4.549-7.376-4.549-3.63-1.406-4.271-1.519S2439.063,343.192,2439.063,343.192Z" transform="translate(-2396.218 -278.136)" fill="#fff"/>
        <path id="패스_37924" data-name="패스 37924" d="M2525.233,353.418c24.559-.317,42.807-31.977,17.22-47.008-7.832-4.6-17.554-4.119-26.34-4.078-14.892.069-25.476.2-49.833-12.362s-38.732-3.272-38.732-3.272-17.333,8.981-16.564,27,21.986,28.253,21.986,28.253S2458.247,354.282,2525.233,353.418Z" transform="translate(-2396.218 -278.136)" fill="#fff"/>
        <ellipse id="타원_23" data-name="타원 23" cx="7.078" cy="5.003" rx="7.078" ry="5.003" transform="matrix(0.178, -0.984, 0.984, 0.178, 56.851, 75.776)" fill="#0e484e"/>
        <ellipse id="타원_24" data-name="타원 24" cx="7.078" cy="5.003" rx="7.078" ry="5.003" transform="matrix(0.178, -0.984, 0.984, 0.178, 77.911, 77.108)" fill="#0e484e"/>
        <path id="패스_37925" data-name="패스 37925" d="M2554.815,321.04c.249.6-.233,2.065-.342,2.666-.988,5.439-3.568,11.169-8.186,14.524a24.54,24.54,0,0,1-7.317,3.591c-2.475.75-5.5,1.528-7.957.353-2.665-1.275-3.062-4.278-4.212-6.667a44.217,44.217,0,0,0-5.256-8.759,10.826,10.826,0,0,0-1.141-1.233c-.178-.159-.928-.524-1-.7,0,0,5.322,12.682,2.7,20.491l-.25,1.8,4.245,1.2-6.844,3.337,8.091.134-.483,1.453,4.018-.4,5.359-1.523,4.417-2.426,2.964-1.847,5.13-4.376,5.1-8.51,1.746-6.364-.345-5.676Z" transform="translate(-2396.218 -278.136)" fill="#efeae0"/>
        <path id="패스_37926" data-name="패스 37926" d="M2413.81,303.318c-1.675,6.218-.156,13.141,3.151,18.559,2.33,3.818,6.425,8.5,11.191,9.069,2.741.329,4.4-.994,6.289-2.714a25,25,0,0,1,8.676-5.617s-7.716,8.44-9.176,20.076c0,0-17.356-9.121-21.183-22.941C2410.055,309.99,2413.809,303.321,2413.81,303.318Z" transform="translate(-2396.218 -278.136)" fill="#efeae0"/>
        <path id="패스_37927" data-name="패스 37927" d="M2525.1,347.275c-.224-.087-.639-.239-1.228-.425a36.235,36.235,0,0,0,.968-4.756,26.692,26.692,0,0,0,.057-4.62,42.022,42.022,0,0,0-.926-6.623c-.478-2.01-.349-2.885-2.093-4.128-8.722-6.216-16.041-9.74-25.886-11.333-9.784-1.583-21.986-3.53-31.762-1.641a62.869,62.869,0,0,0-14.447,4.65c-2.109.976-4.954,2.055-6.647,3.669a30.993,30.993,0,0,0-5.242,6.981,31.838,31.838,0,0,0-3.864,14.343c-.192.023-.384.047-.576.076l.059.386a24.825,24.825,0,0,1,7.288.008l.068-.373s1.92-10.041,8.7-13.83c0,0,18.961,8.1,48.621,2.614a21.908,21.908,0,0,1,1.532,14.393,22.678,22.678,0,0,0-3.16.335c.55-.147-1.223.331-.686.2l.264-.062c16.415-3.919,27.249-.108,28.81.5a.083.083,0,0,1-.052-.073.08.08,0,0,1,.042-.074l.18.346a.311.311,0,0,0,.171-.292A.3.3,0,0,0,2525.1,347.275Z" transform="translate(-2396.218 -278.136)" fill="#0e484e"/>
        <path id="패스_37928" data-name="패스 37928" d="M2431.541,328.616a44.207,44.207,0,0,1,10.7-8.531,23.361,23.361,0,0,1,3.094-1.5c1.047-.468,2.1-.906,3.171-1.326a71.762,71.762,0,0,1,19.988-4.9,91.54,91.54,0,0,1,40.373,6.13A57.8,57.8,0,0,1,2521.036,325a30.756,30.756,0,0,1,6.8,7.847,24.3,24.3,0,0,1,1.486,3.083,29.849,29.849,0,0,0-9.687-8.991c-14.926-10.487-39.676-14.786-57.5-11.276a77.589,77.589,0,0,0-15.834,5.094c-5.074,2.325-10.265,4.355-14.762,7.861Z" transform="translate(-2396.218 -278.136)" fill="#0e484e"/>
        <path id="패스_37929" data-name="패스 37929" d="M2433.981,343.267c-9.155-4.926-18.174-12.339-21.938-22.3a25.192,25.192,0,0,1-.991-13.641,30.263,30.263,0,0,1,9.057-15.719,33.077,33.077,0,0,1,10.075-6.812c7.524-2.875,15.939-2.532,23.638-.578,1.316.338,2.975.9,4.289,1.289a73.117,73.117,0,0,1,6.868,2.875c3.5,1.646,7.061,3.525,10.6,5.112a94.9,94.9,0,0,0,19.321,6.592c7.649,1.664,15.5,1.562,23.3,1.522,9.3-.117,19.473-.112,27.356,5.634.813.589,1.618,1.2,2.393,1.838.058.059,1.539,1.4,1.674,1.534l.51.561,1.018,1.125c.491.578.894,1.238,1.364,1.828.143.209.264.433.4.649l.778,1.309.645,1.382c2.726,6.052,2.078,13.224-.87,19.071a31.8,31.8,0,0,1-27.715,17.5.4.4,0,0,1-.01-.793,30.915,30.915,0,0,0,24.441-13.508c8.73-12.87,4.548-26.58-9.169-33.467-7.05-3.364-15.109-3.16-22.8-3.1-3.932.023-7.867.081-11.826-.1a78.575,78.575,0,0,1-28.725-7c-4.481-1.862-8.976-4.246-13.338-6.326a70.472,70.472,0,0,0-6.708-2.822c-.977-.3-2.492-.772-3.472-1.072-.774-.256-2.784-.641-3.531-.837-6.6-1.277-13.584-1.289-19.924,1.089a31.763,31.763,0,0,0-9.659,6.474c-7.672,7.065-11.543,17.934-7.92,28,2.524,7.025,7.876,12.642,13.729,17.1a55.969,55.969,0,0,0,7.511,4.827.42.42,0,1,1-.373.752Z" transform="translate(-2396.218 -278.136)" fill="#0e484e"/>
        <path id="패스_37930" data-name="패스 37930" d="M2469.032,291.225s11.316-14.129,16.391-13.028S2491.859,289,2492.7,300.4l-4.146-1.125-10.5-3.858Z" transform="translate(-2396.218 -278.136)" fill="#0e484e"/>
        <path id="패스_37931" data-name="패스 37931" d="M2498.122,301.481s8.393-19.4,13.91-19.212,8.211,11.279,9.952,20.047l-8.97.256-11.626-.555Z" transform="translate(-2396.218 -278.136)" fill="#0e484e"/>
        <path id="패스_37932" data-name="패스 37932" d="M2456.688,379.6s3.338,11.305,1.871,18.483c0,0,27.158-3.009,39.914-19.652a7.9,7.9,0,0,0,1.278-3.253s-14.191,5.173-26.621,5.411Z" transform="translate(-2396.218 -278.136)" fill="#0e484e"/>
        <g id="그룹_424" data-name="그룹 424" transform="translate(59.685 155.641)">
          <path id="패스_37933" data-name="패스 37933" d="M2456.311,436.27s1.67,7.085,1.214,8.6,12.045,4.605,12.3,3.036.405-12.3-.962-13.208S2456.311,436.27,2456.311,436.27Z" transform="translate(-2455.903 -433.777)" fill="#fff"/>
          <path id="패스_37934" data-name="패스 37934" d="M2456.743,436.278c.447,1.783.927,3.926,1.226,5.833a9.37,9.37,0,0,1,.123,2.906.3.3,0,0,0-.008-.156,1.631,1.631,0,0,0,.378.29,26.528,26.528,0,0,0,7.672,2.234,10.2,10.2,0,0,0,3.049.14c.062-.012.1-.052.026.006a.442.442,0,0,0-.128.215.36.36,0,0,0-.007.038c0,.007,0-.009,0-.012l.005-.038a66.8,66.8,0,0,0,.029-7.839,19.917,19.917,0,0,0-.548-4.251,1.531,1.531,0,0,0-.139-.319l-.011-.023a.034.034,0,0,0,.016.018,25.926,25.926,0,0,0-6.1.412c-1.369.2-3.846.575-5.188.8-.18.032-.513.081-.694.114l-.011,0a.337.337,0,0,0,.216-.17l.1-.2Zm-.813-.156a.531.531,0,0,1,.33-.249l.011,0,.046-.012.091-.025c1.855-.49,3.829-.956,5.709-1.326a27.681,27.681,0,0,1,6.158-.718,1.7,1.7,0,0,1,1.523.9,15.37,15.37,0,0,1,.885,5.117,57.875,57.875,0,0,1-.084,8.03c-.153,1.54-2.118,1.252-3.159,1.186-1.724-.145-11-2.029-10.489-4.25,0-.013.019-.073.019-.085a2.543,2.543,0,0,0,.048-.3l.018-.33a39.489,39.489,0,0,0-.837-6.227c-.041-.229-.175-.878-.22-1.1a1.241,1.241,0,0,1-.049-.609Z" transform="translate(-2455.903 -433.777)" fill="#0e484e"/>
        </g>
        <g id="그룹_425" data-name="그룹 425" transform="translate(47.661 162.774)">
          <path id="패스_37935" data-name="패스 37935" d="M2463.151,445.818s6.739-4.678,7.549-4.4-1.065,9.592-.6,12.224,2.219,7.692,1.477,7.355-1.7-.338-4.123.27-5.1,1.282-4.3,0-3.652.785-5.946.729-6.41,1.092-9.784-1.674-3.172-4.049-1.957-3.711a13.268,13.268,0,0,0,6,.607c2.295-.472,6.039-1.215,6.056-1.754s-1.289-13.361-1.918-13.7S2462.324,443.95,2463.151,445.818Z" transform="translate(-2443.879 -440.909)" fill="#e0972f"/>
          <path id="패스_37936" data-name="패스 37936" d="M2463.424,445.481a.462.462,0,0,0-.49-.024l.016-.012.039-.027c.324-.231.825-.572,1.153-.8,1.2-.811,2.528-1.711,3.77-2.457a10.783,10.783,0,0,1,2.486-1.23.98.98,0,0,1,.4,0c1.029.2.5,2.84.5,3.627-.182,1.994-.431,3.966-.578,5.928a11.925,11.925,0,0,0,.088,3.537c.464,2.255,1.3,4.3,1.617,6.621.059.527-.278,1.13-.908,1.027-1.195-.473-2.408-.059-3.709.231a27.512,27.512,0,0,1-3.757.8,1.875,1.875,0,0,1-1.456-.32,1.139,1.139,0,0,1-.12-1.4c.007-.021.061-.1.067-.121a.584.584,0,0,0,.158.592.6.6,0,0,0,.193.119c.071.022.062.011.038.014a3.291,3.291,0,0,0-.569.092c-1.144.266-2.478.708-3.642.918-1.4.236-2.978.179-4.563.334a10.308,10.308,0,0,1-6.87-1.734,16,16,0,0,1-1.782-1.537c-.722-.771-1.643-1.639-1.622-2.833a1.209,1.209,0,0,1,1.337-1.042,2.365,2.365,0,0,1,.535.1,13.528,13.528,0,0,0,4.862.7c.8-.077,2.043-.385,2.841-.536a18.111,18.111,0,0,0,3.492-.973c.006,0,.012-.024-.066.079a.7.7,0,0,0-.053.111.5.5,0,0,0-.033.186c0,.018,0-.016,0-.037-.067-1.04-.31-3.535-.409-4.6a74.712,74.712,0,0,0-1.194-8.652.516.516,0,0,0,.069.07.434.434,0,0,0,.076.048l-.055-.033c-.041-.307-.1.562-.2-.8.5-.454.6-.2.571-.267a20.374,20.374,0,0,1,2.719,1.032c1.76.858,3.865,1.63,5.05,3.279Zm-.312.751c-.346-.136-.386-.463-.7-.71a22.171,22.171,0,0,0-6.911-3.217l.024,0c-.039-.064.038.182.528-.263-.095-1.351-.132-.476-.162-.773l-.015-.01a.879.879,0,0,1,.112.078.673.673,0,0,1,.129.139,1.127,1.127,0,0,1,.1.173,16.052,16.052,0,0,1,.7,3.068c.321,1.979.58,3.955.826,5.935.141,1.244.453,3.6.513,4.826a1.157,1.157,0,0,1-.726.939,20.008,20.008,0,0,1-3.76,1.084l-1.466.314a12.992,12.992,0,0,1-6.972-.431l-.084-.022-.044-.008c-.03-.006-.063-.016-.067-.01s-.032,0,0,0a.42.42,0,0,0,.3-.349l.006-.006c0-.043.009.018.023.065a9.677,9.677,0,0,0,2.475,2.681c.14.1.4.3.539.4a9.066,9.066,0,0,0,5.6,1.267,27.9,27.9,0,0,0,5.758-.6c.535-.139,1.664-.455,2.192-.568.461-.088,1.2-.288,1.664.143a.936.936,0,0,1,.165,1.107l-.081.149-.032.056c-.037.043-.016.1-.018-.082a.487.487,0,0,0-.249-.356c1.828.033,3.649-.751,5.491-1.019a4.927,4.927,0,0,1,2.871.154.571.571,0,0,0-.728.282c-.041.075-.028.146-.028.03-.334-2.392-1.285-4.793-1.634-7.216-.206-3.923.923-7.659.923-11.533a1.336,1.336,0,0,0-.032-.2l.009.016.034.042a.47.47,0,0,0,.085.063c.024.019.058.018.079.033s.079,0,.053.007a.057.057,0,0,1-.026,0,27,27,0,0,0-4.711,2.615c-.431.277-1.458.947-1.866,1.219-.113.08-.357.235-.463.31a.653.653,0,0,1-.431.173Z" transform="translate(-2443.879 -440.909)" fill="#0e484e"/>
        </g>
        <g id="그룹_426" data-name="그룹 426" transform="translate(80.52 155.625)">
          <path id="패스_37937" data-name="패스 37937" d="M2491.208,436.27s-1.67,7.085-1.215,8.6-12.044,4.605-12.3,3.036-.405-12.3.961-13.208S2491.208,436.27,2491.208,436.27Z" transform="translate(-2476.738 -433.761)" fill="#fff"/>
          <path id="패스_37938" data-name="패스 37938" d="M2491.589,436.122a1.233,1.233,0,0,1-.049.609c-.05.223-.172.867-.22,1.1a39.52,39.52,0,0,0-.838,6.227l.019.33a2.355,2.355,0,0,0,.048.3l0,.016.016.069c.511,2.221-8.744,4.1-10.488,4.25-1.043.068-3.006.352-3.159-1.186a57.875,57.875,0,0,1-.084-8.03,19.027,19.027,0,0,1,.69-4.673,2.8,2.8,0,0,1,.351-.693c.691-.922,2.039-.65,2.993-.627a56.667,56.667,0,0,1,7.49,1.333c.478.114,1.741.413,2.2.538.1.034.444.114.548.146.079.027.155.033.243.071a.55.55,0,0,1,.236.218Zm-.814.156.1.2a.353.353,0,0,0,.216.17l-.011,0c-.184-.029-.507-.085-.695-.114-1.331-.226-3.827-.606-5.187-.8a25.878,25.878,0,0,0-6.1-.412.035.035,0,0,0,.016-.018l-.012.023a.349.349,0,0,0-.04.072,1.9,1.9,0,0,0-.1.247,19.917,19.917,0,0,0-.548,4.251,66.8,66.8,0,0,0,.029,7.839l.005.038s0,.019,0,.012a.237.237,0,0,0-.006-.038.45.45,0,0,0-.129-.215c-.078-.058-.035-.018.027-.006a10.237,10.237,0,0,0,3.049-.14,26.533,26.533,0,0,0,7.672-2.234,1.634,1.634,0,0,0,.378-.29.236.236,0,0,0-.015.067.413.413,0,0,0,.007.089,9.368,9.368,0,0,1,.122-2.906c.3-1.9.781-4.052,1.226-5.833Z" transform="translate(-2476.738 -433.761)" fill="#0e484e"/>
        </g>
        <g id="그룹_427" data-name="그룹 427" transform="translate(78.878 162.779)">
          <path id="패스_37939" data-name="패스 37939" d="M2484.368,445.818s-6.74-4.678-7.549-4.4,1.065,9.592.6,12.224-2.22,7.692-1.477,7.355,1.7-.338,4.122.27,5.106,1.282,4.3,0,3.652.785,5.946.729,6.41,1.092,9.784-1.674,3.171-4.049,1.957-3.711a13.271,13.271,0,0,1-6.006.607c-2.294-.472-6.039-1.215-6.056-1.754s1.289-13.361,1.919-13.7S2485.2,443.95,2484.368,445.818Z" transform="translate(-2475.096 -440.915)" fill="#e0972f"/>
          <path id="패스_37940" data-name="패스 37940" d="M2484.406,446.232a.65.65,0,0,1-.43-.173c-.122-.086-.344-.228-.463-.31-.41-.278-1.444-.944-1.866-1.219a25.972,25.972,0,0,0-4.737-2.618c-.027,0,.037.007.053-.007s.053-.015.079-.033a.343.343,0,0,0,.128-.121,1.336,1.336,0,0,0-.032.2c0,3.875,1.129,7.61.923,11.533-.35,2.422-1.3,4.825-1.634,7.216a.492.492,0,0,0,0,.058.5.5,0,0,0-.03-.088.574.574,0,0,0-.729-.282,4.929,4.929,0,0,1,2.871-.154c1.842.269,3.664,1.052,5.492,1.019a.3.3,0,0,0-.1.068.5.5,0,0,0-.149.288c0,.181.02.125-.017.082l-.032-.056-.081-.149a.935.935,0,0,1,.165-1.107c.46-.431,1.2-.232,1.664-.143.515.137,1.67.413,2.192.568a27.888,27.888,0,0,0,5.758.6,9.072,9.072,0,0,0,5.6-1.267c.247-.2.58-.413.812-.632a8.814,8.814,0,0,0,2.2-2.451c.044-.172.006,0,.062.057a.416.416,0,0,0,.267.233c.034,0,.013,0,0,0a1.013,1.013,0,0,0-.2.04,13.482,13.482,0,0,1-6.237.584c-1.714-.369-3.469-.693-5.163-1.231-.577-.208-1.479-.464-1.524-1.259.06-1.213.376-3.6.513-4.826.246-1.98.505-3.956.826-5.935a15.992,15.992,0,0,1,.694-3.068l.042-.077a.677.677,0,0,1,.061-.1.689.689,0,0,1,.13-.139.9.9,0,0,1,.112-.078l-.015.01c-.03.3-.067-.578-.162.773.489.445.567.2.527.263l.025,0a22.184,22.184,0,0,0-6.911,3.217,2.087,2.087,0,0,0-.308.345.757.757,0,0,1-.39.365Zm-.312-.751c1.186-1.651,3.29-2.42,5.051-3.28a20.5,20.5,0,0,1,2.719-1.031c-.026.063.072-.187.57.267-.1,1.366-.153.5-.194.8l-.055.033a.443.443,0,0,0,.076-.048.418.418,0,0,0,.068-.07,74.742,74.742,0,0,0-1.193,8.652c-.1,1.077-.341,3.55-.409,4.6,0,.021,0,.055,0,.037a.513.513,0,0,0-.033-.186.658.658,0,0,0-.053-.111c-.078-.1-.072-.08-.066-.079a18.086,18.086,0,0,0,3.492.973c.8.147,2.04.461,2.841.536a13.5,13.5,0,0,0,4.861-.7,2.38,2.38,0,0,1,.536-.1,1.207,1.207,0,0,1,1.336,1.042c.024,1.194-.9,2.061-1.621,2.833a15.915,15.915,0,0,1-1.782,1.537,10.311,10.311,0,0,1-6.871,1.734c-1.585-.155-3.163-.1-4.563-.334-1.162-.208-2.5-.651-3.641-.918a3.3,3.3,0,0,0-.569-.092c-.025,0-.033.008.037-.014a.556.556,0,0,0,.194-.119.588.588,0,0,0,.158-.592.04.04,0,0,1,.008.015l.059.106a1.314,1.314,0,0,1,.186.787,1,1,0,0,1-.307.615,1.868,1.868,0,0,1-1.455.32,27.328,27.328,0,0,1-3.757-.8c-1.3-.29-2.514-.7-3.71-.231a.764.764,0,0,1-.82-.445,1.274,1.274,0,0,1-.088-.582c.316-2.314,1.154-4.367,1.617-6.621a11.956,11.956,0,0,0,.089-3.537c-.147-1.962-.4-3.934-.579-5.928a9.325,9.325,0,0,1,.033-3.232c.249-.561.876-.442,1.307-.255a48.524,48.524,0,0,1,6.429,3.973c.17.114.412.29.576.4l.016.012a.381.381,0,0,0-.33-.044l-.161.068Z" transform="translate(-2475.096 -440.915)" fill="#0e484e"/>
        </g>
        <g id="그룹_428" data-name="그룹 428" transform="translate(57.843 144.852)">
          <path id="패스_37941" data-name="패스 37941" d="M2491.108,423.4a17.515,17.515,0,0,1,.564,4.619c-.11,2.125-.423,6.022.24,7.135s1.27.911.511,2.025-14.17.4-14.626,0c0,0-1.784.1-2.154-.355-.785-.972-.961-2.9-1.822-3.055s-2.126.272-1.923,1.487-1.721,1.518-2.176,1.923-13.867,1.113-14.626,0-.152-.911.511-2.025.35-5.01.24-7.135a13.406,13.406,0,0,1,.766-4.512" transform="translate(-2454.06 -422.988)" fill="#10494f"/>
          <path id="패스_37942" data-name="패스 37942" d="M2491.513,423.292a16.765,16.765,0,0,1,.67,4.613,37.622,37.622,0,0,0,.046,6.221c.162,1.533,1.972,1.552.781,3.331a1.587,1.587,0,0,1-1.058.647,18.359,18.359,0,0,1-3.292.336c-2.446.076-4.875.035-7.315-.105a25.146,25.146,0,0,1-3.67-.39.97.97,0,0,1-.378-.2l.544.189c-2.179.062-2.858-.1-3.632-2.248a4.743,4.743,0,0,0-.555-1.163c-.228-.039-.953.04-.992.406a.7.7,0,0,0,.01.23,1.944,1.944,0,0,1-1.046,1.942c-.621.377-1.135.493-1.6.816a17.375,17.375,0,0,1-3.65.444c-2.575.143-5.144.215-7.725.132a14.07,14.07,0,0,1-3.357-.4,1.762,1.762,0,0,1-.6-.318c-.452-.469-.881-1.333-.454-1.961.277-.408.574-.6.8-.986a3.572,3.572,0,0,0,.294-1.256c.286-2.523-.277-5.141.188-7.664a14.823,14.823,0,0,1,.725-2.531.4.4,0,0,1,.75.258,14.217,14.217,0,0,0-.635,3.641,63.275,63.275,0,0,1,.246,6.406,4.531,4.531,0,0,1-.428,1.828,7.369,7.369,0,0,1-.772,1.021c.007.014.04-.107.031-.135-.014-.044.064.142.165.28l.078.113a.314.314,0,0,0-.062-.074,26.462,26.462,0,0,0,5.6.311,68.914,68.914,0,0,0,8.108-.534c.072-.016.066-.02.026,0a.587.587,0,0,0-.151.1c.584-.482,1.44-.576,1.886-1.05.043-.063.043-.065.045-.107a2.5,2.5,0,0,1,0-.762c.267-1.771,3.111-2.353,3.928-.836.47.795.817,2.083,1.139,2.466a4.922,4.922,0,0,0,1.56.13l.544.188a.584.584,0,0,0-.154-.1c-.016-.007-.029-.01-.017-.007l.052.014a64.548,64.548,0,0,0,6.855.512,53.583,53.583,0,0,0,5.363-.029,6.322,6.322,0,0,0,1.546-.255c.016,0,.037-.033-.038.048-.03.048.028-.04.034-.048a2.189,2.189,0,0,0,.2-.344c.01-.024,0-.017,0,.022a.161.161,0,0,0,.021.071c-.124-.15-.393-.452-.541-.656a3.191,3.191,0,0,1-.6-1.521,20.662,20.662,0,0,1-.039-3.741c.047-1.02.225-2.586.19-3.578a18.8,18.8,0,0,0-.477-3.507.42.42,0,0,1,.814-.2Z" transform="translate(-2454.06 -422.988)" fill="#0e484e"/>
        </g>
        <path id="패스_37943" data-name="패스 37943" d="M2456.261,411.406a31.815,31.815,0,0,1,1.093,6.052,5.963,5.963,0,0,1-.175,2.563c-.646,1.043-1.511,1.986-2.181,2.975a.4.4,0,0,1-.333.451c-.506.065-.524-.59-.432-.918a12.87,12.87,0,0,1,1.545-3.175c.148-2.49-.326-5.221-.346-7.816a.424.424,0,0,1,.829-.132Z" transform="translate(-2396.218 -278.136)" fill="#0e484e"/>
        <path id="패스_37944" data-name="패스 37944" d="M2456.311,413.125l.3,4.139-.69,3.959-1.08,1.079v1.788s1.683.3,1.77.371,3.013-.181,3.013-.181h5.3l4.5.477h3.133c.1,0,6.351-.174,6.351-.174l5.023-.408,7.249-1.145-13.036-10.079-6.676-1.782-2.466-2.463-2.841,1.349Z" transform="translate(-2396.218 -278.136)" fill="#fff"/>
        <g id="그룹_429" data-name="그룹 429" transform="translate(57.147 143.152)">
          <path id="패스_37945" data-name="패스 37945" d="M2457.525,421.543s-3.346.584-3.357,2.737c0,.754,1.49.531,2.854.111" transform="translate(-2453.365 -421.287)" fill="#fff"/>
          <path id="패스_37946" data-name="패스 37946" d="M2457.569,421.794c-.92.494-2.184,1.112-2.529,2.048a1.339,1.339,0,0,0-.065.426.479.479,0,0,0-.05-.162.337.337,0,0,0-.141-.146c-.028-.011-.023,0,.005.008a5.38,5.38,0,0,0,1.622.031.614.614,0,0,1,.554.2c.318.26-.017.82-.274.859-.958.4-2.46.96-3.18-.18a2.365,2.365,0,0,1,.885-2.648,4.632,4.632,0,0,1,3.086-.933.263.263,0,0,1,.087.5Z" transform="translate(-2453.365 -421.287)" fill="#0e484e"/>
        </g>
        <path id="패스_37947" data-name="패스 37947" d="M2454.054,424.706a18.233,18.233,0,0,1,9.455-.812,26.251,26.251,0,0,0,4.5.307c7.323-.048,14.671-.467,21.975-1.062a7.136,7.136,0,0,0,1.125-.18.211.211,0,0,1,.145.394,47.58,47.58,0,0,1-9.251,1.711,96.883,96.883,0,0,1-14.034.623,23.364,23.364,0,0,1-4.751-.611,14.753,14.753,0,0,0-4.447-.385,22.211,22.211,0,0,0-4.509.709.363.363,0,0,1-.212-.694Z" transform="translate(-2396.218 -278.136)" fill="#0e484e"/>
        <path id="패스_37948" data-name="패스 37948" d="M2460.574,353.985,2475.519,355c29.259-16.291,51.2-6.955,51.2-6.955l-8.391,3.77c2.388.084,9.075-.305,9.635-.307-.225,1.527-8.04,6.711-8.04,6.711l8.058-.712a.116.116,0,0,1,.1.183c-3.381,4.566-8.382,8.213-12.935,11.5-15.535,11.218-36.091,13.005-54.593,10.776-11.139-1.342-22.064-4.1-31.385-10.5-4.484-3.073-8.992-7.516-9.012-13.3-.024-6.8,7.2-11.631,13.288-12.562C2443.2,342.12,2453.433,347.669,2460.574,353.985Z" transform="translate(-2396.218 -278.136)" fill="#fff"/>
        <path id="패스_37949" data-name="패스 37949" d="M2497.558,376.963c3.3-2.005,4.635-5.93,10.873-8.141,5.534-1.962,9.31-1.493,11.919-2.187,1.731-.46,4.8-.8,6.6-1.665.476-.228,1.022.6.754,1.047-1.682,2.822-1.949,4.911-4.2,7.3-3.557,3.769-11.108,3.558-16.413,3.6C2502.606,376.944,2502.38,377.7,2497.558,376.963Z" transform="translate(-2396.218 -278.136)" fill="#0e484e"/>
        <path id="패스_37950" data-name="패스 37950" d="M2498.465,376.943c2.474.711,5.154-.693,9.451,1.372,3.518,1.691,4.706,5.343,8.161,7.143.722.376,1.406.748,2.127,1.039.325.132.265.522-.058.656a13.694,13.694,0,0,1-5.905,1.269,14.923,14.923,0,0,1-9.941-4.139C2500.265,382.142,2498.411,379.845,2498.465,376.943Z" transform="translate(-2396.218 -278.136)" fill="#0e484e"/>
        <ellipse id="타원_25" data-name="타원 25" cx="5.843" cy="9.177" rx="5.843" ry="9.177" transform="translate(60.829 84.502) rotate(-88.191)" fill="#0e484e"/>
        <path id="패스_37951" data-name="패스 37951" d="M2459.651,353.858c-8.038-6.985-20.531-12.565-31.024-8.311-4.918,2.017-9.61,6.752-8.561,12.436.581,3.663,3.041,6.673,5.809,9.032,13.387,10.757,31.487,13.089,48.172,13.31,13.133-.13,26.6-2.78,37.735-10,4.609-3.13,9.4-6.529,13.179-10.588q1-1.094,1.89-2.273a.662.662,0,0,0,.507,1.032c-1.084.11-6.5.566-7.993.7a.763.763,0,0,1-.487-1.39,68.47,68.47,0,0,0,6.3-4.661,7.422,7.422,0,0,0,1.446-1.542l.74.853c-2.878.107-6.853.354-9.687.294a.732.732,0,0,1-.274-1.4l8.424-3.75.013,1.281a27.693,27.693,0,0,0-3.074-1c-16.123-4.182-33.407-.206-47.784,7.675a.4.4,0,0,1-.386-.693,83.186,83.186,0,0,1,12.141-5.646c11.525-4.264,24.374-5.706,36.382-2.661a28.776,28.776,0,0,1,3.269,1.039.7.7,0,0,1,.012,1.281l-8.4,3.808-.275-1.4c1.421.038,3.343-.051,4.776-.1.006,0,4.862-.223,4.869-.222a.711.711,0,0,1,.725.854,2.073,2.073,0,0,1-.2.558,16.986,16.986,0,0,1-3.827,3.592c-1.423,1.083-2.867,2.1-4.349,3.1l-.487-1.39c.782-.073,6.372-.57,7.115-.639l.712-.064.177-.016.045,0a.879.879,0,0,1,.146-.005.894.894,0,0,1,.777,1.237c-2.888,4.054-6.922,7.224-10.843,10.155-12.167,9.645-28,13.457-43.3,13.487-16.16-.191-33.231-2.484-46.758-12.011-3.151-2.283-6.129-5.1-7.671-8.758-2.145-5.071-.591-10.047,3.523-13.548,9.419-7.979,23.271-4.231,32.51,2.159a48.379,48.379,0,0,1,4.546,3.548.42.42,0,0,1-.556.629Z" transform="translate(-2396.218 -278.136)" fill="#0e484e"/>
        <g id="그룹_431" data-name="그룹 431" transform="translate(45.964 96.484)">
          <g id="그룹_430" data-name="그룹 430">
            <path id="패스_37952" data-name="패스 37952" d="M2462.795,375.177s-20.062,2.792-20.166,3.929,6.929,45.606,7.757,45.606,12.513-5.171,12.926-4.964,16.236,3.62,16.754,3.309,4.136-3.516,4.653-3.1,11.893,4.757,11.686,3.206,10.652-43.331,9.618-43.951-16.857-4.24-17.374-4.033-6.722,4.343-7.239,4.343S2462.795,375.177,2462.795,375.177Z" transform="translate(-2442.182 -374.62)" fill="#fff"/>
            <path id="패스_37953" data-name="패스 37953" d="M2462.829,375.536c-6.277,1-12.818,1.807-18.959,3.428a4.287,4.287,0,0,0-.826.327c-.037.017-.051.049-.016,0a.282.282,0,0,0,.042-.1c.006-.059,0-.037,0-.047.109,1.144.518,3.839.7,5.03,2.139,13.232,4.209,27.432,6.981,40.1.088-.029-.538-.206-.367-.14,0-.005-.013,0,0,0l.074-.02c.174-.049.349-.108.527-.171,3.139-1.152,8.071-3.35,11.225-4.515a7.186,7.186,0,0,1,.871-.265l.079-.014a.84.84,0,0,1,.241.007c.423.118,1.024.252,1.487.361,4.69,1.028,9.456,2.073,14.184,2.834a7.923,7.923,0,0,0,.852.09.328.328,0,0,0-.113.027.281.281,0,0,0-.067.041l.049-.034c1.445-1.07,2.755-2.422,4.436-3.143a1.009,1.009,0,0,1,.84.076c.11.075.031.018.036.023.3.154.7.324,1.044.46a67.65,67.65,0,0,0,7.55,2.56,9.233,9.233,0,0,0,2.175.369c.08.005.164-.042.056.013a.46.46,0,0,0-.2.389c0,.048,0,.028,0-.039a1,1,0,0,1,0-.107c.209-1.9.939-4.619,1.335-6.506,2.446-10.468,5.126-20.9,7.41-31.391a43.555,43.555,0,0,0,.987-5.729.486.486,0,0,0,.227.3c.024.015,0,0,0,0l-.036-.018-.078-.029c-1.956-.654-4.137-1.157-6.146-1.663-3.381-.806-6.774-1.637-10.192-2.253-.156-.026-.3-.046-.446-.059-.011,0-.086,0-.009-.005a.194.194,0,0,0,.066-.023c.03-.018-.007,0-.007,0-.865.5-3.228,1.991-4.132,2.556-.894.527-1.909,1.207-2.858,1.649a1.278,1.278,0,0,1-.341.106.364.364,0,0,1-.167,0c-.4-.056-.987-.2-1.371-.287-5.127-1.214-12-2.906-17.134-4.189Zm-.086-.722c4.251.945,14.583,3.4,18.659,4.194,2.08-1.13,4.739-2.987,6.869-4.252l.125-.064a.3.3,0,0,1,.086-.034,1.016,1.016,0,0,1,.166-.032.869.869,0,0,1,.192,0l.128.009c3.618.555,7.165,1.432,10.731,2.234,2.136.527,4.337.981,6.434,1.7l.145.069c.03.017.034.015.086.047a.755.755,0,0,1,.339.57,34.273,34.273,0,0,1-.971,6.19c-2.249,10.459-4.9,21.019-7.326,31.437-.329,1.406-.947,4.078-1.215,5.481-.036.257-.108.585-.111.733,0-.034,0-.02,0,.062a.954.954,0,0,1-.007.175.909.909,0,0,1-.412.635,2.521,2.521,0,0,1-1.659.138,32.624,32.624,0,0,1-4.777-1.307,49.41,49.41,0,0,1-5.881-2.3.48.48,0,0,0,.216.078c.081,0,.059-.005.037,0a23.838,23.838,0,0,0-3.721,2.677,2.542,2.542,0,0,1-.626.413,3.725,3.725,0,0,1-1.366-.054c-4.29-.7-8.465-1.633-12.7-2.553-.837-.2-2.189-.477-3.01-.714-.045-.019-.229-.082-.018,0,.061.022.207,0,.121.012-.436.112-.995.331-1.413.484-2.828,1.072-7.668,3.172-10.5,4.195a4.181,4.181,0,0,1-.949.256c.139.074-.526-.113-.458-.17a.748.748,0,0,1-.178-.253,15.1,15.1,0,0,1-.618-2.326c-2.68-13.745-4.764-27.581-6.763-41.436-.081-.646-.183-1.3-.22-1.962a.545.545,0,0,1,.017-.145c.15-.912,3.738-1.388,4.591-1.629,5.235-1.032,10.666-1.813,15.953-2.554Z" transform="translate(-2442.182 -374.62)" fill="#0e484e"/>
          </g>
          <path id="패스_37954" data-name="패스 37954" d="M2463.163,375.177c.308,14.752.49,29.516-.126,44.262a.348.348,0,0,1-.694,0c-.157-3.689-.239-7.377-.275-11.066-.066-7.377-.008-14.754.11-22.131q.077-5.532.25-11.064a.368.368,0,0,1,.735,0Z" transform="translate(-2442.182 -374.62)" fill="#0e484e"/>
          <path id="패스_37955" data-name="패스 37955" d="M2481.777,379.532c-.139,14.245-.405,28.5-1.468,42.71a.348.348,0,0,1-.694-.024c-.044-3.564-.014-7.127.061-10.687.158-7.122.439-14.239.781-21.354q.245-5.336.586-10.67a.368.368,0,0,1,.734.025Z" transform="translate(-2442.182 -374.62)" fill="#0e484e"/>
          <path id="패스_37956" data-name="패스 37956" d="M2489.221,376.144c-1.1,14.474-2.338,28.949-4.363,43.329a.348.348,0,0,1-.691-.07c.2-3.627.469-7.247.786-10.862.641-7.231,1.405-14.448,2.229-21.66q.606-5.411,1.308-10.81a.368.368,0,0,1,.731.073Z" transform="translate(-2442.182 -374.62)" fill="#0e484e"/>
          <path id="패스_37957" data-name="패스 37957" d="M2446.169,380.858c4.474-.9,9.041-1.831,13.637-2.694a.535.535,0,0,1,.631.54l-.115,9.981-.158,9.981a.675.675,0,0,1-.588.658c-1.6.217-3.2.451-4.807.655l-4.812.618a.659.659,0,0,1-.741-.539l-.839-4.842c-.72-4.459-1.561-9.9-2.208-14.358Zm.574.425c1.269,5.9,2.688,12.6,3.778,18.539l-.741-.539,4.806-.67c1.6-.225,3.207-.421,4.81-.633l-.588.658.256-9.979.3-9.977.63.54c-4.366.722-8.761,1.372-13.25,2.061Z" transform="translate(-2442.182 -374.62)" fill="#0e484e"/>
          <path id="패스_37958" data-name="패스 37958" d="M2450.2,403.092c3.136-.751,6.353-1.532,9.593-2.254a.509.509,0,0,1,.618.5l.1,8.377c.039,2.792.044,5.584.059,8.377a.664.664,0,0,1-.4.613c-.005,0-3.354,1.463-3.361,1.467-1.116.493-2.242.962-3.362,1.444a.687.687,0,0,1-.948-.526c-.88-5.815-1.635-12.147-2.3-18Zm.575.425c1.068,5.605,2.218,11.762,3.077,17.369l-.947-.525c1.939-.84,4.749-2.055,6.727-2.884l-.406.617c.014-4.848.095-11.836.158-16.754l.619.5c-3.033.587-6.091,1.116-9.228,1.674Z" transform="translate(-2442.182 -374.62)" fill="#0e484e"/>
          <path id="패스_37959" data-name="패스 37959" d="M2465.471,379.756c4.542.788,9.211,1.572,13.871,2.448a.525.525,0,0,1,.428.543c-.17,5.282-.387,13.4-.589,18.619a.666.666,0,0,1-.715.64l-6.413-.441-6.41-.493a.661.661,0,0,1-.617-.662l.04-5.226c.091-4.8.246-10.645.405-15.428Zm.44.562c.193,6.3.431,13.8.444,20.092l-.616-.663,6.414.438,6.41.49-.715.639c.219-5.2.6-13.356.858-18.609l.429.543c-4.372-.917-8.735-1.926-13.224-2.93Z" transform="translate(-2442.182 -374.62)" fill="#0e484e"/>
          <path id="패스_37960" data-name="패스 37960" d="M2465.451,404.592c4.178.065,8.468.09,12.776.224a.554.554,0,0,1,.535.562c-.056,3.168-.191,9.528-.278,12.694a.669.669,0,0,1-.743.647q-6.066-.606-12.119-1.329a.639.639,0,0,1-.575-.641c.033-3.952.229-8.208.4-12.157Zm.481.529c.16,3.4.371,8.287.4,11.628l-.575-.64q6.069.574,12.124,1.275l-.743.647c.108-3.16.365-9.517.506-12.675l.534.575c-4.033-.21-8.085-.531-12.249-.81Z" transform="translate(-2442.182 -374.62)" fill="#0e484e"/>
          <path id="패스_37961" data-name="패스 37961" d="M2491.25,378.391c3.553.9,7.226,1.8,10.883,2.8a.519.519,0,0,1,.37.618c-1,4.754-2.353,11.435-3.375,16.112a.666.666,0,0,1-.757.518l-4.5-.677-4.5-.708a.682.682,0,0,1-.572-.748c.169-1.517.365-3.032.553-4.547.519-4.141,1.287-9.216,1.9-13.363Zm.384.6c-.381,5.129-.923,12.425-1.481,17.458l-.572-.748,4.5.688,4.495.719-.757.519c.6-2.678,1.19-5.357,1.812-8.029l1.845-8.022.37.618c-3.375-1.007-6.734-2.1-10.212-3.2Z" transform="translate(-2442.182 -374.62)" fill="#0e484e"/>
          <path id="패스_37962" data-name="패스 37962" d="M2488.98,399.694c2.882.209,5.878.38,8.886.67a.561.561,0,0,1,.492.68c-.509,2.651-1.019,5.3-1.56,7.947a.678.678,0,0,1-.766.535c-2.559-.354-5.115-.73-7.665-1.148a.634.634,0,0,1-.55-.7c.29-2.658.728-5.359,1.163-7.986Zm.436.567c-.057,2.2-.142,5.4-.316,7.541l-.549-.7c2.564.322,5.122.685,7.677,1.071l-.766.535c.575-2.638,1.181-5.269,1.789-7.9l.491.679c-2.728-.343-5.47-.805-8.326-1.228Z" transform="translate(-2442.182 -374.62)" fill="#0e484e"/>
          <path id="패스_37963" data-name="패스 37963" d="M2487.611,410.558c2.532.108,5.161.189,7.806.364a.549.549,0,0,1,.5.645c-.294,1.992-.9,6-1.219,7.985a.674.674,0,0,1-.769.562c-2.46-.434-4.915-.888-7.362-1.387a.632.632,0,0,1-.52-.733c.427-2.482.995-4.994,1.563-7.436Zm.424.575c-.2,2.323-.4,4.775-.715,7.06l-.52-.733c2.457.4,4.905.843,7.349,1.307l-.795.557.723-3.973.747-3.968.5.645c-2.387-.245-4.79-.584-7.29-.9Z" transform="translate(-2442.182 -374.62)" fill="#0e484e"/>
        </g>
        <g id="그룹_432" data-name="그룹 432" transform="translate(38.395 116.375)">
          <path id="패스_37964" data-name="패스 37964" d="M2448.794,399.681c1.411-3.975-3.584-4.542-6-4.47a7.7,7.7,0,0,0-7.331,6.329,8.25,8.25,0,0,0,8.463,9.93c6.283-.008,7.95-3.412,5.642-5.164" transform="translate(-2434.613 -394.511)" fill="#fff"/>
          <path id="패스_37965" data-name="패스 37965" d="M2443.908,412.164a8.939,8.939,0,0,1-9.131-10.755,8.442,8.442,0,0,1,7.992-6.892c1.12-.034,4.906.015,6.384,2.044a3.455,3.455,0,0,1,.295,3.352.694.694,0,0,1-1.308-.464,2.137,2.137,0,0,0-.108-2.071c-.858-1.177-3.354-1.526-5.222-1.474a7.053,7.053,0,0,0-6.67,5.767,7.824,7.824,0,0,0,1.6,6.408,7.649,7.649,0,0,0,6.171,2.7h.013c3.526,0,5.489-1.152,5.87-2.287a1.466,1.466,0,0,0-.647-1.631.694.694,0,1,1,.839-1.105,2.79,2.79,0,0,1,1.123,3.178c-.524,1.559-2.686,3.227-7.183,3.233Z" transform="translate(-2434.613 -394.511)" fill="#0c474d"/>
        </g>
        <g id="그룹_433" data-name="그룹 433" transform="translate(46.649 121.196)">
          <path id="패스_37966" data-name="패스 37966" d="M2443.237,400.792c.509-.566,7.094-2.06,7.609,1.092.864,5.291-5.321,5.17-6.027,4.892" transform="translate(-2442.866 -399.332)" fill="#fff"/>
          <path id="패스_37967" data-name="패스 37967" d="M2442.964,400.547a5.531,5.531,0,0,1,2.3-.931c1.93-.379,4.546-.681,5.886,1.187a2.98,2.98,0,0,1,.419,1.349,4.272,4.272,0,0,1-2.095,4.458,6.534,6.534,0,0,1-4.136.629c-.252-.058-.954-.122-.8-.572a.325.325,0,0,1,.386-.176,7.272,7.272,0,0,0,3.893-.979,3.272,3.272,0,0,0,1.176-3.991,3.059,3.059,0,0,0-2.434-.969,11.378,11.378,0,0,0-3.924.439c-.072.022-.138.066-.133.047a.367.367,0,0,1-.546-.491Z" transform="translate(-2442.866 -399.332)" fill="#0c474d"/>
        </g>
        <g id="그룹_434" data-name="그룹 434" transform="translate(101.366 115.106)">
          <path id="패스_37968" data-name="패스 37968" d="M2500.038,398.412c-1.41-3.975,3.585-4.542,6-4.47a7.7,7.7,0,0,1,7.331,6.329,8.25,8.25,0,0,1-8.463,9.93c-6.283-.008-7.95-3.412-5.642-5.164" transform="translate(-2497.584 -393.242)" fill="#fff"/>
          <path id="패스_37969" data-name="패스 37969" d="M2504.924,410.895h-.014c-4.5-.006-6.66-1.674-7.183-3.233a2.79,2.79,0,0,1,1.123-3.178.694.694,0,1,1,.839,1.1,1.465,1.465,0,0,0-.647,1.632c.381,1.135,2.344,2.282,5.87,2.286h.012a7.65,7.65,0,0,0,6.172-2.7,7.832,7.832,0,0,0,1.6-6.408,7.053,7.053,0,0,0-6.671-5.767c-1.873-.048-4.363.3-5.221,1.474a2.138,2.138,0,0,0-.109,2.071.693.693,0,1,1-1.307.464,3.455,3.455,0,0,1,.295-3.352c1.479-2.029,5.263-2.08,6.383-2.044a8.441,8.441,0,0,1,7.992,6.892,8.939,8.939,0,0,1-9.131,10.755Z" transform="translate(-2497.584 -393.242)" fill="#0c474d"/>
        </g>
        <g id="그룹_435" data-name="그룹 435" transform="translate(100.998 119.918)">
          <path id="패스_37970" data-name="패스 37970" d="M2505.6,399.523c-.509-.565-7.095-2.059-7.609,1.092-.864,5.291,5.321,5.17,6.026,4.892" transform="translate(-2497.216 -398.054)" fill="#fff"/>
          <path id="패스_37971" data-name="패스 37971" d="M2505.323,399.769c-1.556-.523-5.439-1.027-6.491.483a3.7,3.7,0,0,0,.008,2.634c.64,1.54,2.507,2.1,4.069,2.294a5.252,5.252,0,0,0,1.071.035.3.3,0,0,1,.146.577c-2.324.723-5.471.053-6.551-2.365a4.892,4.892,0,0,1-.316-2.544,2.971,2.971,0,0,1,.419-1.349c1.56-2.265,5.753-1.507,7.854-.511a1.294,1.294,0,0,1,.337.255.367.367,0,0,1-.546.491Z" transform="translate(-2497.216 -398.054)" fill="#0c474d"/>
        </g>
        <g id="그룹_443" data-name="그룹 443" transform="translate(0 79.887)">
          <g id="그룹_436" data-name="그룹 436">
            <path id="패스_37972" data-name="패스 37972" d="M2439.593,387.957s-9.756-.9-10.08-.142-9.33,6.863-19.863,4.83-12.545-11.731-12.806-15.756c-.29-4.47.355-13.068,7.68-16.718,9.686-4.827,23.345,2.3,26.059,9.73,1.421,3.885,2.191,8.069,1.63,10.2S2439.387,387.637,2439.593,387.957Z" transform="translate(-2396.218 -358.023)" fill="#fff"/>
            <path id="패스_37973" data-name="패스 37973" d="M2439.839,388.131c-.569.282-.164.072-.305.137l-.03,0-.06-.005c-.479-.044-1.328-.1-1.819-.14a45.2,45.2,0,0,0-7.676-.125.7.7,0,0,0-.152.048c-.016.006-.008.01.017-.02-1,1.2-3.165,2.242-4.738,3-9.757,4.453-22.972,3.581-27.339-7.708-2.743-7.036-2.032-17.311,4.285-22.244,8.446-6.555,22.894-1.723,28.174,6.853a25.214,25.214,0,0,1,2.386,7.576,13.1,13.1,0,0,1,.029,4.894,4.9,4.9,0,0,0,1.365,2.217,39.3,39.3,0,0,0,4.295,3.879c.185.152.946.754,1.141.915l.193.16.1.087.052.047a.379.379,0,0,1,.11.2.4.4,0,0,1-.028.237Zm-.465-.364a.244.244,0,0,0-.027.361c-.071-.061-.235-.192-.312-.251-.888-.68-1.834-1.4-2.7-2.1a19.288,19.288,0,0,1-4.188-4.247,2.676,2.676,0,0,1-.378-1.09,8.7,8.7,0,0,1,.132-1.041,13.88,13.88,0,0,0-.233-3.747,24.454,24.454,0,0,0-2.359-7.209c-2.686-4.267-7.42-7.081-12.2-8.477-7.508-2.19-15.9.1-18.6,8.055a22.272,22.272,0,0,0,.223,14.9c4.04,10.759,16.744,11.482,26.014,7.374a16.889,16.889,0,0,0,4.416-2.622c.01-.011-.032.051.091-.132a.672.672,0,0,1,.217-.157,7.347,7.347,0,0,1,2.335-.226c1.314.012,2.615.085,3.916.172.6.039,2.331.176,2.922.228.2.014.727.068.943.086-.119.066.291-.135-.217.127Z" transform="translate(-2396.218 -358.023)" fill="#0e484e"/>
          </g>
          <g id="그룹_439" data-name="그룹 439" transform="translate(4.697 9.554)">
            <g id="그룹_437" data-name="그룹 437" transform="translate(0)">
              <ellipse id="타원_26" data-name="타원 26" cx="5.962" cy="4.751" rx="5.962" ry="4.751" transform="matrix(0.414, -0.91, 0.91, 0.414, 0, 10.855)" fill="#e0972f"/>
              <path id="패스_37974" data-name="패스 37974" d="M2406.85,381.139a4.279,4.279,0,0,1-1.775-.38,4.685,4.685,0,0,1-2.555-3.245,7.476,7.476,0,0,1,3.694-8.125,4.683,4.683,0,0,1,4.126-.207c2.583,1.175,3.5,4.728,2.053,7.919h0A6.452,6.452,0,0,1,2406.85,381.139Zm1.7-11.548a4.36,4.36,0,0,0-1.977.5,6.684,6.684,0,0,0-3.286,7.226,3.907,3.907,0,0,0,2.114,2.716c2.184.993,5-.471,6.269-3.264h0c1.27-2.793.525-5.875-1.661-6.869A3.5,3.5,0,0,0,2408.552,369.591Zm3.48,7.346h0Z" transform="translate(-2400.915 -367.576)" fill="#0c474d"/>
            </g>
            <g id="그룹_438" data-name="그룹 438" transform="translate(3.79 1.989)">
              <path id="패스_37975" data-name="패스 37975" d="M2410.591,369.765s-1.539,3.693-3.521,4.776-2.218,5.273-2.112,5.71" transform="translate(-2404.705 -369.565)" fill="#e0972f"/>
              <path id="패스_37976" data-name="패스 37976" d="M2410.785,369.846a10.427,10.427,0,0,1-3.313,4.9,4.1,4.1,0,0,0-1.769,2.555,12.685,12.685,0,0,0-.552,2.9.2.2,0,0,1-.385.094c-.246-1.967.215-4.8,1.962-6a6.845,6.845,0,0,0,2.1-2.02,21.162,21.162,0,0,0,1.57-2.6.21.21,0,0,1,.384.169Z" transform="translate(-2404.705 -369.565)" fill="#0c474d"/>
            </g>
          </g>
          <g id="그룹_442" data-name="그룹 442" transform="translate(16.384 10.565)">
            <g id="그룹_440" data-name="그룹 440" transform="translate(0)">
              <ellipse id="타원_27" data-name="타원 27" cx="7.483" cy="5.963" rx="7.483" ry="5.963" transform="matrix(0.414, -0.91, 0.91, 0.414, 0, 13.623)" fill="#e0972f"/>
              <path id="패스_37977" data-name="패스 37977" d="M2420.068,385.514a5.278,5.278,0,0,1-2.2-.474c-3.192-1.451-4.326-5.85-2.527-9.805a8.881,8.881,0,0,1,3.961-4.282,5.779,5.779,0,0,1,5.09-.257c3.191,1.451,4.325,5.85,2.526,9.8a8.884,8.884,0,0,1-3.961,4.283A6.364,6.364,0,0,1,2420.068,385.514Zm2.12-14.5a5.575,5.575,0,0,0-2.528.643,8.094,8.094,0,0,0-3.6,3.9c-1.617,3.557-.66,7.485,2.134,8.756a5.008,5.008,0,0,0,4.4-.242,8.1,8.1,0,0,0,3.6-3.9c1.617-3.557.66-7.484-2.134-8.755A4.5,4.5,0,0,0,2422.188,371.016Z" transform="translate(-2412.602 -368.588)" fill="#0c474d"/>
            </g>
            <g id="그룹_441" data-name="그룹 441" transform="translate(4.818 2.546)">
              <path id="패스_37978" data-name="패스 37978" d="M2424.747,371.334s-1.932,4.635-4.419,6-2.784,6.617-2.651,7.165" transform="translate(-2417.42 -371.133)" fill="#e0972f"/>
              <path id="패스_37979" data-name="패스 37979" d="M2424.941,371.415c-.928,2.264-2.1,4.647-4.166,6.084a5.239,5.239,0,0,0-2.254,3.27,14.558,14.558,0,0,0-.651,3.679.2.2,0,1,1-.385.094,10.376,10.376,0,0,1,1.061-5.861,4.184,4.184,0,0,1,1.41-1.565,6.861,6.861,0,0,0,1.457-1.128,19.663,19.663,0,0,0,3.14-4.734.21.21,0,0,1,.388.161Z" transform="translate(-2417.42 -371.133)" fill="#0c474d"/>
            </g>
          </g>
        </g>
        <path id="패스_37980" data-name="패스 37980" d="M2470.84,375.571a7.325,7.325,0,0,1-2.57-.4c-1.073-.44-3.587-1.471-2.332-4.609.881-2.2,2.557-4.555,4.621-4.557h0a4.235,4.235,0,0,1,2.9,1.555,7.756,7.756,0,0,1,2.208,5.229,2.447,2.447,0,0,1-1.239,1.951A7.087,7.087,0,0,1,2470.84,375.571Zm-.28-8.374h0c-1.212,0-2.593,1.5-3.518,3.809-.687,1.719.06,2.4,1.68,3.068a7.238,7.238,0,0,0,5.078-.339,1.276,1.276,0,0,0,.683-1.017,6.642,6.642,0,0,0-1.888-4.341,3.167,3.167,0,0,0-2.034-1.18Z" transform="translate(-2396.218 -278.136)" fill="#0c474d"/>
        <path id="패스_37981" data-name="패스 37981" d="M2467.736,368.8a4.634,4.634,0,0,0,5.783,0l1.713,3.232-1.324,2.161-2.765.623-3.212-.643-1.616-1.713.487-2.142Z" transform="translate(-2396.218 -278.136)" fill="#0c474d"/>
        <path id="패스_37982" data-name="패스 37982" d="M2477.132,340.515c1.627-2.617,5.3-3.943,7.887-1.862a6.142,6.142,0,0,1,1.821,2.236.406.406,0,0,1-.623.489,15.588,15.588,0,0,0-2.028-1.5c-2.165-1.44-4.651-.392-6.433,1.184a.422.422,0,0,1-.624-.55Z" transform="translate(-2396.218 -278.136)" fill="#0e484e"/>
        <path id="패스_37983" data-name="패스 37983" d="M2456.223,338.078c2-2.346,5.834-3.109,8.077-.666a6.158,6.158,0,0,1,1.467,2.483.405.405,0,0,1-.688.39,15.629,15.629,0,0,0-1.783-1.783c-1.926-1.746-4.54-1.08-6.537.213a.422.422,0,0,1-.536-.637Z" transform="translate(-2396.218 -278.136)" fill="#0e484e"/>
      </g>
    </g>
    <g id="그룹_446" data-name="그룹 446" transform="translate(262 118)">
      <path id="패스_37984" data-name="패스 37984" d="M2621.119,223.517a26.777,26.777,0,0,1,18.464,4.315,25.156,25.156,0,0,1,9.528,11.867,25.892,25.892,0,0,1,.663,17.38c-1.774,5.894-5.45,10.409-10.4,14.155.07.935.1,1.873.214,2.8a21.627,21.627,0,0,1-2.668,13.517,22.156,22.156,0,0,1-36.329,3.511c-.738-.865-1.443-1.759-2.072-2.529-1.1-.211-1.577.5-2.144.947a26.7,26.7,0,0,1-12.4,5.524c-7.743,1.266-15-.021-21.53-4.55a23.265,23.265,0,0,1-7.081-7.751c-.416-.736-.867-1.45-1.351-2.257-6.481,1.585-11.973.251-15.33-5.767-3.29-5.9-1.6-11.217,2.981-15.954-.362-.993-.748-1.959-1.069-2.946a18.448,18.448,0,0,1,8.7-22.061c4.135-2.251,8.522-2.522,13.055-1.784.458.074.908.2,1.5.328a13.713,13.713,0,0,0,.606-1.62,31.909,31.909,0,0,1,3.532-9.324c5.872-9.778,14.562-15.061,25.925-15.074,10.65-.012,19.021,4.838,25,13.7C2619.644,221.047,2620.3,222.2,2621.119,223.517Z" transform="translate(-2536.962 -206.246)" fill="#fff" stroke="#00474c" stroke-width="1.5"/>
      <path id="패스_37985" data-name="패스 37985" d="M2586.516,328.721a8.055,8.055,0,0,1-7.563-12.938,8.323,8.323,0,0,1,11.609-1.584,8.113,8.113,0,0,1,1.044,12.053A7.6,7.6,0,0,1,2586.516,328.721Z" transform="translate(-2537.326 -206.921)" fill="#fff" stroke="#00474c" stroke-width="1.5"/>
      <path id="패스_37986" data-name="패스 37986" d="M2572.659,340.921a14.126,14.126,0,0,1-2.446-.964,2.381,2.381,0,0,1-.57-3.249,3.329,3.329,0,0,1,4.861-.925,2.556,2.556,0,0,1,.219,3.992A11.294,11.294,0,0,1,2572.659,340.921Z" transform="translate(-2537.227 -206.921)" fill="#fff" stroke="#00474c" stroke-width="1.5"/>
    </g>
    <text id="굳이_그_카페를.._그럴_수_있지" data-name="굳이
그 카페를..?
그럴 수 있지" transform="translate(318.999 149)" fill="#00474c" font-size="14" font-family="AppleSDGothicNeo-Bold, Apple SD Gothic Neo" font-weight="700"><tspan x="-12" y="0">굳이</tspan><tspan y="0" font-family="Helvetica-Bold, Helvetica"></tspan><tspan x="-34" y="21">그</tspan><tspan y="21" font-family="Helvetica-Bold, Helvetica"> </tspan><tspan y="21">카페를</tspan><tspan y="21" font-family="Helvetica-Bold, Helvetica">..?</tspan><tspan x="-34" y="42">그럴</tspan><tspan y="42" font-family="Helvetica-Bold, Helvetica"> </tspan><tspan y="42">수</tspan><tspan y="42" font-family="Helvetica-Bold, Helvetica"> </tspan><tspan y="42">있지</tspan></text>
  </g>
</svg>
