<svg xmlns="http://www.w3.org/2000/svg" width="38" height="38" viewBox="0 0 38 38">
  <g id="그룹_228" data-name="그룹 228" transform="translate(-176.498 -720.064)">
    <rect id="사각형_52" data-name="사각형 52" width="38" height="38" rx="2.977" transform="translate(176.498 720.064)" fill="#5071b7"/>
    <g id="그룹_227" data-name="그룹 227" transform="translate(193.602 726.523)">
      <path id="패스_15352" data-name="패스 15352" d="M203.031,743.645V758h-5.312c-.4,0-.4,0-.4-.406q0-6.687,0-13.374a2.305,2.305,0,0,1,0-.263c.028-.238-.059-.317-.3-.315-1.349.011-2.7,0-4.045.012-.286,0-.369-.072-.366-.372.015-1.635.007-3.27.007-4.905,0-.4,0-.4.383-.4,1.32,0,2.64-.009,3.96.006.292,0,.366-.091.366-.382,0-1.5-.039-3,.044-4.495a6.615,6.615,0,0,1,3.154-5.7,6.529,6.529,0,0,1,3.393-.94c1.479,0,2.957.106,4.435.164.192.008.28.079.278.3q-.014,2.264,0,4.527c0,.248-.1.285-.3.284-.939-.008-1.88-.02-2.819.007a4.365,4.365,0,0,0-1.145.187,1.767,1.767,0,0,0-1.269,1.657c-.06.618-.054,1.243-.063,1.864-.009.721.016,1.442-.01,2.161-.012.315.1.369.372.367,1.528-.012,3.057-.006,4.586-.006.085,0,.171,0,.256,0,.161,0,.212.068.19.236-.223,1.713-.447,3.425-.653,5.14-.03.245-.114.3-.335.3-1.338-.008-2.677,0-4.016,0Z" transform="translate(-192.605 -726.457)" fill="#fff"/>
    </g>
  </g>
</svg>
