<svg xmlns="http://www.w3.org/2000/svg" width="242" height="254" viewBox="0 0 242 254">
  <g id="그룹_262" data-name="그룹 262" transform="translate(-73.536 -270.031)">
    <path id="패스_15356" data-name="패스 15356" d="M192.856,450.237l15.687-1.789,4.816,20.5,3.7,12.554.946,4.509h-34.9l-.185-8.63Z" transform="translate(-0.488 0.035)" fill="#fff"/>
    <path id="패스_15357" data-name="패스 15357" d="M149.469,438.044c.133.276,1.2,3.66,1.2,3.66l7.868.423,4.5-1.285-.505-2.8Z" transform="translate(-0.307 0.023)" fill="#fff"/>
    <g id="그룹_239" data-name="그룹 239" transform="translate(180.483 493.285)">
      <path id="패스_15358" data-name="패스 15358" d="M181.755,495.92s1.755,7.447,1.277,9.042,12.658,4.84,12.924,3.192.426-12.925-1.01-13.882S181.755,495.92,181.755,495.92Z" transform="translate(-180.922 -493.25)" fill="#fff"/>
      <path id="패스_15359" data-name="패스 15359" d="M194.555,509.431c-3.344,0-10.337-1.864-11.885-3.368a1.3,1.3,0,0,1-.437-1.34c.26-.865-.451-5.057-1.289-8.611a.832.832,0,0,1,.631-1.005c4.519-1,12.326-2.533,13.833-1.529,2.152,1.435,1.47,14.092,1.371,14.708a1.261,1.261,0,0,1-.943,1A4.3,4.3,0,0,1,194.555,509.431Zm-10.666-4.5c1.255,1.211,9.5,3.26,11.281,2.814.287-2.522.185-11.62-.709-12.792-.947-.369-6.629.511-11.705,1.6C183.22,498.626,184.164,503.2,183.889,504.934Zm10.55-10.005Z" transform="translate(-180.922 -493.25)" fill="#1c484d"/>
    </g>
    <g id="그룹_240" data-name="그룹 240" transform="translate(202.697 493.285)">
      <path id="패스_15360" data-name="패스 15360" d="M218.432,495.92s-1.755,7.447-1.277,9.042-12.658,4.84-12.924,3.192-.426-12.925,1.01-13.882S218.432,495.92,218.432,495.92Z" transform="translate(-203.227 -493.25)" fill="#fff"/>
      <path id="패스_15361" data-name="패스 15361" d="M205.632,509.431a4.3,4.3,0,0,1-1.281-.149,1.259,1.259,0,0,1-.943-1c-.1-.616-.781-13.273,1.371-14.708,1.508-1,9.314.526,13.833,1.529a.832.832,0,0,1,.631,1.005c-.838,3.554-1.549,7.746-1.29,8.611a1.292,1.292,0,0,1-.436,1.34C215.969,507.567,208.976,509.431,205.632,509.431Zm-.612-1.682c1.788.443,10.023-1.6,11.278-2.815-.276-1.737.669-6.308,1.133-8.379-5.037-1.079-10.671-1.952-11.706-1.593-.12.191-.654,1.312-.8,6.294A64.22,64.22,0,0,0,205.02,507.749Zm.728-12.82Z" transform="translate(-203.227 -493.25)" fill="#1c484d"/>
    </g>
    <g id="그룹_241" data-name="그룹 241" transform="translate(178.896 482.855)">
      <path id="패스_15362" data-name="패스 15362" d="M218.3,483.263a10.026,10.026,0,0,1,.619,3.988c-.115,2.234-.444,6.329.252,7.5s1.335.958.537,2.128-14.892.425-15.371,0c0,0-1.875.11-2.264-.373-.825-1.022-1.01-3.051-1.914-3.211s-2.235.286-2.022,1.563-1.808,1.6-2.287,2.021-14.574,1.17-15.371,0-.16-.958.537-2.128.367-5.265.252-7.5a10.511,10.511,0,0,1,.487-3.851" transform="translate(-179.384 -482.821)" fill="#1e494e"/>
      <path id="패스_15363" data-name="패스 15363" d="M218.707,483.093c1.294,2.979.446,6.236.668,9.334a3.54,3.54,0,0,0,.818,2.589,3.126,3.126,0,0,1,.373.45,1.217,1.217,0,0,1,.12.99,2.637,2.637,0,0,1-.271.571,1.716,1.716,0,0,1-.352.449,6.053,6.053,0,0,1-2.744.639c-1.877.14-3.754.139-5.627.111a55.431,55.431,0,0,1-7.317-.5,1.207,1.207,0,0,1-.564-.255l.572.2a4.154,4.154,0,0,1-2.837-.557,2.246,2.246,0,0,1-.189-.225c-.656-.845-.82-2.058-1.39-2.811,0,.01.086.025.019.013a1.343,1.343,0,0,0-.2-.012c-.451.027-.926.153-.837.636.286,1.55-1.326,2.276-2.43,2.726-.2.1-.188.146-.385.229a17.167,17.167,0,0,1-3.445.428c-1.764.11-3.522.172-5.287.193a27.066,27.066,0,0,1-6.787-.482,1.479,1.479,0,0,1-.769-.556,2.355,2.355,0,0,1-.454-1.1,1.431,1.431,0,0,1,.491-1.09,2.276,2.276,0,0,0,.752-1.346,28.837,28.837,0,0,0,.124-5.09,12.759,12.759,0,0,1,.61-5.371.416.416,0,0,1,.789.259c-.743,2.489-.093,5.146-.068,7.694a8.757,8.757,0,0,1-.481,3.916,7.609,7.609,0,0,1-.8,1.063.25.25,0,0,0,.031-.13c-.018-.074.05.115.153.255l.08.118.02.029a.329.329,0,0,0-.026-.038l-.048-.049a28.815,28.815,0,0,0,6.362.33,71.664,71.664,0,0,0,8.021-.546l.1-.024a.6.6,0,0,0-.178.106c.492-.438,1.589-.612,1.995-1.135.013-.044.023-.02.009-.139a2.179,2.179,0,0,1,.08-1.038,2.558,2.558,0,0,1,3.132-1.367c1.382.581,1.441,2.56,2.13,3.411-.063-.054-.041-.026,0-.013a5.267,5.267,0,0,0,1.622.13l.572.2a.654.654,0,0,0-.162-.108c-.051-.019,0,0,.033.006a65.91,65.91,0,0,0,7,.532c2.443.024,5.159.268,7.477-.291.01-.011-.07.071-.053.062l.112-.168a1.458,1.458,0,0,0,.138-.258c.008-.022,0-.011.005.03a.172.172,0,0,0,.022.071,4.394,4.394,0,0,1-1.071-1.7c-.518-2.52-.062-5.08.038-7.575a9.936,9.936,0,0,0-.519-3.487.441.441,0,0,1,.825-.308Z" transform="translate(-179.384 -482.821)" fill="#1c484d"/>
    </g>
    <g id="그룹_242" data-name="그룹 242" transform="translate(178.828 479.407)">
      <path id="패스_15364" data-name="패스 15364" d="M184.234,479.636s-4.136.721-4.149,3.382c0,.931,1.841.656,3.527.138" transform="translate(-179.241 -479.372)" fill="#fff"/>
      <path id="패스_15365" data-name="패스 15365" d="M184.28,479.9c-1.334.675-3.288,1.485-3.347,3.1,0,.041,0-.06-.043-.126a.27.27,0,0,0-.117-.122,4.425,4.425,0,0,0,1.532.074c.464.007.774-.232,1.241.118.394.3-.083.89-.369.932-1.139.434-2.914,1.125-3.773-.2a2.817,2.817,0,0,1,1.053-3.1,5.852,5.852,0,0,1,3.731-1.2.273.273,0,0,1,.092.527Z" transform="translate(-179.241 -479.372)" fill="#1c484d"/>
    </g>
    <g id="그룹_243" data-name="그룹 243" transform="translate(215.158 479.406)">
      <path id="패스_15366" data-name="패스 15366" d="M215.93,479.636s4.136.721,4.149,3.382c0,.931-1.841.656-3.527.138" transform="translate(-215.713 -479.371)" fill="#fff"/>
      <path id="패스_15367" data-name="패스 15367" d="M215.976,479.372c2.005-.028,4.537.954,4.907,3.194A1.447,1.447,0,0,1,219.7,484.4a5.194,5.194,0,0,1-2.71-.523.748.748,0,0,1-.5-.508c-.16-.445.547-.692.794-.6a5.919,5.919,0,0,0,2.11-.017.27.27,0,0,0-.117.122c-.042.066-.043.167-.043.126a1.621,1.621,0,0,0-.011-.2c-.227-1.486-2.045-2.255-3.336-2.9a.274.274,0,0,1,.092-.527Z" transform="translate(-215.713 -479.371)" fill="#1c484d"/>
    </g>
    <g id="그룹_244" data-name="그룹 244" transform="translate(148.294 438.863)">
      <path id="패스_15368" data-name="패스 15368" d="M149.469,439.913s6.661,9.893,7.834,11.827c0,0,2.941,3.166,4.438,3.611,3.66,1.088,14.223,2.7,18.582,1.8s9.08-5.969,4.165-11.753c-2.463-2.9-13.923-6.733-18.318-5.484" transform="translate(-148.636 -438.838)" fill="#fff"/>
      <path id="패스_15369" data-name="패스 15369" d="M176.933,458.251a69.22,69.22,0,0,1-15.429-2.1c-1.633-.485-4.295-3.285-4.812-3.842a.9.9,0,0,1-.1-.135c-1.149-1.895-7.746-11.7-7.812-11.794a.833.833,0,1,1,1.382-.931c.269.4,6.529,9.7,7.81,11.786,1.092,1.166,3.1,3.047,4.009,3.319,3.664,1.089,14.093,2.624,18.176,1.782a7.305,7.305,0,0,0,5.322-4.378c.658-1.913.1-3.994-1.624-6.019-2.279-2.681-13.447-6.359-17.455-5.223a.833.833,0,1,1-.456-1.6c4.747-1.348,16.474,2.562,19.18,5.747,2.683,3.156,2.53,5.9,1.93,7.64a8.957,8.957,0,0,1-6.56,5.468A18.34,18.34,0,0,1,176.933,458.251Z" transform="translate(-148.636 -438.838)" fill="#1c484d"/>
    </g>
    <g id="그룹_245" data-name="그룹 245" transform="translate(211.287 432.79)">
      <path id="패스_15370" data-name="패스 15370" d="M247.1,433.513s-4.523,11.036-5.281,13.167c0,0-2.24,3.7-3.616,4.434-3.365,1.806-13.384,5.519-17.835,5.519s-10.1-4.01-6.454-10.668c1.825-3.336,11.949-9.336,16.506-9" transform="translate(-211.907 -432.766)" fill="#fff"/>
      <path id="패스_15371" data-name="패스 15371" d="M247.8,433.8c-.9,2.214-3.139,7.72-3.986,9.858-.434,1.1-.879,2.209-1.276,3.291a25.726,25.726,0,0,1-2.239,3.261,6.138,6.138,0,0,1-1.956,1.731A64.877,64.877,0,0,1,222.8,457.21c-6.54,1.462-13.184-3.756-10.119-10.606a10.96,10.96,0,0,1,3.847-4.48,35.289,35.289,0,0,1,6.488-3.9,22.493,22.493,0,0,1,5.437-1.845c.461-.089,2.481-.128,2.187.737a.388.388,0,0,1-.21.2c-1.144.445-2.261.572-3.411.963-3.725,1.263-10.385,4.88-12.425,8.217-3.3,5.846,2.166,10.333,7.939,9.112a64.4,64.4,0,0,0,14.684-4.877l.4-.2a4.639,4.639,0,0,0,1.479-1.317,27.868,27.868,0,0,0,2.079-2.927l-.066.14c.42-1.14.858-2.227,1.3-3.331.849-2.123,3.115-7.687,4.007-9.865a.752.752,0,0,1,1.392.57Z" transform="translate(-211.907 -432.766)" fill="#1c484d"/>
    </g>
    <path id="패스_15372" data-name="패스 15372" d="M219.838,447.294c.714,7.1,1.785,17.4,9.24,27.322,0,0-8.57,6.5-22.15,6.484a135.2,135.2,0,0,1-4.144-31.836c-.023-1.208,0-8.879,8.509-7.88C213.86,441.685,219.58,444.722,219.838,447.294Z" transform="translate(-0.554 0.028)" fill="#1b474c"/>
    <path id="패스_15373" data-name="패스 15373" d="M179.84,448.143c-.714,7.1.374,20.41-9.24,27.322,0,0,8.57,6.5,22.15,6.484a135.2,135.2,0,0,0,4.144-31.836c.023-1.208,0-8.878-8.509-7.88C185.818,442.534,180.1,445.571,179.84,448.143Z" transform="translate(-0.416 0.028)" fill="#1b474c"/>
    <g id="그룹_246" data-name="그룹 246" transform="translate(176.095 426.388)">
      <path id="패스_15374" data-name="패스 15374" d="M249.438,435.858c2.35-2.637,2.573-4.894,4.295-7.982.275-.493-.339-1.364-.843-1.1-1.916.99-5.208,1.447-7.057,1.995-2.786.827-6.864.438-12.76,2.72a18.261,18.261,0,0,0-7.166,4.937l.006-.023s-17.667,6.1-31.049,5.809l-17.643-1.789s5.458,12.551,3.564,20.208c0,0,30.281-5.38,41.632-18.167.863,1.758,2.384,2.313,4.937,3.377a24.666,24.666,0,0,0,13.139,1.54c2.645-.482,6.72-1.138,8.914-2.624.356-.241.323-1.082-.1-1.161-.937-.174-2.667-.326-3.627-.6-4.589-1.321-10.495-3.361-15.028-1.738q-.243.087-.473.163a14.558,14.558,0,0,1,6.534-2.547C242.42,438.666,245.727,440.023,249.438,435.858Z" transform="translate(-176.673 -426.363)" fill="#ee9437"/>
      <path id="패스_15375" data-name="패스 15375" d="M249.191,435.638c2-2.135,2.7-5.087,4.063-7.627l.149-.28a.373.373,0,0,0,.029-.066.241.241,0,0,0,.007-.064.617.617,0,0,0-.134-.353c-.252-.239-.121-.194-.662.047a21.361,21.361,0,0,1-3.654,1.11c-.816.191-1.633.363-2.429.566a19.741,19.741,0,0,1-2.475.563c-6.465.7-13.407,2.036-17.845,7.2a.457.457,0,0,1-.766-.455l.588.552a123.337,123.337,0,0,1-23.226,5.442,64.585,64.585,0,0,1-7.983.455c-.038,0-17.646-1.76-17.687-1.762l.558-.764c.69,1.627,1.275,3.264,1.815,4.93,1.537,5.023,2.9,10.363,1.811,15.636l-.667-.713a132.133,132.133,0,0,0,22.013-6.281,63.626,63.626,0,0,0,15.094-7.936,29.506,29.506,0,0,0,4.2-3.794.587.587,0,0,1,.968.153c.75,1.681,2.82,2.311,4.711,3.129a23.9,23.9,0,0,0,13.422,1.366c2.687-.516,5.6-.916,7.955-2.343.018-.011.068-.041.06-.038s-.015.017-.017.015,0,0,.007-.016a.368.368,0,0,0,.024-.154c0-.12-.059-.122.034-.059.018,0,.036.021.057.019l-.084-.016c-.243-.043-.5-.081-.75-.117a20.336,20.336,0,0,1-3.131-.582l-2.982-.879c-3.183-.893-6.46-1.71-9.758-1.257a13.239,13.239,0,0,0-2.187.58.448.448,0,0,1-.417-.781,12.031,12.031,0,0,1,2.337-1.341,13.277,13.277,0,0,1,4.5-1.257c4.613-.185,9.092,1.242,12.455-2.83Zm.48.428c-3.439,4.1-7.566,3.094-12.267,3.19a13.556,13.556,0,0,0-6.944,2.513l-.422-.779c4.017-1.575,8.506-.527,12.5.563l3,.858a31.035,31.035,0,0,0,3.778.645,1.164,1.164,0,0,1,.777,1.658c-.183.489-.749.711-1.171.954-2.879,1.417-6.066,1.853-9.184,2.413a25.408,25.408,0,0,1-12.515-1.66,14.325,14.325,0,0,1-4.3-2.276,5.013,5.013,0,0,1-1.038-1.418l.985.133a30.647,30.647,0,0,1-4.342,3.947c-7.809,5.784-17.124,9.075-26.371,11.739-3.718,1.035-7.455,1.943-11.264,2.658a.582.582,0,0,1-.667-.714c1.045-5-.286-10.211-1.741-15.017-.523-1.632-1.1-3.266-1.76-4.832a.551.551,0,0,1,.558-.764c-.009,0,17.777,1.831,17.6,1.815,7.886.078,15.707-1.508,23.315-3.488,2.544-.675,5.085-1.407,7.574-2.233a.455.455,0,0,1,.588.553l-.008.026-.771-.437a20.112,20.112,0,0,1,3.89-3.3A26.88,26.88,0,0,1,239,429.423c2.473-.455,4.979-.478,7.374-1.2a34.947,34.947,0,0,0,6.245-1.723,1.05,1.05,0,0,1,.444-.137,1.214,1.214,0,0,1,1.065,1.495,1.251,1.251,0,0,1-.094.222l-.146.27c-1.39,2.548-2.136,5.62-4.214,7.716Z" transform="translate(-176.673 -426.363)" fill="#1b474c"/>
    </g>
    <path id="패스_15376" data-name="패스 15376" d="M202.149,487.393s15.037,3.887,22.772-4.088,17.183-10.08,20.41-5.922-3.38,1.83-7.148,2.446c-3.82.625-8.65,4.047-11.26,6.235s-14.193,5.4-18.871,3.919a30.576,30.576,0,0,1-6.485-2.643" transform="translate(-0.599 0.035)" fill="#1c484d"/>
    <g id="그룹_247" data-name="그룹 247" transform="translate(168.259 500.524)">
      <path id="패스_15377" data-name="패스 15377" d="M188.944,505.955s7.083-4.915,7.934-4.621-1.119,10.082-.63,12.848,2.332,8.084,1.552,7.73-1.787-.355-4.333.283-5.366,1.348-4.523,0-3.838.825-6.249.767-6.737,1.148-10.283-1.76-3.333-4.255-2.057-3.9a13.938,13.938,0,0,0,6.312.638c2.411-.5,6.347-1.276,6.365-1.844s-1.355-14.041-2.016-14.4S188.075,503.993,188.944,505.955Z" transform="translate(-168.674 -500.489)" fill="#ee9437"/>
      <path id="패스_15378" data-name="패스 15378" d="M178.55,524a10.057,10.057,0,0,1-6.667-2.149c-2.58-2.116-3.613-3.722-3.068-4.772a1.411,1.411,0,0,1,1.763-.576l.155.043a12.851,12.851,0,0,0,5.766.582l.348-.072a43.321,43.321,0,0,0,5.334-1.315c-.154-2.146-1.258-12.069-1.787-13.468a.831.831,0,0,1-.237-.755.844.844,0,0,1,.729-.674c.51-.059,6.222,1.962,8.235,3.98,6.83-4.69,7.636-4.409,8.03-4.273,1.024.355.919,1.656.353,6.576a36.2,36.2,0,0,0-.436,6.914c.179,1.01.548,2.386.905,3.718.921,3.43,1.114,4.259.489,4.789a.94.94,0,0,1-1.007.126c-.539-.245-1.36-.275-3.785.333-3.255.817-4.84,1.166-5.5.256a1.084,1.084,0,0,1-.205-.54c-.372.088-.807.207-1.173.307a15.825,15.825,0,0,1-4.116.769c-.48-.013-1.055.033-1.721.084C180.22,523.934,179.407,524,178.55,524Zm-7.92-5.753a12.466,12.466,0,0,0,2.31,2.315c2.521,2.068,5.5,1.841,7.887,1.659.682-.053,1.325-.1,1.888-.088a16.288,16.288,0,0,0,3.637-.711c1.874-.511,2.815-.768,3.333-.071a.992.992,0,0,1,.175.769,31.641,31.641,0,0,0,3.388-.725,11.77,11.77,0,0,1,3.793-.529c-.158-.74-.446-1.814-.677-2.675-.367-1.366-.746-2.778-.937-3.861-.26-1.47.087-4.481.421-7.393.178-1.548.408-3.549.418-4.574a66.526,66.526,0,0,0-6.847,4.281.834.834,0,0,1-1.237-.348c-.43-.971-3.856-2.523-5.908-3.315.22,1.11.483,2.88.831,5.741.4,3.277.772,7.01.759,7.4-.031,1.009-1.093,1.415-6.681,2.563l-.348.071A13.669,13.669,0,0,1,170.63,518.243Zm9.99-15.809h0Z" transform="translate(-168.674 -500.489)" fill="#1c484d"/>
    </g>
    <g id="그룹_248" data-name="그룹 248" transform="translate(200.804 500.524)">
      <path id="패스_15379" data-name="패스 15379" d="M211.243,505.955s-7.083-4.915-7.934-4.621,1.119,10.082.63,12.848-2.332,8.084-1.552,7.73,1.787-.355,4.333.283,5.366,1.348,4.523,0,3.838.825,6.249.767,6.737,1.148,10.283-1.76,3.333-4.255,2.057-3.9a13.938,13.938,0,0,1-6.312.638c-2.411-.5-6.347-1.276-6.365-1.844s1.355-14.041,2.016-14.4S212.112,503.993,211.243,505.955Z" transform="translate(-201.361 -500.489)" fill="#ee9437"/>
      <path id="패스_15380" data-name="패스 15380" d="M221.637,524c-.857,0-1.67-.062-2.4-.117-.667-.051-1.242-.1-1.721-.084a15.719,15.719,0,0,1-4.116-.769c-.366-.1-.8-.219-1.174-.308a1.09,1.09,0,0,1-.2.541c-.661.91-2.247.56-5.483-.251-2.442-.612-3.264-.584-3.8-.338a.944.944,0,0,1-1.008-.126c-.624-.53-.431-1.359.49-4.789.357-1.332.726-2.708.9-3.718a36.2,36.2,0,0,0-.436-6.914c-.566-4.92-.671-6.221.353-6.576.393-.136,1.2-.417,8.03,4.273,2.013-2.018,7.727-4.04,8.234-3.98a.843.843,0,0,1,.73.674.831.831,0,0,1-.237.755c-.528,1.4-1.629,11.286-1.786,13.469a43.418,43.418,0,0,0,5.332,1.314l.349.072a12.88,12.88,0,0,0,5.766-.582l.155-.043a1.412,1.412,0,0,1,1.763.576c.545,1.05-.487,2.655-3.068,4.772A10.057,10.057,0,0,1,221.637,524Zm-3.969-1.869c.514,0,1.088.044,1.692.09,2.39.182,5.365.408,7.887-1.659a12.434,12.434,0,0,0,2.31-2.315,13.671,13.671,0,0,1-6.205.513l-.348-.071c-5.588-1.148-6.65-1.554-6.681-2.563-.013-.394.36-4.127.759-7.4.347-2.861.611-4.631.831-5.741-2.052.792-5.478,2.344-5.908,3.315a.834.834,0,0,1-1.237.348,66.418,66.418,0,0,0-6.847-4.281c.01,1.025.24,3.026.418,4.574.335,2.912.681,5.923.421,7.393-.191,1.083-.57,2.495-.937,3.861-.231.861-.519,1.935-.677,2.675a11.68,11.68,0,0,1,3.777.525,31.906,31.906,0,0,0,3.4.729.988.988,0,0,1,.175-.769c.518-.7,1.458-.441,3.333.072a15.534,15.534,0,0,0,3.637.71Zm1.9-19.693h0Z" transform="translate(-201.361 -500.489)" fill="#1c484d"/>
    </g>
    <path id="패스_15381" data-name="패스 15381" d="M182.6,467.12a42.933,42.933,0,0,1,1.283,7.477,7.39,7.39,0,0,1-.2,3.094c-.786,1.309-1.895,2.45-2.64,3.751l-.547.268c-.437.127-.287-.617-.245-.827a16.811,16.811,0,0,1,1.951-3.878,10.811,10.811,0,0,0,.039-2.3c-.138-2.447-.4-4.941-.512-7.441a.444.444,0,0,1,.871-.139Z" transform="translate(-0.414 0.029)" fill="#1c484d"/>
    <path id="패스_15382" data-name="패스 15382" d="M218.44,467.259c-.11,3.094-.569,6.17-.54,9.217a2.055,2.055,0,0,0,.067.529l.467.786a12.538,12.538,0,0,1,1.484,3.092,1.637,1.637,0,0,1,.032.685.2.2,0,0,1-.276.142l-.548-.268a1.641,1.641,0,0,1-.136-.231c-.736-1.178-1.679-2.222-2.443-3.4a2.031,2.031,0,0,1-.151-.338,8.924,8.924,0,0,1-.11-2.873,42.933,42.933,0,0,1,1.283-7.477.445.445,0,0,1,.871.139Z" transform="translate(-0.554 0.029)" fill="#1c484d"/>
    <g id="그룹_249" data-name="그룹 249" transform="translate(186.583 460.064)">
      <path id="패스_15383" data-name="패스 15383" d="M191.3,460.87l.048,4.25-3.473,2.448,4.056,1.268,1.256,4.06,2.458-3.466,4.249.061-2.537-3.41,1.37-4.023-4.026,1.358Z" transform="translate(-187.043 -460.036)" fill="#e0923e"/>
      <path id="패스_15384" data-name="패스 15384" d="M193.188,473.729a.733.733,0,0,1-.132-.011.831.831,0,0,1-.664-.576l-1.126-3.642-3.638-1.137a.833.833,0,0,1-.232-1.476l3.115-2.2-.043-3.812a.833.833,0,0,1,1.332-.676l3.051,2.284,3.612-1.218a.833.833,0,0,1,1.055,1.058l-1.229,3.608,2.275,3.059a.833.833,0,0,1,.073.877.822.822,0,0,1-.754.453l-3.811-.055-2.2,3.109A.836.836,0,0,1,193.188,473.729Zm-3.452-6.453,2.445.764a.832.832,0,0,1,.547.549l.757,2.447,1.482-2.088a.8.8,0,0,1,.691-.351l2.561.037-1.529-2.056a.83.83,0,0,1-.12-.766l.826-2.424-2.427.819a.838.838,0,0,1-.766-.123l-2.05-1.535.03,2.561a.832.832,0,0,1-.354.69Z" transform="translate(-187.043 -460.036)" fill="#1b474c"/>
    </g>
    <path id="패스_15385" data-name="패스 15385" d="M159.3,404.477l16.493,11.055,11.746.893,16.581,1.26,19.292-6.053,34.527-5.063,15.179-8.248,8.786-11.778-.53-9.283-4.825-8.311-9.146-6.644-12.062-3.179-13.9-.553-21.824-.993-10.643-4.3-18.814-7.946L177.694,339.6,160,335.519l-15.747,3.424-11.045,8.621-6.05,10.034-2.177,13.8,10.312,20.3Z" transform="translate(-0.928 0.013)" fill="#fff"/>
    <path id="패스_15386" data-name="패스 15386" d="M126.658,359.357c-1.643,6.992.3,14.652,4.179,20.572,2.734,4.172,7.466,9.24,12.8,9.706,3.067.268,4.865-1.265,6.912-3.251,2.734-2.65,5.834-5.251,9.469-6.571,0,0-8.3,9.683-9.507,22.705,0,0-19.671-9.543-24.433-24.808C122.713,366.929,126.657,359.362,126.658,359.357Z" transform="translate(-0.229 0.015)" fill="#e8e1d8"/>
    <ellipse id="타원_43" data-name="타원 43" cx="7.292" cy="5.154" rx="7.292" ry="5.154" transform="matrix(0.044, -0.999, 0.999, 0.044, 191.899, 411.755)" fill="#1c484d"/>
    <ellipse id="타원_44" data-name="타원 44" cx="5.154" cy="7.292" rx="5.154" ry="7.292" transform="translate(169.401 395.637) rotate(-3.046)" fill="#1c484d"/>
    <path id="패스_15387" data-name="패스 15387" d="M281.318,378.327c.272.648-.238,2.225-.352,2.872-1.029,5.863-3.769,12.048-8.719,15.689a26.449,26.449,0,0,1-7.854,3.913c-2.66.823-5.915,1.681-8.565.432-2.877-1.356-3.323-4.586-4.577-7.151-1.592-3.256-7.063-8.728-7.144-8.918,0,0,4.919,11.072,2.147,19.5L246,406.6l6.19.887-6.3,4.957,9.869.263,5.759-1.674,4.74-2.64,3.179-2.008,5.495-4.744,5.441-9.194,1.839-6.863-.408-6.109Z" transform="translate(-0.928 0.017)" fill="#e8e1d8"/>
    <path id="패스_15388" data-name="패스 15388" d="M246.51,406.236a38.675,38.675,0,0,0,1.037-5.117,28.8,28.8,0,0,0,.031-4.975,45.118,45.118,0,0,0-1.04-7.123c-.527-2.162-.394-3.1-2.279-4.431-9.43-6.636-18.009-7.654-28.618-9.306-10.544-1.641-22.5-3.7-33.014-1.6-5.351,1.067-11.1.087-16.038,2.407-2.264,1.065-5.32,2.245-7.132,3.993a33.347,33.347,0,0,0-5.6,7.55A34.284,34.284,0,0,0,149.79,403.1c-.206.027,7.325-.122,9.92.233l.072-.4s.681-9.807,6.653-14.717c0,0,13.279,7.259,46.343,4.6,0,0,5.123,8.232,4.384,16.058C217.162,408.875,247.146,406.432,246.51,406.236Z" transform="translate(-0.488 0.016)" fill="#1c484d"/>
    <path id="패스_15389" data-name="패스 15389" d="M148.693,383.618c9.994-7.8,20.06-9.253,32.2-10.953,11.361-1.915,23.021-.919,34.263,1.252,9.017,1.845,18.09,3.75,26.288,8.169a39.2,39.2,0,0,1,10.231,9.287c-.9-.7-1.8-1.4-2.738-2.039a49.716,49.716,0,0,0-7.988-4.614,56,56,0,0,0-13.1-5.3c-12.978-3.435-26.456-6-39.926-5.092-.818.059-2.5.233-3.315.346-5.547.77-11.24,1.506-16.687,2.747-2.2.45-4.312,1.168-6.469,1.74a65.826,65.826,0,0,0-12.753,4.455Z" transform="translate(-0.498 0.015)" fill="#1c484d"/>
    <path id="패스_15390" data-name="패스 15390" d="M248.6,414.38a.834.834,0,0,1-.016-1.667,34.824,34.824,0,0,0,20.516-7.539c5.761-4.5,9.971-10.577,11.551-16.687,2.561-9.909-1.593-18.59-11.7-24.445-7.965-4.616-19.929-4.883-30.521-4.769-15.567.168-25.213-1.2-52.259-14.945-24.965-12.689-36.6-7.038-42.2-4.322q-.361.177-.693.335c-4.81,2.3-18.341,12.922-17.46,31.014.912,18.73,24.243,30.342,24.478,30.457a.833.833,0,1,1-.731,1.5,61.924,61.924,0,0,1-12.3-8.408c-8.179-7.166-12.712-15.279-13.111-23.465a34.353,34.353,0,0,1,7.308-23.046,34.965,34.965,0,0,1,11.1-9.553q.327-.156.684-.33c5.836-2.833,17.979-8.728,43.681,4.335,26.838,13.642,35.872,14.928,51.486,14.764,10.811-.114,23.044.167,31.374,4.994,10.654,6.174,15.2,15.761,12.475,26.3-1.694,6.554-6.005,12.8-12.139,17.584a36.511,36.511,0,0,1-21.509,7.892Z" transform="translate(-0.928 0.013)" fill="#1c484d"/>
    <path id="패스_15391" data-name="패스 15391" d="M188.951,345.116s12.092-15.284,17.562-14.131,7,11.591,7.972,23.859l-4.471-1.185-11.329-4.086Z" transform="translate(-0.493 0.009)" fill="#1c484d"/>
    <path id="패스_15392" data-name="패스 15392" d="M219.617,357.581s9.537-22.418,15.9-22.234,9.539,12.94,11.6,23.031l-10.335.357-13.4-.559Z" transform="translate(-0.629 0.01)" fill="#1c484d"/>
    <g id="그룹_250" data-name="그룹 250" transform="translate(136.158 401.294)">
      <path id="패스_15393" data-name="패스 15393" d="M177.9,413.34c-7.686-6.93-18.487-12.445-29.133-10.993-6.652.907-11.22,6.542-11.3,13.886-.064,6.245,4.78,11.111,9.619,14.5a67.156,67.156,0,0,0,34.036,11.826c21.342,1.467,41.936-.156,59.028-12.016,5.01-3.476,11.123-6.077,14.874-10.95a.125.125,0,0,0-.111-.2l-8.79.641s8.914-5.075,9.181-6.719c-.609-.008-8.221-.09-10.822-.218l7.409-5.654s-25.032-4.8-55.541,8.142" transform="translate(-136.632 -401.273)" fill="#fff"/>
      <path id="패스_15394" data-name="패스 15394" d="M193.562,443.859c-4.349,0-8.548-.2-12.5-.469a68.128,68.128,0,0,1-34.457-11.975c-6.675-4.674-10.03-9.785-9.974-15.19.081-7.826,4.911-13.735,12.017-14.7,13.628-1.861,25.382,7.213,29.8,11.2a.833.833,0,0,1-1.116,1.237c-12.754-11.5-24.155-11.373-28.463-10.786-6.253.853-10.5,6.105-10.575,13.07-.051,4.823,3.066,9.468,9.263,13.808a66.443,66.443,0,0,0,33.615,11.677c33.38,2.3,48.8-5.139,58.5-11.87,1.5-1.037,3.106-2.009,4.663-2.949,3.189-1.924,6.472-3.9,8.953-6.562l-7.107.518a.833.833,0,0,1-.473-1.555,62.167,62.167,0,0,0,7.881-5.182c-2.726-.036-7.264-.105-9.151-.2a.834.834,0,0,1-.464-1.495l5.833-4.452c-6.406-.782-28.009-2.289-53.134,8.369a.833.833,0,1,1-.651-1.534c30.39-12.892,55.77-8.242,56.023-8.193a.833.833,0,0,1,.348,1.48l-5.551,4.238c2.9.072,6.941.121,8.4.137h.072a.834.834,0,0,1,.813.967c-.213,1.309-3.456,3.6-6.53,5.5l5.255-.383a.969.969,0,0,1,.916.5.958.958,0,0,1-.083,1.037c-2.744,3.564-6.68,5.939-10.486,8.235-1.535.927-3.122,1.885-4.574,2.892C225.922,441.428,208.817,443.859,193.562,443.859Z" transform="translate(-136.632 -401.273)" fill="#1c484d"/>
    </g>
    <ellipse id="타원_45" data-name="타원 45" cx="7.083" cy="11.124" rx="7.083" ry="11.124" transform="translate(174.71 424.432) rotate(-85.846)" fill="#1c484d"/>
    <g id="그룹_251" data-name="그룹 251" transform="translate(143.427 422.513)">
      <path id="패스_15395" data-name="패스 15395" d="M158.541,427.183s-.83-2.752-2.761-2.351-5.7,3.1-6.183,2.565.053-3.569-1.108-3.961-3.294.147-3.661,3.074-.778,5.9,1.557,6.812,4.549,1.674,4.856,1.37" transform="translate(-143.713 -422.491)" fill="#fff"/>
      <path id="패스_15396" data-name="패스 15396" d="M151.008,435.6c-.727,0-2.064-.383-4.925-1.5-2.908-1.13-2.477-4.55-2.1-7.567l.016-.125a4.378,4.378,0,0,1,1.911-3.38,3.43,3.43,0,0,1,2.844-.379c1.244.42,1.337,1.992,1.413,3.256.01.177.023.4.041.594.477-.2,1.2-.584,1.77-.887a16.141,16.141,0,0,1,3.631-1.594c2.115-.44,3.338,1.633,3.728,2.927a.833.833,0,0,1-1.6.483c-.012-.039-.659-2.01-1.795-1.778a15.669,15.669,0,0,0-3.188,1.435c-1.994,1.057-3.093,1.64-3.784.871a3.217,3.217,0,0,1-.472-1.952,4.7,4.7,0,0,0-.313-1.793,1.767,1.767,0,0,0-1.394.229,2.859,2.859,0,0,0-1.144,2.176l-.015.126c-.391,3.108-.53,5.192,1.048,5.805a19.953,19.953,0,0,0,4.228,1.38.834.834,0,0,1,.912,1.36A1.038,1.038,0,0,1,151.008,435.6Zm-.352-1.5h0Z" transform="translate(-143.713 -422.491)" fill="#1c484d"/>
    </g>
    <path id="패스_15397" data-name="패스 15397" d="M191.177,438.694a7.706,7.706,0,0,1-2.7-.417c-1.128-.463-3.77-1.546-2.451-4.844.925-2.314,2.687-4.788,4.856-4.79h0a4.45,4.45,0,0,1,3.049,1.634,8.155,8.155,0,0,1,2.321,5.5,2.571,2.571,0,0,1-1.3,2.051A7.459,7.459,0,0,1,191.177,438.694Zm-.294-8.8h0c-1.273,0-2.724,1.573-3.7,4-.722,1.806.063,2.527,1.765,3.225a7.608,7.608,0,0,0,5.337-.357,1.336,1.336,0,0,0,.718-1.069,6.975,6.975,0,0,0-1.984-4.562,3.33,3.33,0,0,0-2.137-1.24Z" transform="translate(-0.448 0.023)" fill="#1b474c"/>
    <path id="패스_15398" data-name="패스 15398" d="M187.916,431.581a4.869,4.869,0,0,0,6.077,0l1.8,3.4-1.392,2.272-2.9.655-3.377-.676-1.7-1.8.512-2.251Z" transform="translate(-0.449 0.023)" fill="#1b474c"/>
    <g id="그룹_252" data-name="그룹 252" transform="translate(73.536 315.938)">
      <path id="패스_15399" data-name="패스 15399" d="M93.145,347.423a.824.824,0,0,1-.383-.094c-2.544-1.321-5.427-2.818-5.685-7-.09-1.46,1.295-2.271,2.9-3.21a14.752,14.752,0,0,0,3.355-2.426c2.523-2.659,3.883-5.7,3.732-8.352a8.179,8.179,0,0,0-3.253-5.832,13.852,13.852,0,0,0-11.241-2.664c-3.014.569-5.349,2-6.406,3.937-1.616,2.956-1.035,9.079.6,11.668.316.5.806,1.1,1.382,1.064a.833.833,0,1,1,.088,1.664c-.755.044-1.876-.246-2.88-1.841-1.915-3.042-2.59-9.8-.648-13.354,1.3-2.374,4.053-4.114,7.56-4.775a15.551,15.551,0,0,1,12.621,3.024,9.775,9.775,0,0,1,3.846,7.014c.243,4.253-2.52,7.837-4.188,9.594a16.272,16.272,0,0,1-3.721,2.718c-.987.577-2.105,1.231-2.078,1.668.2,3.24,2.327,4.345,4.79,5.624a.833.833,0,0,1-.385,1.573Z" transform="translate(-73.536 -315.93)" fill="#1b474c"/>
      <circle id="타원_46" data-name="타원 46" cx="3.865" cy="3.865" r="3.865" transform="translate(20.194 34.312)" fill="#1b474c"/>
    </g>
    <g id="그룹_253" data-name="그룹 253" transform="translate(146.975 270.031)">
      <path id="패스_15400" data-name="패스 15400" d="M162.268,304.8a.827.827,0,0,1-.567-.224c-2.2-2.049-4.7-4.371-3.79-8.666.313-1.482,1.936-1.912,3.815-2.41a15.564,15.564,0,0,0,4.1-1.525c3.321-2,5.567-4.716,6.162-7.461a8.665,8.665,0,0,0-1.669-6.872,14.644,14.644,0,0,0-10.7-5.889c-3.234-.273-6.023.533-7.649,2.209-2.483,2.557-3.62,8.962-2.69,12.061.183.61.529,1.366,1.137,1.5a.834.834,0,0,1-.359,1.628c-.772-.17-1.81-.768-2.374-2.649-1.086-3.617.127-10.649,3.09-13.7,1.976-2.036,5.253-3.023,8.985-2.709a16.348,16.348,0,0,1,11.934,6.6,10.269,10.269,0,0,1,1.925,8.171c-.947,4.37-4.75,7.224-6.933,8.535a17.132,17.132,0,0,1-4.532,1.708c-1.234.327-2.511.666-2.612,1.144-.714,3.372,1.144,5.1,3.295,7.1a.834.834,0,0,1-.568,1.444Z" transform="translate(-147.292 -270.031)" fill="#1b474c"/>
      <circle id="타원_47" data-name="타원 47" cx="4.074" cy="4.074" r="4.074" transform="translate(13.306 38.745)" fill="#1b474c"/>
    </g>
    <g id="그룹_254" data-name="그룹 254" transform="translate(239.893 282.348)">
      <path id="패스_15401" data-name="패스 15401" d="M245.79,310a.833.833,0,0,1-.8-.588c-.727-2.362-1.55-5.039.879-7.743.882-.982,2.3-.6,3.8-.194a12.281,12.281,0,0,0,3.437.582c3.083-.056,5.708-1.032,7.2-2.678a6.848,6.848,0,0,0,1.564-5.358,11.656,11.656,0,0,0-5.039-8.313,7.6,7.6,0,0,0-6.1-1.519c-2.72.774-6.042,4.73-6.632,7.231-.088.376-.188,1.051.142,1.352a.833.833,0,1,1-1.124,1.23,2.842,2.842,0,0,1-.64-2.964c.71-3.008,4.448-7.5,7.8-8.452,2.249-.638,4.987,0,7.51,1.753a13.358,13.358,0,0,1,5.749,9.549,8.439,8.439,0,0,1-1.99,6.61c-2.466,2.719-6.325,3.188-8.406,3.226a14.127,14.127,0,0,1-3.9-.64c-.768-.208-1.929-.521-2.127-.3-1.677,1.868-1.317,3.566-.525,6.14a.834.834,0,0,1-.8,1.078Z" transform="translate(-240.598 -282.348)" fill="#1b474c"/>
      <circle id="타원_48" data-name="타원 48" cx="3.288" cy="3.288" r="3.288" transform="translate(0 30.718)" fill="#1b474c"/>
    </g>
    <g id="그룹_255" data-name="그룹 255" transform="translate(296.999 330.678)">
      <path id="패스_15402" data-name="패스 15402" d="M302.078,353.113a.835.835,0,0,1-.8-.588c-.564-1.835-1.266-4.119.739-6.351.774-.861,1.955-.543,3.206-.2a9.6,9.6,0,0,0,2.7.459,7.78,7.78,0,0,0,5.637-2.087,5.312,5.312,0,0,0,1.207-4.157,9.15,9.15,0,0,0-3.957-6.523,5.908,5.908,0,0,0-4.738-1.19c-2.087.594-4.733,3.742-5.186,5.659-.1.443-.081.787.064.919a.833.833,0,0,1-1.124,1.23,2.429,2.429,0,0,1-.562-2.532c.578-2.448,3.622-6.1,6.352-6.879a7.455,7.455,0,0,1,6.144,1.424,10.706,10.706,0,0,1,4.668,7.759,6.9,6.9,0,0,1-1.634,5.41c-2.013,2.22-5.15,2.6-6.84,2.633a11.54,11.54,0,0,1-3.167-.517,4.639,4.639,0,0,0-1.553-.274c-1.261,1.411-.979,2.729-.364,4.731a.833.833,0,0,1-.8,1.078Z" transform="translate(-297.927 -330.669)" fill="#1b474c"/>
      <circle id="타원_49" data-name="타원 49" cx="2.629" cy="2.629" r="2.629" transform="translate(0 24.725)" fill="#1b474c"/>
    </g>
    <g id="그룹_256" data-name="그룹 256" transform="translate(236.195 416.908)">
      <path id="패스_15403" data-name="패스 15403" d="M237.8,426.657s-.611-2.809,1.272-3.4,6.489-.056,6.65-.76-1.779-3.094-.955-4,2.951-1.471,4.694.91,3.547,4.783,1.947,6.71-4.566,4.479-4.982,4.363" transform="translate(-236.863 -416.886)" fill="#fff"/>
      <path id="패스_15404" data-name="패스 15404" d="M246.375,431.307a.629.629,0,0,1-.172-.022.833.833,0,0,1,.141-1.631,23.248,23.248,0,0,0,4.424-4.066c1.081-1.3-.051-3.056-1.9-5.583l-.075-.1a2.855,2.855,0,0,0-2.057-1.347,1.711,1.711,0,0,0-1.348.506,5.262,5.262,0,0,0,.616,1.69,3.214,3.214,0,0,1,.535,1.935c-.231,1.008-1.475,1.032-3.732,1.076a15.71,15.71,0,0,0-3.483.294c-1.112.347-.71,2.406-.706,2.427a.833.833,0,0,1-1.629.351c-.287-1.32-.223-3.725,1.838-4.369a16.084,16.084,0,0,1,3.947-.369c.646-.013,1.465-.029,1.979-.084-.079-.18-.175-.38-.251-.539-.549-1.142-1.231-2.562-.347-3.533a3.456,3.456,0,0,1,2.67-1.05,4.38,4.38,0,0,1,3.313,2.027l.075.1c1.8,2.453,3.832,5.232,1.84,7.632C252.01,426.7,247.931,431.307,246.375,431.307Zm.275-1.627h0Zm0,0Z" transform="translate(-236.863 -416.886)" fill="#1c484d"/>
    </g>
    <path id="패스_15405" data-name="패스 15405" d="M231.366,436.572l-7.293,1.743-6.169,4.357,1.353,7.568,1.445,5.573,1.468.069,9.2-1.468,5.292-2.546,3.93-3.33,2.818-6.951,3.7-8.075h-2.236l-10.13,1.843Z" transform="translate(-0.627 0.025)" fill="#fff"/>
    <path id="패스_15406" data-name="패스 15406" d="M220.372,457.466a.833.833,0,0,1,0-1.666c4.168,0,14.072-3.613,17.441-5.421.84-.45,2.421-2.7,3.255-4.06.823-2.273,4.6-11.191,4.759-11.575a.834.834,0,0,1,1.535.651c-.04.094-4.013,9.48-4.754,11.564a.855.855,0,0,1-.072.153c-.394.65-2.435,3.931-3.935,4.736C235.4,453.564,225.2,457.466,220.372,457.466Z" transform="translate(-0.63 0.025)" fill="#1c484d"/>
    <path id="패스_15407" data-name="패스 15407" d="M180.495,483.45a21.506,21.506,0,0,1,9.768-1.032c1.14.175,2.4.446,3.554.518a131.806,131.806,0,0,0,15.534-.174c1.6-.089,3.2-.191,4.8-.3a12.615,12.615,0,0,1,4.294.542,1.177,1.177,0,0,0,.478.029.224.224,0,0,1,.3.151c.072.708-2.186.19-2.64.248a11.078,11.078,0,0,0-2.3.149,80.137,80.137,0,0,1-19.4.938c-.712-.081-1.755-.213-2.451-.358-.661-.153-1.689-.411-2.353-.522a21.928,21.928,0,0,0-9.327.534.381.381,0,0,1-.252-.72Z" transform="translate(-0.486 0.035)" fill="#1c484d"/>
    <g id="그룹_257" data-name="그룹 257" transform="translate(184.797 483.09)">
      <path id="패스_15408" data-name="패스 15408" d="M185.437,483.263h2.076l.264.194-1.789.47Z" transform="translate(-185.228 -483.055)" fill="#1e494e"/>
      <path id="패스_15409" data-name="패스 15409" d="M185.987,484.136a.206.206,0,0,1-.16-.076l-.551-.664a.208.208,0,0,1,.161-.341h2.075a.211.211,0,0,1,.124.04l.264.193a.212.212,0,0,1,.081.208.207.207,0,0,1-.152.162l-1.789.471A.188.188,0,0,1,185.987,484.136Zm-.107-.665.183.221.839-.221Z" transform="translate(-185.228 -483.055)" fill="#1c484d"/>
    </g>
    <path id="패스_15410" data-name="패스 15410" d="M216.133,441.625s6.166-1.683,6.914-1.927c2.065-.67,3.475-1.307,3.475-1.307l-3.446,3.662-5.722,4.354Z" transform="translate(-0.569 0.024)" fill="#e0923e"/>
    <g id="그룹_258" data-name="그룹 258" transform="translate(216.485 436.724)">
      <path id="패스_15411" data-name="패스 15411" d="M217.686,446.685s8.286-7.183,10.487-9.36" transform="translate(-217.061 -436.7)" fill="#e0923e"/>
      <path id="패스_15412" data-name="패스 15412" d="M217.687,447.31a.625.625,0,0,1-.41-1.1c.083-.072,8.3-7.194,10.457-9.332a.625.625,0,1,1,.879.888c-2.191,2.167-10.178,9.094-10.517,9.388A.622.622,0,0,1,217.687,447.31Z" transform="translate(-217.061 -436.7)" fill="#1b474c"/>
    </g>
    <path id="패스_15413" data-name="패스 15413" d="M165.609,439.412l.275,3.991-2.064-.391-1.376-3.6Z" transform="translate(-0.345 0.024)" fill="#fff"/>
    <g id="그룹_259" data-name="그룹 259" transform="translate(146.201 424.113)">
      <path id="패스_15414" data-name="패스 15414" d="M151.584,438.778a5.5,5.5,0,0,1-2.563.314c-1.246-.191-2.314-2.081-1.24-2.9,1.409-1.076,7.772-4.12,11.707-11.268,0,0,2.694,3.342,1.229,4.329-1.493,1.007,2.328,3.251,2.235,6.478,0,0,3.262.032,3.634,1.789a5.244,5.244,0,0,1-.163,2.886" transform="translate(-146.507 -424.09)" fill="#fff"/>
      <path id="패스_15415" data-name="패스 15415" d="M166.423,441.239a.835.835,0,0,1-.768-1.157,4.5,4.5,0,0,0,.116-2.39c-.173-.82-2.015-1.118-2.828-1.128a.837.837,0,0,1-.824-.858,6.341,6.341,0,0,0-1.529-3.623c-.634-.912-1.181-1.7-1.027-2.521a1.538,1.538,0,0,1,.688-1c.028-.019.05-.034.063-.116a3.943,3.943,0,0,0-.763-1.982,30.341,30.341,0,0,1-10.229,9.712c-.463.29-.829.52-1.035.678-.05.038-.168.127-.089.437a1.392,1.392,0,0,0,.95.977,4.674,4.674,0,0,0,2.125-.263.833.833,0,0,1,.624,1.545,6.37,6.37,0,0,1-3,.365,3.015,3.015,0,0,1-2.311-2.211,2.016,2.016,0,0,1,.691-2.175c.268-.2.662-.452,1.161-.765a28.2,28.2,0,0,0,10.322-10.243.835.835,0,0,1,.657-.428.844.844,0,0,1,.722.307c.347.432,2.07,2.666,1.825,4.293a1.791,1.791,0,0,1-.744,1.226,6.812,6.812,0,0,0,.74,1.213,8.948,8.948,0,0,1,1.784,3.818c1.188.139,3.286.633,3.659,2.4a6.1,6.1,0,0,1-.209,3.381A.839.839,0,0,1,166.423,441.239Z" transform="translate(-146.507 -424.09)" fill="#1c484d"/>
    </g>
    <path id="패스_15416" data-name="패스 15416" d="M214.275,455.145l14.8,19.471c-7.455-9.92-8.526-20.22-9.24-27.322a3.45,3.45,0,0,0-.977-1.851" transform="translate(-0.573 0.027)" fill="#1b474c"/>
    <path id="패스_15417" data-name="패스 15417" d="M181.121,442.558" transform="translate(-0.411 0.024)" fill="#fff" stroke="#1c484d" stroke-linecap="round" stroke-linejoin="round" stroke-width="4"/>
    <g id="그룹_260" data-name="그룹 260" transform="translate(179.775 435.858)">
      <path id="패스_15418" data-name="패스 15418" d="M181.121,442.558c16.515,1.135,33.613-.013,47.957-5.89" transform="translate(-180.288 -435.834)" fill="#fff"/>
      <path id="패스_15419" data-name="패스 15419" d="M192.178,443.784q-5.379,0-11.114-.394a.833.833,0,0,1,.114-1.663c18.953,1.3,34.963-.659,47.584-5.83a.833.833,0,1,1,.632,1.542C219.094,441.659,206.61,443.784,192.178,443.784Z" transform="translate(-180.288 -435.834)" fill="#1c484d"/>
    </g>
    <g id="그룹_261" data-name="그룹 261" transform="translate(228.066 420.888)">
      <path id="패스_15420" data-name="패스 15420" d="M245.027,434.515a5.5,5.5,0,0,0,2.582.006c1.215-.338,2.049-2.342.886-3.027-1.528-.9-8.208-3.166-12.966-9.794,0,0-2.277,3.638-.705,4.445,1.6.822-1.923,3.5-1.447,6.7,0,0-3.958.5-3.827,2.048.21,2.487,1.048,3.032,1.048,3.032" transform="translate(-228.715 -420.866)" fill="#fff"/>
      <path id="패스_15421" data-name="패스 15421" d="M230.144,438.622c-.13-.05-1.2-.976-1.424-3.661-.044-.517.122-2.169,3.78-2.828a9,9,0,0,1,1.316-3.974,6.837,6.837,0,0,0,.59-1.292,1.806,1.806,0,0,1-.884-1.129c-.437-1.587,1.007-4.01,1.3-4.48a.834.834,0,0,1,.68-.391.811.811,0,0,1,.7.347,28.2,28.2,0,0,0,11.468,8.94c.533.252.954.45,1.244.622a2.015,2.015,0,0,1,.946,2.076,3.016,3.016,0,0,1-2.032,2.472,6.368,6.368,0,0,1-3.024-.005.834.834,0,0,1,.436-1.609h0a4.7,4.7,0,0,0,2.142.009,1.4,1.4,0,0,0,.825-1.084c.042-.317-.085-.392-.139-.424-.224-.132-.615-.316-1.109-.549a30.354,30.354,0,0,1-11.313-8.425,3.928,3.928,0,0,0-.521,2.059c.022.08.046.092.076.107a1.538,1.538,0,0,1,.8.912c.25.8-.2,1.644-.719,2.625a6.352,6.352,0,0,0-1.087,3.78.834.834,0,0,1-.72.949c-1.936.245-3.119.929-3.1,1.152.162,1.923.715,2.434.72,2.439.055.092.529.642.11,1.131A.89.89,0,0,1,230.144,438.622Z" transform="translate(-228.715 -420.866)" fill="#1c484d"/>
    </g>
  </g>
</svg>
