<svg xmlns="http://www.w3.org/2000/svg" width="38" height="38" viewBox="0 0 38 38">
  <g id="그룹_226" data-name="그룹 226" transform="translate(-80.125 -720.064)">
    <rect id="사각형_51" data-name="사각형 51" width="38" height="38" rx="2.977" transform="translate(80.125 720.064)" fill="#f9e000"/>
    <g id="그룹_225" data-name="그룹 225" transform="translate(87.463 728.031)">
      <g id="그룹_224" data-name="그룹 224">
        <path id="패스_15351" data-name="패스 15351" d="M91.432,750.066a6.489,6.489,0,0,1,.059-1.061c.234-.955.453-1.919.775-2.844.217-.625-.01-.861-.469-1.238a19.383,19.383,0,0,1-3.359-3.124c-2.279-3.043-1.854-7.045.86-9.987,4.61-5,13.816-5.1,18.535-.209a7.992,7.992,0,0,1-.284,11.79,12.44,12.44,0,0,1-9.373,3.3,4.325,4.325,0,0,0-3.119.949c-.865.7-1.814,1.283-2.732,1.909C92.1,749.706,91.857,749.824,91.432,750.066Z" transform="translate(-86.965 -727.997)" fill="#3b1e1e"/>
      </g>
    </g>
  </g>
</svg>
