<svg xmlns="http://www.w3.org/2000/svg" width="22" height="22" viewBox="0 0 22 22">
  <g id="그룹_416" data-name="그룹 416" transform="translate(-2501.065 -1478.747)">
    <path id="패스_37847" data-name="패스 37847" d="M2512.531,1500.747a10.338,10.338,0,0,1-8.119-3.989,2.109,2.109,0,0,1,.252-2.873,1.886,1.886,0,0,1,2.74.266,6.525,6.525,0,0,0,5.126,2.518,6.926,6.926,0,0,0,0-13.841,6.622,6.622,0,0,0-5.781,3.507,1.9,1.9,0,0,1-2.655.759,2.094,2.094,0,0,1-.723-2.783,10.494,10.494,0,0,1,9.159-5.562,11.01,11.01,0,0,1,0,22Z" fill="#fff"/>
    <g id="그룹_415" data-name="그룹 415" transform="translate(2501.065 1482.488)">
      <path id="패스_37848" data-name="패스 37848" d="M2502.089,1482.991l5.427,3-4.823,1.8Z" transform="translate(-2501.065 -1481.966)" fill="#fff"/>
      <path id="패스_37849" data-name="패스 37849" d="M2502.692,1488.815a1.022,1.022,0,0,1-1.016-.9l-.6-4.8a1.023,1.023,0,0,1,1.512-1.023l5.426,3a1.024,1.024,0,0,1-.138,1.856l-4.823,1.8A1.008,1.008,0,0,1,2502.692,1488.815Zm.665-3.953.19,1.516,1.524-.568Z" transform="translate(-2501.065 -1481.966)" fill="#fff"/>
    </g>
  </g>
</svg>
