<svg xmlns="http://www.w3.org/2000/svg" width="38" height="38" viewBox="0 0 38 38">
  <g id="그룹_232" data-name="그룹 232" transform="translate(-272.871 -720.064)">
    <rect id="사각형_54" data-name="사각형 54" width="38" height="38" rx="2.977" transform="translate(272.871 720.064)" fill="#999"/>
    <g id="그룹_231" data-name="그룹 231" transform="translate(276.36 723.641)">
      <path id="패스_15354" data-name="패스 15354" d="M306.386,731.576c-.113.433-.215.869-.341,1.3a7.025,7.025,0,0,1-1.74,2.952c-2.025,2.082-4.034,4.182-6.09,6.232a6.789,6.789,0,0,1-10.14-.393c-.1-.12-.2-.244-.292-.372a1.346,1.346,0,0,1,.071-1.944,1.225,1.225,0,0,1,1.849.375,4.427,4.427,0,0,0,2.486,1.727,4.057,4.057,0,0,0,4.04-.965c2.228-2.194,4.432-4.418,6.555-6.719a4.57,4.57,0,0,0-.251-6.294,4.349,4.349,0,0,0-6.153-.037c-1.514,1.476-2.951,3.034-4.458,4.519a2.021,2.021,0,0,1-1.135.575,1.166,1.166,0,0,1-1.091-1.651,1.028,1.028,0,0,1,.2-.352c1.856-1.865,3.636-3.823,5.616-5.538a11.129,11.129,0,0,1,3.137-1.348h1.468a1.656,1.656,0,0,0,.306.118,6.918,6.918,0,0,1,5.771,5.463l.195.849Z" transform="translate(-275.363 -723.641)" fill="#fff"/>
      <path id="패스_15355" data-name="패스 15355" d="M276.36,746.487c.061-.235.13-.468.183-.705a7.2,7.2,0,0,1,1.9-3.544c2.024-2.081,4.032-4.179,6.087-6.229a6.8,6.8,0,0,1,10.267.535c.707.908.447,2.047-.556,2.171a1.522,1.522,0,0,1-1.213-.463,4.553,4.553,0,0,0-7.12-.132c-1.857,2.053-3.876,3.951-5.773,5.968a4.6,4.6,0,0,0,2.163,7.655,4.2,4.2,0,0,0,4.17-1.2c1.459-1.468,2.89-2.965,4.349-4.433a2.072,2.072,0,0,1,.819-.546,1.072,1.072,0,0,1,1.271.511,1.171,1.171,0,0,1-.1,1.515c-1.754,1.807-3.511,3.615-5.322,5.362a7.241,7.241,0,0,1-3.377,1.474h-1.468a1.647,1.647,0,0,0-.307-.118,6.918,6.918,0,0,1-5.77-5.463l-.2-.849Z" transform="translate(-276.36 -723.575)" fill="#fff"/>
    </g>
  </g>
</svg>
