<svg xmlns="http://www.w3.org/2000/svg" width="38" height="38" viewBox="0 0 38 38">
  <g id="그룹_230" data-name="그룹 230" transform="translate(-224.685 -720.064)">
    <rect id="사각형_53" data-name="사각형 53" width="38" height="38" rx="2.977" transform="translate(224.685 720.064)" fill="#37b0e2"/>
    <g id="그룹_229" data-name="그룹 229" transform="translate(231.198 728.523)">
      <path id="패스_15353" data-name="패스 15353" d="M242.891,735.062c-.036-.346-.082-.626-.091-.908a5.475,5.475,0,0,1,1.131-3.591,4.931,4.931,0,0,1,2.64-1.849,4.622,4.622,0,0,1,3.958.506,5.247,5.247,0,0,1,.8.57c.615.6,1.241.23,1.838.025.613-.21,1.192-.525,1.837-.817a4.742,4.742,0,0,1-2.052,2.742l.053.114,2.668-.719a3.937,3.937,0,0,1-.408.6c-.612.632-1.248,1.24-1.864,1.868a.54.54,0,0,0-.157.353,15.681,15.681,0,0,1-.732,5.039,17.794,17.794,0,0,1-1.161,2.7,11.063,11.063,0,0,1-.985,1.7,21.968,21.968,0,0,1-1.549,1.857,13.184,13.184,0,0,1-1.243,1.19,6.546,6.546,0,0,1-1.152.814,24.281,24.281,0,0,1-3.043,1.485,13.655,13.655,0,0,1-4.057.806,14.549,14.549,0,0,1-5.65-.832,25.225,25.225,0,0,1-2.5-1.216,2.71,2.71,0,0,1-.473-.271,10.717,10.717,0,0,0,7.413-2.23,5.423,5.423,0,0,1-4.765-3.745h2.145l.016-.095a5.411,5.411,0,0,1-3.987-5.217l2.123.673.088-.112a5.583,5.583,0,0,1-1.466-7.086A14.879,14.879,0,0,0,242.891,735.062Z" transform="translate(-230.7 -728.49)" fill="#fff"/>
    </g>
  </g>
</svg>
